999
FreeCAD v0.19 24415 (Git)
  0
SECTION
  2
HEADER
  9
$ACADVER
  1
AC1014
  9
$ACADMAINTVER
 70
     9
  9
$DWGCODEPAGE
  3
ANSI_1252
  9
$TEXTSTYLE
  7
STANDARD
  9
$DIMSTYLE
  2
STANDARD
  9
$DIMTXSTY
  7
STANDARD
  9
$CMLSTYLE
  2
STANDARD
  9
$PEXTMAX
 10
50
 20
50
 30
50
  9
$PEXTMIN
 10
0
 20
0
 30
0
  9
$HANDSEED
  5
FFFF
  0
ENDSEC
  0
SECTION
  2
CLASSES
  0
CLASS
  1
ACDBDICTIONARYWDFLT
  2
AcDbDictionaryWithDefault
  3
ObjectDBX Classes
 90
        0
280
     0
281
     0
  0
CLASS
  1
XRECORD
  2
AcDbXrecord
  3
ObjectDBX Classes
 90
        0
280
     0
281
     0
  0
CLASS
  1
LWPOLYLINE
  2
AcDbPolyline
  3
ObjectDBX Classes
 90
        0
280
     0
281
     1
  0
ENDSEC
  0
SECTION
  2
TABLES
  0
TABLE
  2
VPORT
  5
20
330
0
100
AcDbSymbolTable
 70
     1
  0
VPORT
  5
21
330
20
100
AcDbSymbolTableRecord
100
AcDbViewportTableRecord
  2
*ACTIVE
 70
     0
  0
ENDTAB
  0
TABLE
  2
LTYPE
  5
22
330
0
100
AcDbSymbolTable
 70
     1
  0
LTYPE
  5
23
330
21
100
AcDbSymbolTableRecord
100
AcDbLinetypeTableRecord
  2
BYBLOCK
 70
     0
  3

 72
    65
 73
     0
 40
0.0
  0
LTYPE
  5
24
330
21
100
AcDbSymbolTableRecord
100
AcDbLinetypeTableRecord
  2
BYLAYER
 70
     0
  3

 72
    65
 73
     0
 40
0.0
  0
LTYPE
  5
25
330
21
100
AcDbSymbolTableRecord
100
AcDbLinetypeTableRecord
  2
CONTINUOUS
 70
     0
  3
Solid line
 72
    65
 73
     0
 40
0.0
  0
ENDTAB
  0
TABLE
  2
LAYER
  5
C0C
330
0
100
AcDbSymbolTable
 70
11
  0
LAYER
  5
C0D
330
C0C
100
AcDbSymbolTableRecord
100
AcDbLayerTableRecord
  2
0
 70
   0
 62
   7
  6
CONTINUOUS
  0
LAYER
  5
C0E
330
C0C
100
AcDbSymbolTableRecord
100
AcDbLayerTableRecord
  2
ProjItem
 70
    0
 62
    7
  6
CONTINUOUS
  0
LAYER
  5
C0F
330
C0C
100
AcDbSymbolTableRecord
100
AcDbLayerTableRecord
  2
ProjItem002
 70
    0
 62
    7
  6
CONTINUOUS
  0
LAYER
  5
C10
330
C0C
100
AcDbSymbolTableRecord
100
AcDbLayerTableRecord
  2
ProjItem003
 70
    0
 62
    7
  6
CONTINUOUS
  0
LAYER
  5
C11
330
C0C
100
AcDbSymbolTableRecord
100
AcDbLayerTableRecord
  2
Dimension
 70
    0
 62
    7
  6
CONTINUOUS
  0
LAYER
  5
C12
330
C0C
100
AcDbSymbolTableRecord
100
AcDbLayerTableRecord
  2
Dimension001
 70
    0
 62
    7
  6
CONTINUOUS
  0
LAYER
  5
C13
330
C0C
100
AcDbSymbolTableRecord
100
AcDbLayerTableRecord
  2
Dimension002
 70
    0
 62
    7
  6
CONTINUOUS
  0
LAYER
  5
C14
330
C0C
100
AcDbSymbolTableRecord
100
AcDbLayerTableRecord
  2
Dimension003
 70
    0
 62
    7
  6
CONTINUOUS
  0
LAYER
  5
C15
330
C0C
100
AcDbSymbolTableRecord
100
AcDbLayerTableRecord
  2
Dimension004
 70
    0
 62
    7
  6
CONTINUOUS
  0
LAYER
  5
C16
330
C0C
100
AcDbSymbolTableRecord
100
AcDbLayerTableRecord
  2
Dimension005
 70
    0
 62
    7
  6
CONTINUOUS
  0
LAYER
  5
C17
330
C0C
100
AcDbSymbolTableRecord
100
AcDbLayerTableRecord
  2
Dimension006
 70
    0
 62
    7
  6
CONTINUOUS
  0
ENDTAB
  0
TABLE
  2
STYLE
  5
70
330
0
100
AcDbSymbolTable
 70
     2
  0
STYLE
  5
71
330
70
100
AcDbSymbolTableRecord
100
AcDbTextStyleTableRecord
  2
STANDARD
 70
     0
 40
0.0
 41
1.0
 50
0.0
 71
     0
 42
2.5
  3
arial.ttf
  4

  0
STYLE
  5
72
330
70
100
AcDbSymbolTableRecord
100
AcDbTextStyleTableRecord
  2
ANNOTATIVE
 70
     0
 40
0.0
 41
1.0
 50
0.0
 71
     0
 42
2.5
  3
arial.ttf
  4

  0
ENDTAB
  0
TABLE
  2
VIEW
  5
73
330
0
100
AcDbSymbolTable
 70
     0
  0
ENDTAB
  0
TABLE
  2
UCS
  5
74
330
0
100
AcDbSymbolTable
 70
     0
  0
ENDTAB
  0
TABLE
  2
APPID
  5
75
330
0
100
AcDbSymbolTable
 70
     2
  0
APPID
  5
76
330
75
100
AcDbSymbolTableRecord
100
AcDbRegAppTableRecord
  2
ACAD
 70
     0
  0
APPID
  5
77
330
75
100
AcDbSymbolTableRecord
100
AcDbRegAppTableRecord
  2
ACADANNOTATIVE
 70
     0
  0
ENDTAB
  0
TABLE
  2
DIMSTYLE
  5
78
330
0
100
AcDbSymbolTable
 70
     2
  0
DIMSTYLE
105
79
330
78
100
AcDbSymbolTableRecord
100
AcDbDimStyleTableRecord
  2
STANDARD
 70
     0
  3

  4

  5

  6

  7

 40
0.0
 41
2.5
 42
0.625
 43
3.75
 44
1.25
 45
0.0
 46
0.0
 47
0.0
 48
0.0
140
2.5
141
2.5
142
0.0
143
0.03937007874016
144
1.0
145
0.0
146
1.0
147
0.625
 71
     0
 72
     0
 73
     0
 74
     0
 75
     0
 76
     0
 77
     1
 78
     8
170
     0
171
     3
172
     1
173
     0
174
     0
175
     0
176
     0
177
     0
178
     0
270
     2
271
     2
272
     2
273
     2
274
     3
340
71
275
     0
280
     0
281
     0
282
     0
283
     0
284
     8
285
     0
286
     0
287
     3
288
     0
  0
ENDTAB
  0
TABLE
  2
BLOCK_RECORD
  5
A01
330
0
100
AcDbSymbolTable
  70
5
  0
BLOCK_RECORD
  5
A02
330
A01
100
AcDbSymbolTableRecord
100
AcDbBlockTableRecord
  2
*MODEL_SPACE
  0
BLOCK_RECORD
  5
A03
330
A01
100
AcDbSymbolTableRecord
100
AcDbBlockTableRecord
  2
*PAPER_SPACE
  0
BLOCK_RECORD
  5
BD0
330
A01
100
AcDbSymbolTableRecord
100
AcDbBlockTableRecord
  2
*Dimension
  0
BLOCK_RECORD
  5
BD8
330
A01
100
AcDbSymbolTableRecord
100
AcDbBlockTableRecord
  2
*Dimension001
  0
BLOCK_RECORD
  5
BE2
330
A01
100
AcDbSymbolTableRecord
100
AcDbBlockTableRecord
  2
*Dimension002
  0
BLOCK_RECORD
  5
BEA
330
A01
100
AcDbSymbolTableRecord
100
AcDbBlockTableRecord
  2
*Dimension003
  0
BLOCK_RECORD
  5
BF4
330
A01
100
AcDbSymbolTableRecord
100
AcDbBlockTableRecord
  2
*Dimension004
  0
BLOCK_RECORD
  5
BFE
330
A01
100
AcDbSymbolTableRecord
100
AcDbBlockTableRecord
  2
*Dimension005
  0
BLOCK_RECORD
  5
C06
330
A01
100
AcDbSymbolTableRecord
100
AcDbBlockTableRecord
  2
*Dimension006
  0
ENDTAB
  0
ENDSEC
  0
SECTION
  2
BLOCKS
  0
BLOCK
  5
A04
330
A02
100
AcDbEntity
  8
0
100
AcDbBlockBegin
  2
*MODEL_SPACE
 70
   0
 10
0
 20
0
 30
0
  3
*MODEL_SPACE
  1
 
  0
ENDBLK
  5
A05
330
A02
100
AcDbEntity
  8
0
100
AcDbBlockEnd
  0
BLOCK
  5
A06
330
A03
100
AcDbEntity
 67
1
  8
0
100
AcDbBlockBegin
  2
*PAPER_SPACE
 70
   0
 10
0
 20
0
 30
0
  3
*PAPER_SPACE
  1
 
  0
ENDBLK
  5
A07
330
A03
100
AcDbEntity
 67
    1
  8
0
100
AcDbBlockEnd
  0
BLOCK
  5
BD1
330
BD0
100
AcDbEntity
  8
Dimension
100
AcDbBlockBegin
  2
*Dimension
 70
   1
 10
0
 20
0
 30
0
  3
*Dimension
  1
 
  0
LINE
  5
BD2
330
BD0
100
AcDbEntity
  8
Dimension
100
AcDbLine
 10
194.378
 20
89.9258
 30
0
 11
156.925
 21
90.1435
 31
0
  0
TEXT
  5
BD3
330
BD0
100
AcDbEntity
  8
Dimension
100
AcDbText
 10
174.986
 20
95.4944
 30
0
 40
3.5
  1
⌀ mm
  7
STANDARD
 72
1
 11
174.986
 21
95.4944
 31
0
100
AcDbText
  0
SOLID
  5
BD4
330
BD0
100
AcDbEntity
  8
0
 62
     0
100
AcDbTrace
 10
189.376
 20
89.5382
 30
0
 11
189.381
 21
90.3715
 31
0
 12
194.378
 22
89.9258
 32
0
 13
194.378
 23
89.9258
 33
0
  0
SOLID
  5
BD5
330
BD0
100
AcDbEntity
  8
0
 62
     0
100
AcDbTrace
 10
161.922
 20
89.6978
 30
0
 11
161.927
 21
90.5311
 31
0
 12
156.925
 22
90.1435
 32
0
 13
156.925
 23
90.1435
 33
0
  0
ENDBLK
  5
BD6
330
BD0
100
AcDbEntity
  8
Dimension
100
AcDbBlockEnd
  0
BLOCK
  5
BD9
330
BD8
100
AcDbEntity
  8
Dimension001
100
AcDbBlockBegin
  2
*Dimension001
 70
   1
 10
0
 20
0
 30
0
  3
*Dimension001
  1
 
  0
LINE
  5
BDA
330
BD8
100
AcDbEntity
  8
Dimension001
100
AcDbLine
 10
96.0937
 20
161.839
 30
0
 11
96.0937
 21
149.39
 31
0
  0
LINE
  5
BDB
330
BD8
100
AcDbEntity
  8
Dimension001
100
AcDbLine
 10
21.5937
 20
161.839
 30
0
 11
21.5937
 21
149.39
 31
0
  0
LINE
  5
BDC
330
BD8
100
AcDbEntity
  8
Dimension001
100
AcDbLine
 10
21.5937
 20
149.39
 30
0
 11
96.0937
 21
149.39
 31
0
  0
TEXT
  5
BDD
330
BD8
100
AcDbEntity
  8
Dimension001
100
AcDbText
 10
62.8953
 20
154.39
 30
0
 40
3.5
  1
 mm
  7
STANDARD
 72
1
 11
62.8953
 21
149.39
 31
0
100
AcDbText
  0
SOLID
  5
BDE
330
BD8
100
AcDbEntity
  8
0
 62
     0
100
AcDbTrace
 10
16.5937
 20
148.973
 30
0
 11
16.5937
 21
149.806
 31
0
 12
21.5937
 22
149.39
 32
0
 13
21.5937
 23
149.39
 33
0
  0
SOLID
  5
BDF
330
BD8
100
AcDbEntity
  8
0
 62
     0
100
AcDbTrace
 10
101.094
 20
148.973
 30
0
 11
101.094
 21
149.806
 31
0
 12
96.0937
 22
149.39
 32
0
 13
96.0937
 23
149.39
 33
0
  0
ENDBLK
  5
BE0
330
BD8
100
AcDbEntity
  8
Dimension001
100
AcDbBlockEnd
  0
BLOCK
  5
BE3
330
BE2
100
AcDbEntity
  8
Dimension002
100
AcDbBlockBegin
  2
*Dimension002
 70
   1
 10
0
 20
0
 30
0
  3
*Dimension002
  1
 
  0
LINE
  5
BE4
330
BE2
100
AcDbEntity
  8
Dimension002
100
AcDbLine
 10
192.378
 20
89.9258
 30
0
 11
121.878
 21
89.9258
 31
0
  0
TEXT
  5
BE5
330
BE2
100
AcDbEntity
  8
Dimension002
100
AcDbText
 10
168.094
 20
108.368
 30
0
 40
3.5
  1
⌀ mm
  7
STANDARD
 72
1
 11
168.094
 21
108.368
 31
0
100
AcDbText
  0
SOLID
  5
BE6
330
BE2
100
AcDbEntity
  8
0
 62
     0
100
AcDbTrace
 10
187.378
 20
89.5091
 30
0
 11
187.378
 21
90.3424
 31
0
 12
192.378
 22
89.9258
 32
0
 13
192.378
 23
89.9258
 33
0
  0
SOLID
  5
BE7
330
BE2
100
AcDbEntity
  8
0
 62
     0
100
AcDbTrace
 10
126.878
 20
89.5091
 30
0
 11
126.878
 21
90.3424
 31
0
 12
121.878
 22
89.9258
 32
0
 13
121.878
 23
89.9258
 33
0
  0
ENDBLK
  5
BE8
330
BE2
100
AcDbEntity
  8
Dimension002
100
AcDbBlockEnd
  0
BLOCK
  5
BEB
330
BEA
100
AcDbEntity
  8
Dimension003
100
AcDbBlockBegin
  2
*Dimension003
 70
   1
 10
0
 20
0
 30
0
  3
*Dimension003
  1
 
  0
LINE
  5
BEC
330
BEA
100
AcDbEntity
  8
Dimension003
100
AcDbLine
 10
103.844
 20
169.839
 30
0
 11
103.844
 21
132.385
 31
0
  0
LINE
  5
BED
330
BEA
100
AcDbEntity
  8
Dimension003
100
AcDbLine
 10
13.8437
 20
169.839
 30
0
 11
13.8437
 21
132.385
 31
0
  0
LINE
  5
BEE
330
BEA
100
AcDbEntity
  8
Dimension003
100
AcDbLine
 10
13.8437
 20
132.385
 30
0
 11
103.844
 21
132.385
 31
0
  0
TEXT
  5
BEF
330
BEA
100
AcDbEntity
  8
Dimension003
100
AcDbText
 10
77.6944
 20
137.385
 30
0
 40
3.5
  1
 mm
  7
STANDARD
 72
1
 11
77.6944
 21
132.385
 31
0
100
AcDbText
  0
SOLID
  5
BF0
330
BEA
100
AcDbEntity
  8
0
 62
     0
100
AcDbTrace
 10
8.84371
 20
131.968
 30
0
 11
8.84371
 21
132.801
 31
0
 12
13.8437
 22
132.385
 32
0
 13
13.8437
 23
132.385
 33
0
  0
SOLID
  5
BF1
330
BEA
100
AcDbEntity
  8
0
 62
     0
100
AcDbTrace
 10
108.844
 20
131.968
 30
0
 11
108.844
 21
132.801
 31
0
 12
103.844
 22
132.385
 32
0
 13
103.844
 23
132.385
 33
0
  0
ENDBLK
  5
BF2
330
BEA
100
AcDbEntity
  8
Dimension003
100
AcDbBlockEnd
  0
BLOCK
  5
BF5
330
BF4
100
AcDbEntity
  8
Dimension004
100
AcDbBlockBegin
  2
*Dimension004
 70
   1
 10
0
 20
0
 30
0
  3
*Dimension004
  1
 
  0
LINE
  5
BF6
330
BF4
100
AcDbEntity
  8
Dimension004
100
AcDbLine
 10
161.567
 20
193.997
 30
0
 11
175.912
 21
185.715
 31
0
  0
LINE
  5
BF7
330
BF4
100
AcDbEntity
  8
Dimension004
100
AcDbLine
 10
173.067
 20
213.916
 30
0
 11
187.412
 21
205.634
 31
0
  0
LINE
  5
BF8
330
BF4
100
AcDbEntity
  8
Dimension004
100
AcDbLine
 10
187.412
 20
205.634
 30
0
 11
175.912
 21
185.715
 31
0
  0
TEXT
  5
BF9
330
BF4
100
AcDbEntity
  8
Dimension004
100
AcDbText
 10
179.792
 20
197.436
 30
0
 40
3.5
  1
 mm
  7
STANDARD
 72
1
 11
184.122
 21
199.936
 31
0
100
AcDbText
  0
SOLID
  5
BFA
330
BF4
100
AcDbEntity
  8
0
 62
     0
100
AcDbTrace
 10
184.551
 20
201.512
 30
0
 11
185.273
 21
201.095
 31
0
 12
187.412
 22
205.634
 32
0
 13
187.412
 23
205.634
 33
0
  0
SOLID
  5
BFB
330
BF4
100
AcDbEntity
  8
0
 62
     0
100
AcDbTrace
 10
178.051
 20
190.254
 30
0
 11
178.773
 21
189.837
 31
0
 12
175.912
 22
185.715
 32
0
 13
175.912
 23
185.715
 33
0
  0
ENDBLK
  5
BFC
330
BF4
100
AcDbEntity
  8
Dimension004
100
AcDbBlockEnd
  0
BLOCK
  5
BFF
330
BFE
100
AcDbEntity
  8
Dimension005
100
AcDbBlockBegin
  2
*Dimension005
 70
   1
 10
0
 20
0
 30
0
  3
*Dimension005
  1
 
  0
LINE
  5
C00
330
BFE
100
AcDbEntity
  8
Dimension005
100
AcDbLine
 10
144.714
 20
219.893
 30
0
 11
134.714
 21
219.893
 31
0
  0
TEXT
  5
C01
330
BFE
100
AcDbEntity
  8
Dimension005
100
AcDbText
 10
183.878
 20
246.594
 30
0
 40
3.5
  1
⌀ mm
  7
STANDARD
 72
1
 11
183.878
 21
246.594
 31
0
100
AcDbText
  0
SOLID
  5
C02
330
BFE
100
AcDbEntity
  8
0
 62
     0
100
AcDbTrace
 10
139.714
 20
219.477
 30
0
 11
139.714
 21
220.31
 31
0
 12
144.714
 22
219.893
 32
0
 13
144.714
 23
219.893
 33
0
  0
SOLID
  5
C03
330
BFE
100
AcDbEntity
  8
0
 62
     0
100
AcDbTrace
 10
139.714
 20
219.477
 30
0
 11
139.714
 21
220.31
 31
0
 12
134.714
 22
219.893
 32
0
 13
134.714
 23
219.893
 33
0
  0
ENDBLK
  5
C04
330
BFE
100
AcDbEntity
  8
Dimension005
100
AcDbBlockEnd
  0
BLOCK
  5
C07
330
C06
100
AcDbEntity
  8
Dimension006
100
AcDbBlockBegin
  2
*Dimension006
 70
   1
 10
0
 20
0
 30
0
  3
*Dimension006
  1
 
  0
LINE
  5
C08
330
C06
100
AcDbEntity
  8
Dimension006
100
AcDbLine
 10
157.128
 20
89.9258
 30
0
 11
153.991
 21
134.816
 31
0
  0
TEXT
  5
C09
330
C06
100
AcDbEntity
  8
Dimension006
100
AcDbText
 10
156.428
 20
109.722
 30
0
 40
3.5
  1
R mm
  7
STANDARD
 72
1
 11
156.428
 21
109.722
 31
0
100
AcDbText
  0
SOLID
  5
C0A
330
C06
100
AcDbEntity
  8
0
 62
     0
100
AcDbTrace
 10
153.924
 20
129.799
 30
0
 11
154.755
 21
129.857
 31
0
 12
153.991
 22
134.816
 32
0
 13
153.991
 23
134.816
 33
0
  0
ENDBLK
  5
C0B
330
C06
100
AcDbEntity
  8
Dimension006
100
AcDbBlockEnd
  0
ENDSEC
  0
SECTION
  2
ENTITIES
  0
SPLINE
  5
A08
330
A02
100
AcDbEntity
  8
ProjItem
100
AcDbSpline
210
0
220
0
230
1
 70
8
 71
1
 72
4
 73
2
 74
0
 40
0
 40
0
 40
0.0068302
 40
0.0068302
 10
194.888
 20
204.807
 30
0
 10
194.926
 20
204.747
 30
0
  0
ARC
  5
A09
330
A02
100
AcDbEntity
  8
ProjItem
100
AcDbCircle
 10
131.408
 20
164.865
 30
0
 40
75
100
AcDbArc
 50
55.4733
 51
90.2012
  0
ARC
  5
A0A
330
A02
100
AcDbEntity
  8
ProjItem
100
AcDbCircle
 10
131.163
 20
234.865
 30
0
 40
5
100
AcDbArc
 50
90.2012
 51
115.808
  0
LINE
  5
A0B
330
A02
100
AcDbEntity
  8
ProjItem
100
AcDbLine
 10
119.127
 20
224.019
 30
0
 11
126.832
 21
237.365
 31
0
  0
SPLINE
  5
A0C
330
A02
100
AcDbEntity
  8
ProjItem
100
AcDbSpline
210
0
220
0
230
1
 70
8
 71
3
 72
11
 73
7
 74
0
 40
-0.273497
 40
-0.273497
 40
-0.273497
 40
-0.273497
 40
-0.117213
 40
-0.117213
 40
-0.117213
 40
0
 40
0
 40
0
 40
0
 10
120.041
 20
217.742
 30
0
 10
119.079
 20
218.617
 30
0
 10
118.487
 20
219.875
 30
0
 10
118.412
 20
221.155
 30
0
 10
118.356
 20
222.116
 30
0
 10
118.59
 20
223.089
 30
0
 10
119.07
 20
223.92
 30
0
  0
SPLINE
  5
A0D
330
A02
100
AcDbEntity
  8
ProjItem
100
AcDbSpline
210
0
220
0
230
1
 70
8
 71
2
 72
6
 73
3
 74
0
 40
1.57513
 40
1.57513
 40
1.57513
 40
1.75177
 40
1.75177
 40
1.75177
 10
120.008
 20
217.706
 30
0
 10
120.009
 20
217.707
 30
0
 10
120.041
 20
217.742
 30
0
  0
SPLINE
  5
A0E
330
A02
100
AcDbEntity
  8
ProjItem
100
AcDbSpline
210
0
220
0
230
1
 70
8
 71
3
 72
8
 73
4
 74
0
 40
0.04291
 40
0.04291
 40
0.04291
 40
0.04291
 40
0.130045
 40
0.130045
 40
0.130045
 40
0.130045
 10
124.096
 20
216.598
 30
0
 10
123.993
 20
216.329
 30
0
 10
124.015
 20
216.015
 30
0
 10
124.157
 20
215.762
 30
0
  0
SPLINE
  5
A0F
330
A02
100
AcDbEntity
  8
ProjItem
100
AcDbSpline
210
0
220
0
230
1
 70
8
 71
1
 72
4
 73
2
 74
0
 40
7.45986e-05
 40
7.45986e-05
 40
0.0394831
 40
0.0394831
 10
124.364
 20
217.086
 30
0
 10
124.167
 20
216.745
 30
0
  0
SPLINE
  5
A10
330
A02
100
AcDbEntity
  8
ProjItem
100
AcDbSpline
210
0
220
0
230
1
 70
8
 71
3
 72
11
 73
7
 74
0
 40
0
 40
0
 40
0
 40
0
 40
0.374442
 40
0.374442
 40
0.374442
 40
0.873699
 40
0.873699
 40
0.873699
 40
0.873699
 10
123.587
 20
212.303
 30
0
 10
123.466
 20
213.153
 30
0
 10
123.091
 20
214.021
 30
0
 10
122.592
 20
214.834
 30
0
 10
121.925
 20
215.918
 30
0
 10
121.036
 20
216.906
 30
0
 10
120.041
 20
217.742
 30
0
  0
SPLINE
  5
A11
330
A02
100
AcDbEntity
  8
ProjItem
100
AcDbSpline
210
0
220
0
230
1
 70
8
 71
2
 72
22
 73
19
 74
0
 40
1.57324
 40
1.57324
 40
1.57324
 40
1.62519
 40
1.62519
 40
1.67714
 40
1.67714
 40
1.72909
 40
1.72909
 40
1.83299
 40
1.83299
 40
1.93688
 40
1.93688
 40
1.98883
 40
1.98883
 40
2.09273
 40
2.09273
 40
2.19663
 40
2.19663
 40
2.30052
 40
2.30052
 40
2.30052
 10
122.823
 20
212.303
 30
0
 10
122.826
 20
212.303
 30
0
 10
122.828
 20
212.303
 30
0
 10
122.834
 20
212.303
 30
0
 10
122.84
 20
212.303
 30
0
 10
122.851
 20
212.303
 30
0
 10
122.861
 20
212.303
 30
0
 10
122.887
 20
212.303
 30
0
 10
122.926
 20
212.303
 30
0
 10
122.968
 20
212.303
 30
0
 10
123.022
 20
212.303
 30
0
 10
123.052
 20
212.303
 30
0
 10
123.082
 20
212.303
 30
0
 10
123.147
 20
212.303
 30
0
 10
123.223
 20
212.303
 30
0
 10
123.302
 20
212.303
 30
0
 10
123.392
 20
212.303
 30
0
 10
123.485
 20
212.303
 30
0
 10
123.587
 20
212.303
 30
0
  0
SPLINE
  5
A12
330
A02
100
AcDbEntity
  8
ProjItem
100
AcDbSpline
210
0
220
0
230
1
 70
8
 71
2
 72
22
 73
19
 74
0
 40
1.5708
 40
1.5708
 40
1.5708
 40
1.62292
 40
1.62292
 40
1.67504
 40
1.67504
 40
1.72717
 40
1.72717
 40
1.83141
 40
1.83141
 40
1.93566
 40
1.93566
 40
1.98778
 40
1.98778
 40
2.09203
 40
2.09203
 40
2.19628
 40
2.19628
 40
2.30052
 40
2.30052
 40
2.30052
 10
122.823
 20
192.122
 30
0
 10
122.825
 20
192.122
 30
0
 10
122.827
 20
192.122
 30
0
 10
122.834
 20
192.122
 30
0
 10
122.84
 20
192.122
 30
0
 10
122.85
 20
192.122
 30
0
 10
122.86
 20
192.122
 30
0
 10
122.886
 20
192.122
 30
0
 10
122.925
 20
192.122
 30
0
 10
122.967
 20
192.122
 30
0
 10
123.021
 20
192.122
 30
0
 10
123.051
 20
192.122
 30
0
 10
123.08
 20
192.122
 30
0
 10
123.145
 20
192.122
 30
0
 10
123.222
 20
192.122
 30
0
 10
123.301
 20
192.122
 30
0
 10
123.391
 20
192.122
 30
0
 10
123.484
 20
192.122
 30
0
 10
123.587
 20
192.122
 30
0
  0
SPLINE
  5
A13
330
A02
100
AcDbEntity
  8
ProjItem
100
AcDbSpline
210
0
220
0
230
1
 70
8
 71
3
 72
17
 73
13
 74
0
 40
-3.0948
 40
-3.0948
 40
-3.0948
 40
-3.0948
 40
-2.21057
 40
-2.21057
 40
-2.21057
 40
-1.32634
 40
-1.32634
 40
-1.32634
 40
-0.442114
 40
-0.442114
 40
-0.442114
 40
0
 40
0
 40
0
 40
0
 10
113.422
 20
172.499
 30
0
 10
114.174
 20
172.616
 30
0
 10
115.252
 20
173.48
 30
0
 10
116.45
 20
174.831
 30
0
 10
117.647
 20
176.182
 30
0
 10
118.964
 20
178.021
 30
0
 10
120.174
 20
180.213
 30
0
 10
121.385
 20
182.406
 30
0
 10
122.489
 20
184.952
 30
0
 10
123.1
 20
187.767
 30
0
 10
123.405
 20
189.174
 30
0
 10
123.587
 20
190.648
 30
0
 10
123.587
 20
192.122
 30
0
  0
ELLIPSE
  5
A14
330
A02
100
AcDbEntity
  8
ProjItem
100
AcDbEllipse
 10
116.336
 20
172.499
 30
0
 11
0.493197
 21
-2.95918
 31
0
 40
0.970478
 41
3.25774
 42
4.55203
  0
SPLINE
  5
A15
330
A02
100
AcDbEntity
  8
ProjItem
100
AcDbSpline
210
0
220
0
230
1
 70
8
 71
1
 72
17
 73
15
 74
0
 40
6.07412
 40
6.07412
 40
6.08905
 40
6.10398
 40
6.11892
 40
6.13385
 40
6.14878
 40
6.16372
 40
6.17865
 40
6.19358
 40
6.20852
 40
6.22345
 40
6.23838
 40
6.25332
 40
6.26825
 40
6.28319
 40
6.28319
 10
115.55
 20
175.409
 30
0
 10
115.424
 20
175.388
 30
0
 10
115.308
 20
175.369
 30
0
 10
115.201
 20
175.351
 30
0
 10
115.103
 20
175.335
 30
0
 10
115.014
 20
175.32
 30
0
 10
114.934
 20
175.307
 30
0
 10
114.864
 20
175.295
 30
0
 10
114.804
 20
175.285
 30
0
 10
114.752
 20
175.276
 30
0
 10
114.71
 20
175.269
 30
0
 10
114.677
 20
175.264
 30
0
 10
114.654
 20
175.26
 30
0
 10
114.64
 20
175.258
 30
0
 10
114.635
 20
175.257
 30
0
  0
SPLINE
  5
A16
330
A02
100
AcDbEntity
  8
ProjItem
100
AcDbSpline
210
0
220
0
230
1
 70
8
 71
1
 72
17
 73
15
 74
0
 40
6.28319
 40
6.28319
 40
6.30036
 40
6.31753
 40
6.3347
 40
6.35187
 40
6.36904
 40
6.38622
 40
6.40339
 40
6.42056
 40
6.43773
 40
6.4549
 40
6.47207
 40
6.48925
 40
6.50642
 40
6.52359
 40
6.52359
 10
112.128
 20
172.298
 30
0
 10
112.135
 20
172.299
 30
0
 10
112.155
 20
172.302
 30
0
 10
112.188
 20
172.307
 30
0
 10
112.234
 20
172.314
 30
0
 10
112.294
 20
172.323
 30
0
 10
112.367
 20
172.335
 30
0
 10
112.453
 20
172.348
 30
0
 10
112.552
 20
172.364
 30
0
 10
112.665
 20
172.381
 30
0
 10
112.79
 20
172.401
 30
0
 10
112.929
 20
172.422
 30
0
 10
113.08
 20
172.446
 30
0
 10
113.245
 20
172.471
 30
0
 10
113.422
 20
172.499
 30
0
  0
SPLINE
  5
A17
330
A02
100
AcDbEntity
  8
ProjItem
100
AcDbSpline
210
0
220
0
230
1
 70
8
 71
3
 72
8
 73
4
 74
0
 40
9.71547e-16
 40
9.71547e-16
 40
9.71547e-16
 40
9.71547e-16
 40
0.710028
 40
0.710028
 40
0.710028
 40
0.710028
 10
115.843
 20
175.458
 30
0
 10
116.406
 20
175.552
 30
0
 10
117.176
 20
176.054
 30
0
 10
118.053
 20
176.849
 30
0
  0
ARC
  5
A18
330
A02
100
AcDbEntity
  8
ProjItem
100
AcDbCircle
 10
139.714
 20
219.893
 30
0
 40
20.0018
100
AcDbArc
 50
143.971
 51
156.029
  0
ARC
  5
A19
330
A02
100
AcDbEntity
  8
ProjItem
100
AcDbCircle
 10
139.714
 20
219.893
 30
0
 40
20.0018
100
AcDbArc
 50
-174.279
 51
-163.806
  0
SPLINE
  5
A1A
330
A02
100
AcDbEntity
  8
ProjItem
100
AcDbSpline
210
0
220
0
230
1
 70
8
 71
1
 72
17
 73
15
 74
0
 40
0
 40
0
 40
0.0815888
 40
0.163178
 40
0.244767
 40
0.326355
 40
0.407944
 40
0.489533
 40
0.571122
 40
0.652711
 40
0.7343
 40
0.815888
 40
0.897477
 40
0.979066
 40
1.06065
 40
1.14224
 40
1.14224
 10
120.505
 20
214.315
 30
0
 10
120.515
 20
214.318
 30
0
 10
120.544
 20
214.326
 30
0
 10
120.591
 20
214.34
 30
0
 10
120.657
 20
214.359
 30
0
 10
120.742
 20
214.384
 30
0
 10
120.844
 20
214.414
 30
0
 10
120.963
 20
214.448
 30
0
 10
121.098
 20
214.487
 30
0
 10
121.248
 20
214.531
 30
0
 10
121.412
 20
214.579
 30
0
 10
121.59
 20
214.63
 30
0
 10
121.779
 20
214.685
 30
0
 10
121.98
 20
214.743
 30
0
 10
122.189
 20
214.804
 30
0
  0
SPLINE
  5
A1B
330
A02
100
AcDbEntity
  8
ProjItem
100
AcDbSpline
210
0
220
0
230
1
 70
8
 71
1
 72
4
 73
2
 74
0
 40
2.86754
 40
2.86754
 40
2.87437
 40
2.87437
 10
194.926
 20
204.747
 30
0
 10
194.888
 20
204.807
 30
0
  0
ELLIPSE
  5
A1C
330
A02
100
AcDbEntity
  8
ProjItem
100
AcDbEllipse
 10
199.128
 20
187.025
 30
0
 11
3
 21
-1.60578e-10
 31
0
 40
0.959509
 41
-6.28319
 42
-5.62893
  0
SPLINE
  5
A1D
330
A02
100
AcDbEntity
  8
ProjItem
100
AcDbSpline
210
0
220
0
230
1
 70
8
 71
2
 72
6
 73
3
 74
0
 40
-0.512873
 40
-0.512873
 40
-0.512873
 40
-2.26188e-12
 40
-2.26188e-12
 40
-2.26188e-12
 10
202.128
 20
186.298
 30
0
 10
202.128
 20
186.3
 30
0
 10
202.128
 20
187.025
 30
0
  0
SPLINE
  5
A1E
330
A02
100
AcDbEntity
  8
ProjItem
100
AcDbSpline
210
0
220
0
230
1
 70
8
 71
3
 72
17
 73
13
 74
0
 40
-2.0649
 40
-2.0649
 40
-2.0649
 40
-2.0649
 40
-1.76992
 40
-1.76992
 40
-1.76992
 40
-1.17995
 40
-1.17995
 40
-1.17995
 40
-0.589973
 40
-0.589973
 40
-0.589973
 40
-1.46811e-12
 40
-1.46811e-12
 40
-1.46811e-12
 40
-1.46811e-12
 10
195.38
 20
200.653
 30
0
 10
195.58
 20
199.696
 30
0
 10
195.884
 20
198.768
 30
0
 10
196.244
 20
197.885
 30
0
 10
196.965
 20
196.119
 30
0
 10
197.906
 20
194.531
 30
0
 10
198.797
 20
193.117
 30
0
 10
199.688
 20
191.703
 30
0
 10
200.528
 20
190.462
 30
0
 10
201.138
 20
189.432
 30
0
 10
201.748
 20
188.401
 30
0
 10
202.128
 20
187.579
 30
0
 10
202.128
 20
187.025
 30
0
  0
ELLIPSE
  5
A1F
330
A02
100
AcDbEntity
  8
ProjItem
100
AcDbEllipse
 10
193.392
 20
200.653
 30
0
 11
-2.95368
 21
-0.525117
 31
0
 40
0.153015
 41
-4.00173
 42
-3.14088
  0
SPLINE
  5
A20
330
A02
100
AcDbEntity
  8
ProjItem
100
AcDbSpline
210
0
220
0
230
1
 70
8
 71
3
 72
14
 73
10
 74
0
 40
-0.271941
 40
-0.271941
 40
-0.271941
 40
-0.271941
 40
-0.155395
 40
-0.155395
 40
-0.155395
 40
-0.0776973
 40
-0.0776973
 40
-0.0776973
 40
0
 40
0
 40
0
 40
0
 10
194.926
 20
204.747
 30
0
 10
195.218
 20
204.277
 30
0
 10
195.416
 20
203.754
 30
0
 10
195.52
 20
203.178
 30
0
 10
195.591
 20
202.796
 30
0
 10
195.618
 20
202.395
 30
0
 10
195.601
 20
201.975
 30
0
 10
195.583
 20
201.555
 30
0
 10
195.518
 20
201.116
 30
0
 10
195.38
 20
200.653
 30
0
  0
ARC
  5
A21
330
A02
100
AcDbEntity
  8
ProjItem
100
AcDbCircle
 10
131.163
 20
234.865
 30
0
 40
5
100
AcDbArc
 50
115.808
 51
150
  0
SPLINE
  5
A22
330
A02
100
AcDbEntity
  8
ProjItem
100
AcDbSpline
210
0
220
0
230
1
 70
8
 71
2
 72
6
 73
3
 74
0
 40
-1.673e-10
 40
-1.673e-10
 40
-1.673e-10
 40
0.0267821
 40
0.0267821
 40
0.0267821
 10
131.145
 20
239.865
 30
0
 10
130.626
 20
239.863
 30
0
 10
130.116
 20
239.755
 30
0
  0
SPLINE
  5
A23
330
A02
100
AcDbEntity
  8
ProjItem
100
AcDbSpline
210
0
220
0
230
1
 70
8
 71
2
 72
6
 73
3
 74
0
 40
0.0267821
 40
0.0267821
 40
0.0267821
 40
0.0572967
 40
0.0572967
 40
0.0572967
 10
130.116
 20
239.755
 30
0
 10
129.535
 20
239.631
 30
0
 10
128.986
 20
239.366
 30
0
  0
LINE
  5
A24
330
A02
100
AcDbEntity
  8
ProjItem
100
AcDbLine
 10
119.217
 20
224.174
 30
0
 11
126.832
 21
237.365
 31
0
  0
SPLINE
  5
A25
330
A02
100
AcDbEntity
  8
ProjItem
100
AcDbSpline
210
0
220
0
230
1
 70
8
 71
1
 72
4
 73
2
 74
0
 40
-0.0395235
 40
-0.0395235
 40
-2.90046e-15
 40
-2.90046e-15
 10
119.217
 20
224.174
 30
0
 10
119.203
 20
224.15
 30
0
  0
SPLINE
  5
A26
330
A02
100
AcDbEntity
  8
ProjItem
100
AcDbSpline
210
0
220
0
230
1
 70
8
 71
2
 72
6
 73
3
 74
0
 40
0
 40
0
 40
0
 40
0.138439
 40
0.138439
 40
0.138439
 10
119.203
 20
224.15
 30
0
 10
119.175
 20
224.102
 30
0
 10
119.127
 20
224.019
 30
0
  0
SPLINE
  5
A27
330
A02
100
AcDbEntity
  8
ProjItem
100
AcDbSpline
210
0
220
0
230
1
 70
8
 71
2
 72
6
 73
3
 74
0
 40
0.138439
 40
0.138439
 40
0.138439
 40
0.212308
 40
0.212308
 40
0.212308
 10
119.127
 20
224.019
 30
0
 10
119.102
 20
223.975
 30
0
 10
119.07
 20
223.92
 30
0
  0
SPLINE
  5
A28
330
A02
100
AcDbEntity
  8
ProjItem
100
AcDbSpline
210
0
220
0
230
1
 70
8
 71
2
 72
6
 73
3
 74
0
 40
-0.248883
 40
-0.248883
 40
-0.248883
 40
0
 40
0
 40
0
 10
120.041
 20
217.742
 30
0
 10
120.375
 20
217.682
 30
0
 10
120.674
 20
217.567
 30
0
  0
SPLINE
  5
A29
330
A02
100
AcDbEntity
  8
ProjItem
100
AcDbSpline
210
0
220
0
230
1
 70
8
 71
2
 72
6
 73
3
 74
0
 40
0.729728
 40
0.729728
 40
0.729728
 40
0.744736
 40
0.744736
 40
0.744736
 10
123.587
 20
212.303
 30
0
 10
123.812
 20
212.159
 30
0
 10
124.041
 20
212.012
 30
0
  0
SPLINE
  5
A2A
330
A02
100
AcDbEntity
  8
ProjItem
100
AcDbSpline
210
0
220
0
230
1
 70
8
 71
3
 72
14
 73
10
 74
0
 40
0
 40
0
 40
0
 40
0
 40
0.176467
 40
0.176467
 40
0.176467
 40
0.413617
 40
0.413617
 40
0.413617
 40
0.632599
 40
0.632599
 40
0.632599
 40
0.632599
 10
124.041
 20
212.012
 30
0
 10
124.041
 20
212.6
 30
0
 10
123.921
 20
213.187
 30
0
 10
123.722
 20
213.742
 30
0
 10
123.454
 20
214.488
 30
0
 10
123.027
 20
215.225
 30
0
 10
122.47
 20
215.906
 30
0
 10
121.955
 20
216.536
 30
0
 10
121.345
 20
217.097
 30
0
 10
120.674
 20
217.567
 30
0
  0
SPLINE
  5
A2B
330
A02
100
AcDbEntity
  8
ProjItem
100
AcDbSpline
210
0
220
0
230
1
 70
8
 71
3
 72
8
 73
4
 74
0
 40
0.558825
 40
0.558825
 40
0.558825
 40
0.558825
 40
0.796184
 40
0.796184
 40
0.796184
 40
0.796184
 10
137.513
 20
215.404
 30
0
 10
138.206
 20
215.062
 30
0
 10
138.984
 20
214.893
 30
0
 10
139.714
 20
214.893
 30
0
  0
SPLINE
  5
A2C
330
A02
100
AcDbEntity
  8
ProjItem
100
AcDbSpline
210
0
220
0
230
1
 70
8
 71
3
 72
32
 73
28
 74
0
 40
0.796201
 40
0.796201
 40
0.796201
 40
0.796201
 40
0.997656
 40
0.997656
 40
0.997656
 40
1.19913
 40
1.19913
 40
1.19913
 40
1.3865
 40
1.3865
 40
1.3865
 40
1.57388
 40
1.57388
 40
1.57388
 40
1.76126
 40
1.76126
 40
1.76126
 40
1.94863
 40
1.94863
 40
1.94863
 40
2.1501
 40
2.1501
 40
2.1501
 40
2.35158
 40
2.35158
 40
2.35158
 40
2.58893
 40
2.58893
 40
2.58893
 40
2.58893
 10
139.714
 20
214.893
 30
0
 10
140.333
 20
214.893
 30
0
 10
141.003
 20
215.016
 30
0
 10
141.628
 20
215.274
 30
0
 10
142.252
 20
215.533
 30
0
 10
142.83
 20
215.929
 30
0
 10
143.288
 20
216.397
 30
0
 10
143.714
 20
216.833
 30
0
 10
144.089
 20
217.386
 30
0
 10
144.339
 20
217.995
 30
0
 10
144.589
 20
218.604
 30
0
 10
144.714
 20
219.269
 30
0
 10
144.714
 20
219.893
 30
0
 10
144.714
 20
220.518
 30
0
 10
144.589
 20
221.183
 30
0
 10
144.339
 20
221.792
 30
0
 10
144.089
 20
222.401
 30
0
 10
143.714
 20
222.954
 30
0
 10
143.288
 20
223.389
 30
0
 10
142.83
 20
223.858
 30
0
 10
142.252
 20
224.254
 30
0
 10
141.628
 20
224.512
 30
0
 10
141.003
 20
224.771
 30
0
 10
140.333
 20
224.893
 30
0
 10
139.714
 20
224.893
 30
0
 10
138.984
 20
224.894
 30
0
 10
138.206
 20
224.725
 30
0
 10
137.513
 20
224.383
 30
0
  0
SPLINE
  5
A2D
330
A02
100
AcDbEntity
  8
ProjItem
100
AcDbSpline
210
0
220
0
230
1
 70
8
 71
1
 72
17
 73
15
 74
0
 40
1.93285
 40
1.93285
 40
2.07091
 40
2.20897
 40
2.34704
 40
2.4851
 40
2.62316
 40
2.76122
 40
2.89928
 40
3.03734
 40
3.1754
 40
3.31346
 40
3.45152
 40
3.58958
 40
3.72765
 40
3.86571
 40
3.86571
 10
112.128
 20
169.839
 30
0
 10
112.557
 20
169.839
 30
0
 10
113.833
 20
169.839
 30
0
 10
115.933
 20
169.839
 30
0
 10
118.818
 20
169.839
 30
0
 10
122.431
 20
169.839
 30
0
 10
126.705
 20
169.839
 30
0
 10
131.557
 20
169.839
 30
0
 10
136.897
 20
169.839
 30
0
 10
142.621
 20
169.839
 30
0
 10
148.621
 20
169.839
 30
0
 10
154.784
 20
169.839
 30
0
 10
160.991
 20
169.839
 30
0
 10
167.124
 20
169.839
 30
0
 10
173.067
 20
169.839
 30
0
  0
SPLINE
  5
A2E
330
A02
100
AcDbEntity
  8
ProjItem
100
AcDbSpline
210
0
220
0
230
1
 70
8
 71
2
 72
6
 73
3
 74
0
 40
1.20874
 40
1.20874
 40
1.20874
 40
1.29924
 40
1.29924
 40
1.29924
 10
173.067
 20
197.446
 30
0
 10
171.162
 20
194.145
 30
0
 10
169.199
 20
190.746
 30
0
  0
SPLINE
  5
A2F
330
A02
100
AcDbEntity
  8
ProjItem
100
AcDbSpline
210
0
220
0
230
1
 70
8
 71
3
 72
17
 73
13
 74
0
 40
0.101545
 40
0.101545
 40
0.101545
 40
0.101545
 40
0.152944
 40
0.152944
 40
0.152944
 40
0.191996
 40
0.191996
 40
0.191996
 40
0.231048
 40
0.231048
 40
0.231048
 40
0.256052
 40
0.256052
 40
0.256052
 40
0.256052
 10
167.833
 20
190.38
 30
0
 10
167.986
 20
190.29
 30
0
 10
168.167
 20
190.245
 30
0
 10
168.333
 20
190.246
 30
0
 10
168.462
 20
190.246
 30
0
 10
168.59
 20
190.271
 30
0
 10
168.717
 20
190.323
 30
0
 10
168.844
 20
190.377
 30
0
 10
168.953
 20
190.45
 30
0
 10
169.045
 20
190.544
 30
0
 10
169.103
 20
190.602
 30
0
 10
169.154
 20
190.67
 30
0
 10
169.199
 20
190.746
 30
0
  0
SPLINE
  5
A30
330
A02
100
AcDbEntity
  8
ProjItem
100
AcDbSpline
210
0
220
0
230
1
 70
8
 71
1
 72
17
 73
15
 74
0
 40
1.33062
 40
1.33062
 40
1.40678
 40
1.48294
 40
1.5591
 40
1.63526
 40
1.71142
 40
1.78758
 40
1.86374
 40
1.9399
 40
2.01606
 40
2.09222
 40
2.16838
 40
2.24454
 40
2.3207
 40
2.39686
 40
2.39686
 10
167.833
 20
190.38
 30
0
 10
164.476
 20
192.318
 30
0
 10
161.077
 20
194.28
 30
0
 10
157.655
 20
196.256
 30
0
 10
154.23
 20
198.234
 30
0
 10
150.821
 20
200.201
 30
0
 10
147.449
 20
202.148
 30
0
 10
144.134
 20
204.062
 30
0
 10
140.893
 20
205.933
 30
0
 10
137.747
 20
207.75
 30
0
 10
134.713
 20
209.501
 30
0
 10
131.809
 20
211.178
 30
0
 10
129.052
 20
212.77
 30
0
 10
126.458
 20
214.268
 30
0
 10
124.041
 20
215.663
 30
0
  0
LINE
  5
A31
330
A02
100
AcDbEntity
  8
ProjItem
100
AcDbLine
 10
124.041
 20
215.663
 30
0
 11
124.041
 21
212.012
 31
0
  0
SPLINE
  5
A32
330
A02
100
AcDbEntity
  8
ProjItem
100
AcDbSpline
210
0
220
0
230
1
 70
8
 71
3
 72
14
 73
10
 74
0
 40
-0.0853811
 40
-0.0853811
 40
-0.0853811
 40
-0.0853811
 40
-0.0376732
 40
-0.0376732
 40
-0.0376732
 40
0
 40
0
 40
0
 40
0.0661264
 40
0.0661264
 40
0.0661264
 40
0.0661264
 10
161.838
 20
194.996
 30
0
 10
161.759
 20
194.859
 30
0
 10
161.644
 20
194.737
 30
0
 10
161.5
 20
194.647
 30
0
 10
161.384
 20
194.576
 30
0
 10
161.263
 20
194.53
 30
0
 10
161.136
 20
194.509
 30
0
 10
160.918
 20
194.471
 30
0
 10
160.666
 20
194.515
 30
0
 10
160.472
 20
194.63
 30
0
  0
LINE
  5
A33
330
A02
100
AcDbEntity
  8
ProjItem
100
AcDbLine
 10
117.164
 20
175.678
 30
0
 11
115.843
 21
175.458
 31
0
  0
ARC
  5
A34
330
A02
100
AcDbEntity
  8
ProjItem
100
AcDbCircle
 10
139.714
 20
219.893
 30
0
 40
15.25
100
AcDbArc
 50
127.035
 51
136.432
  0
ARC
  5
A35
330
A02
100
AcDbEntity
  8
ProjItem
100
AcDbCircle
 10
139.714
 20
219.893
 30
0
 40
15.25
100
AcDbArc
 50
101.053
 51
111.237
  0
ARC
  5
A36
330
A02
100
AcDbEntity
  8
ProjItem
100
AcDbCircle
 10
139.714
 20
219.893
 30
0
 40
15.25
100
AcDbArc
 50
-30
 51
18.9468
  0
ARC
  5
A37
330
A02
100
AcDbEntity
  8
ProjItem
100
AcDbCircle
 10
139.714
 20
219.893
 30
0
 40
15.25
100
AcDbArc
 50
-78.9465
 51
-30
  0
ARC
  5
A38
330
A02
100
AcDbEntity
  8
ProjItem
100
AcDbCircle
 10
139.714
 20
219.893
 30
0
 40
15.25
100
AcDbArc
 50
-171.237
 51
-161.054
  0
ARC
  5
A39
330
A02
100
AcDbEntity
  8
ProjItem
100
AcDbCircle
 10
139.714
 20
219.893
 30
0
 40
15.25
100
AcDbArc
 50
163.567
 51
172.965
  0
SPLINE
  5
A3A
330
A02
100
AcDbEntity
  8
ProjItem
100
AcDbSpline
210
0
220
0
230
1
 70
8
 71
3
 72
8
 73
4
 74
0
 40
0
 40
0
 40
0
 40
0
 40
1.23055
 40
1.23055
 40
1.23055
 40
1.23055
 10
173.918
 20
226.655
 30
0
 10
177.325
 20
224.311
 30
0
 10
180.505
 20
221.712
 30
0
 10
183.44
 20
218.886
 30
0
  0
SPLINE
  5
A3B
330
A02
100
AcDbEntity
  8
ProjItem
100
AcDbSpline
210
0
220
0
230
1
 70
8
 71
3
 72
8
 73
4
 74
0
 40
1.23055
 40
1.23055
 40
1.23055
 40
1.23055
 40
2.97107
 40
2.97107
 40
2.97107
 40
2.97107
 10
183.44
 20
218.886
 30
0
 10
187.592
 20
214.889
 30
0
 10
191.255
 20
210.435
 30
0
 10
194.383
 20
205.598
 30
0
  0
SPLINE
  5
A3C
330
A02
100
AcDbEntity
  8
ProjItem
100
AcDbSpline
210
0
220
0
230
1
 70
8
 71
3
 72
8
 73
4
 74
0
 40
1.07274
 40
1.07274
 40
1.07274
 40
1.07274
 40
1.61485
 40
1.61485
 40
1.61485
 40
1.61485
 10
150.248
 20
237.46
 30
0
 10
152.064
 20
236.99
 30
0
 10
153.884
 20
236.445
 30
0
 10
155.686
 20
235.827
 30
0
  0
SPLINE
  5
A3D
330
A02
100
AcDbEntity
  8
ProjItem
100
AcDbSpline
210
0
220
0
230
1
 70
8
 71
1
 72
4
 73
2
 74
0
 40
2.40112
 40
2.40112
 40
2.40864
 40
2.40864
 10
163.37
 20
232.714
 30
0
 10
163.442
 20
232.68
 30
0
  0
SPLINE
  5
A3E
330
A02
100
AcDbEntity
  8
ProjItem
100
AcDbSpline
210
0
220
0
230
1
 70
8
 71
3
 72
8
 73
4
 74
0
 40
2.40864
 40
2.40864
 40
2.40864
 40
2.40864
 40
3.58075
 40
3.58075
 40
3.58075
 40
3.58075
 10
163.442
 20
232.68
 30
0
 10
167.157
 20
230.928
 30
0
 10
170.672
 20
228.888
 30
0
 10
173.918
 20
226.655
 30
0
  0
SPLINE
  5
A3F
330
A02
100
AcDbEntity
  8
ProjItem
100
AcDbSpline
210
0
220
0
230
1
 70
8
 71
2
 72
6
 73
3
 74
0
 40
-0.152823
 40
-0.152823
 40
-0.152823
 40
3.41567e-15
 40
3.41567e-15
 40
3.41567e-15
 10
138.2
 20
239.557
 30
0
 10
138.974
 20
239.487
 30
0
 10
139.699
 20
239.406
 30
0
  0
LINE
  5
A40
330
A02
100
AcDbEntity
  8
ProjItem
100
AcDbLine
 10
202.128
 20
187.025
 30
0
 11
202.128
 21
169.839
 31
0
  0
SPLINE
  5
A41
330
A02
100
AcDbEntity
  8
ProjItem
100
AcDbSpline
210
0
220
0
230
1
 70
8
 71
3
 72
14
 73
10
 74
0
 40
0
 40
0
 40
0
 40
0
 40
1.62383
 40
1.62383
 40
1.62383
 40
2.70638
 40
2.70638
 40
2.70638
 40
3.78893
 40
3.78893
 40
3.78893
 40
3.78893
 10
173.918
 20
226.655
 30
0
 10
169.421
 20
229.749
 30
0
 10
164.386
 20
232.469
 30
0
 10
159.074
 20
234.577
 30
0
 10
155.533
 20
235.982
 30
0
 10
151.869
 20
237.116
 30
0
 10
148.257
 20
237.948
 30
0
 10
144.645
 20
238.781
 30
0
 10
141.085
 20
239.314
 30
0
 10
137.752
 20
239.597
 30
0
  0
ELLIPSE
  5
A42
330
A02
100
AcDbEntity
  8
ProjItem
100
AcDbEllipse
 10
171.65
 20
223.36
 30
0
 11
2.26716
 21
3.29545
 31
0
 40
0.297875
 41
4.91452
 42
5.32907e-15
  0
SPLINE
  5
A43
330
A02
100
AcDbEntity
  8
ProjItem
100
AcDbSpline
210
0
220
0
230
1
 70
8
 71
3
 72
14
 73
10
 74
0
 40
-3.78893
 40
-3.78893
 40
-3.78893
 40
-3.78893
 40
-2.70638
 40
-2.70638
 40
-2.70638
 40
-1.62383
 40
-1.62383
 40
-1.62383
 40
0
 40
0
 40
0
 40
0
 10
135.49
 20
235.611
 30
0
 10
138.953
 20
235.343
 30
0
 10
142.652
 20
234.839
 30
0
 10
146.406
 20
234.051
 30
0
 10
150.159
 20
233.262
 30
0
 10
153.966
 20
232.189
 30
0
 10
157.645
 20
230.859
 30
0
 10
163.164
 20
228.863
 30
0
 10
168.395
 20
226.288
 30
0
 10
173.067
 20
223.36
 30
0
  0
SPLINE
  5
A44
330
A02
100
AcDbEntity
  8
ProjItem
100
AcDbSpline
210
0
220
0
230
1
 70
8
 71
3
 72
8
 73
4
 74
0
 40
0
 40
0
 40
0
 40
0
 40
1.74108
 40
1.74108
 40
1.74108
 40
1.74108
 10
194.383
 20
205.598
 30
0
 10
191.254
 20
210.437
 30
0
 10
187.589
 20
214.892
 30
0
 10
183.436
 20
218.89
 30
0
  0
SPLINE
  5
A45
330
A02
100
AcDbEntity
  8
ProjItem
100
AcDbSpline
210
0
220
0
230
1
 70
8
 71
3
 72
8
 73
4
 74
0
 40
1.74108
 40
1.74108
 40
1.74108
 40
1.74108
 40
2.97099
 40
2.97099
 40
2.97099
 40
2.97099
 10
183.436
 20
218.89
 30
0
 10
180.502
 20
221.715
 30
0
 10
177.324
 20
224.312
 30
0
 10
173.918
 20
226.655
 30
0
  0
ELLIPSE
  5
A46
330
A02
100
AcDbEntity
  8
ProjItem
100
AcDbEllipse
 10
191.024
 20
203.426
 30
0
 11
3.35866
 21
2.17242
 31
0
 40
0.341471
 41
5.19813
 42
6.28319
  0
SPLINE
  5
A47
330
A02
100
AcDbEntity
  8
ProjItem
100
AcDbSpline
210
0
220
0
230
1
 70
8
 71
3
 72
8
 73
4
 74
0
 40
-2.97099
 40
-2.97099
 40
-2.97099
 40
-2.97099
 40
0
 40
0
 40
0
 40
0
 10
173.067
 20
223.36
 30
0
 10
181.18
 20
218.001
 30
0
 10
187.983
 20
211.241
 30
0
 10
193.249
 20
203.426
 30
0
  0
SPLINE
  5
A48
330
A02
100
AcDbEntity
  8
ProjItem
100
AcDbSpline
210
0
220
0
230
1
 70
8
 71
2
 72
6
 73
3
 74
0
 40
-2.18036
 40
-2.18036
 40
-2.18036
 40
-1.82916
 40
-1.82916
 40
-1.82916
 10
193.249
 20
203.426
 30
0
 10
194.369
 20
202.039
 30
0
 10
195.38
 20
200.653
 30
0
  0
SPLINE
  5
A49
330
A02
100
AcDbEntity
  8
ProjItem
100
AcDbSpline
210
0
220
0
230
1
 70
8
 71
2
 72
6
 73
3
 74
0
 40
2.07824
 40
2.07824
 40
2.07824
 40
2.18036
 40
2.18036
 40
2.18036
 10
194.926
 20
204.747
 30
0
 10
194.658
 20
205.173
 30
0
 10
194.383
 20
205.598
 30
0
  0
ELLIPSE
  5
A4A
330
A02
100
AcDbEntity
  8
ProjItem
100
AcDbEllipse
 10
131.159
 20
235.865
 30
0
 11
0.0140458
 21
-3.99998
 31
0
 40
0.633395
 41
3.14159
 42
3.8029
  0
SPLINE
  5
A4B
330
A02
100
AcDbEntity
  8
ProjItem
100
AcDbSpline
210
0
220
0
230
1
 70
8
 71
3
 72
8
 73
4
 74
0
 40
-2.63268
 40
-2.63268
 40
-2.63268
 40
-2.63268
 40
-1.87642
 40
-1.87642
 40
-1.87642
 40
-1.87642
 10
137.752
 20
239.597
 30
0
 10
135.423
 20
239.794
 30
0
 10
133.206
 20
239.872
 30
0
 10
131.145
 20
239.865
 30
0
  0
SPLINE
  5
A4C
330
A02
100
AcDbEntity
  8
ProjItem
100
AcDbSpline
210
0
220
0
230
1
 70
8
 71
3
 72
14
 73
10
 74
0
 40
0.241689
 40
0.241689
 40
0.241689
 40
0.241689
 40
0.329862
 40
0.329862
 40
0.329862
 40
0.622818
 40
0.622818
 40
0.622818
 40
0.932631
 40
0.932631
 40
0.932631
 40
0.932631
 10
129.592
 20
239.016
 30
0
 10
129.763
 20
238.918
 30
0
 10
129.95
 20
238.809
 30
0
 10
130.154
 20
238.692
 30
0
 10
130.83
 20
238.301
 30
0
 10
131.628
 20
237.841
 30
0
 10
132.496
 20
237.339
 30
0
 10
133.415
 20
236.809
 30
0
 10
134.426
 20
236.225
 30
0
 10
135.49
 20
235.611
 30
0
  0
SPLINE
  5
A4D
330
A02
100
AcDbEntity
  8
ProjItem
100
AcDbSpline
210
0
220
0
230
1
 70
8
 71
3
 72
8
 73
4
 74
0
 40
0
 40
0
 40
0
 40
0
 40
0.24007
 40
0.24007
 40
0.24007
 40
0.24007
 10
128.986
 20
239.366
 30
0
 10
128.985
 20
239.367
 30
0
 10
129.213
 20
239.235
 30
0
 10
129.592
 20
239.016
 30
0
  0
SPLINE
  5
A4E
330
A02
100
AcDbEntity
  8
ProjItem
100
AcDbSpline
210
0
220
0
230
1
 70
8
 71
3
 72
17
 73
13
 74
0
 40
0.265608
 40
0.265608
 40
0.265608
 40
0.265608
 40
0.316216
 40
0.316216
 40
0.316216
 40
0.353726
 40
0.353726
 40
0.353726
 40
0.391235
 40
0.391235
 40
0.391235
 40
0.42008
 40
0.42008
 40
0.42008
 40
0.42008
 10
179.699
 20
208.932
 30
0
 10
179.787
 20
209.082
 30
0
 10
179.833
 20
209.263
 30
0
 10
179.833
 20
209.432
 30
0
 10
179.833
 20
209.56
 30
0
 10
179.808
 20
209.687
 30
0
 10
179.759
 20
209.81
 30
0
 10
179.707
 20
209.933
 30
0
 10
179.638
 20
210.038
 30
0
 10
179.553
 20
210.126
 30
0
 10
179.489
 20
210.193
 30
0
 10
179.415
 20
210.25
 30
0
 10
179.333
 20
210.298
 30
0
  0
ARC
  5
A4F
330
A02
100
AcDbEntity
  8
ProjItem
100
AcDbCircle
 10
178.833
 20
209.432
 30
0
 40
1
100
AcDbArc
 50
-22.2195
 51
-22.2191
  0
ARC
  5
A50
330
A02
100
AcDbEntity
  8
ProjItem
100
AcDbCircle
 10
178.833
 20
209.432
 30
0
 40
1
100
AcDbArc
 50
22.2192
 51
22.2192
  0
ARC
  5
A51
330
A02
100
AcDbEntity
  8
ProjItem
100
AcDbCircle
 10
178.833
 20
209.432
 30
0
 40
1
100
AcDbArc
 50
43.9272
 51
43.9273
  0
ARC
  5
A52
330
A02
100
AcDbEntity
  8
ProjItem
100
AcDbCircle
 10
171.472
 20
213.682
 30
0
 40
1
100
AcDbArc
 50
-30
 51
60
  0
LINE
  5
A53
330
A02
100
AcDbEntity
  8
ProjItem
100
AcDbLine
 10
172.338
 20
213.182
 30
0
 11
161.838
 21
194.996
 31
0
  0
ARC
  5
A54
330
A02
100
AcDbEntity
  8
ProjItem
100
AcDbCircle
 10
160.972
 20
195.496
 30
0
 40
1
100
AcDbArc
 50
-120
 51
-30
  0
ARC
  5
A55
330
A02
100
AcDbEntity
  8
ProjItem
100
AcDbCircle
 10
168.333
 20
191.246
 30
0
 40
1
100
AcDbArc
 50
-112.567
 51
-112.566
  0
CIRCLE
  5
A56
330
A02
100
AcDbEntity
  8
ProjItem
100
AcDbCircle
 10
171.411
 20
207.078
 40
1.25
  0
CIRCLE
  5
A57
330
A02
100
AcDbEntity
  8
ProjItem
100
AcDbCircle
 10
166.661
 20
198.85
 40
1.25
  0
LINE
  5
A58
330
A02
100
AcDbEntity
  8
ProjItem
100
AcDbLine
 10
135.49
 20
235.611
 30
0
 11
136.032
 21
235.298
 31
0
  0
SPLINE
  5
A59
330
A02
100
AcDbEntity
  8
ProjItem
100
AcDbSpline
210
0
220
0
230
1
 70
8
 71
2
 72
6
 73
3
 74
0
 40
5.07445
 40
5.07445
 40
5.07445
 40
5.14237
 40
5.14237
 40
5.14237
 10
173.067
 20
213.916
 30
0
 10
176.244
 20
212.081
 30
0
 10
179.333
 20
210.298
 30
0
  0
SPLINE
  5
A5A
330
A02
100
AcDbEntity
  8
ProjItem
100
AcDbSpline
210
0
220
0
230
1
 70
8
 71
1
 72
17
 73
15
 74
0
 40
4.21076
 40
4.21076
 40
4.27245
 40
4.33415
 40
4.39584
 40
4.45753
 40
4.51922
 40
4.58091
 40
4.6426
 40
4.7043
 40
4.76599
 40
4.82768
 40
4.88937
 40
4.95106
 40
5.01275
 40
5.07445
 40
5.07445
 10
135.49
 20
235.611
 30
0
 10
137.964
 20
234.183
 30
0
 10
140.51
 20
232.712
 30
0
 10
143.12
 20
231.206
 30
0
 10
145.783
 20
229.668
 30
0
 10
148.49
 20
228.106
 30
0
 10
151.229
 20
226.524
 30
0
 10
153.991
 20
224.93
 30
0
 10
156.764
 20
223.328
 30
0
 10
159.539
 20
221.726
 30
0
 10
162.305
 20
220.129
 30
0
 10
165.051
 20
218.544
 30
0
 10
167.767
 20
216.976
 30
0
 10
170.442
 20
215.431
 30
0
 10
173.067
 20
213.916
 30
0
  0
SPLINE
  5
A5B
330
A02
100
AcDbEntity
  8
ProjItem
100
AcDbSpline
210
0
220
0
230
1
 70
8
 71
3
 72
17
 73
13
 74
0
 40
0
 40
0
 40
0
 40
0
 40
0.194144
 40
0.194144
 40
0.194144
 40
0.389545
 40
0.389545
 40
0.389545
 40
0.566488
 40
0.566488
 40
0.566488
 40
0.74492
 40
0.74492
 40
0.74492
 40
0.74492
 10
120.674
 20
217.567
 30
0
 10
120.144
 20
217.938
 30
0
 10
119.691
 20
218.409
 30
0
 10
119.341
 20
218.953
 30
0
 10
118.988
 20
219.501
 30
0
 10
118.746
 20
220.112
 30
0
 10
118.628
 20
220.753
 30
0
 10
118.52
 20
221.333
 30
0
 10
118.516
 20
221.927
 30
0
 10
118.616
 20
222.509
 30
0
 10
118.716
 20
223.095
 30
0
 10
118.919
 20
223.659
 30
0
 10
119.217
 20
224.174
 30
0
  0
ARC
  5
A5C
330
A02
100
AcDbEntity
  8
ProjItem
100
AcDbCircle
 10
125.032
 20
216.246
 30
0
 40
1
100
AcDbArc
 50
150
 51
-120
  0
LINE
  5
A5D
330
A02
100
AcDbEntity
  8
ProjItem
100
AcDbLine
 10
124.166
 20
216.746
 30
0
 11
134.666
 21
234.932
 31
0
  0
ARC
  5
A5E
330
A02
100
AcDbEntity
  8
ProjItem
100
AcDbCircle
 10
135.532
 20
234.432
 30
0
 40
1
100
AcDbArc
 50
60
 51
150
  0
CIRCLE
  5
A5F
330
A02
100
AcDbEntity
  8
ProjItem
100
AcDbCircle
 10
124.875
 20
222.975
 40
1.25
  0
CIRCLE
  5
A60
330
A02
100
AcDbEntity
  8
ProjItem
100
AcDbCircle
 10
129.625
 20
231.203
 40
1.25
  0
SPLINE
  5
A61
330
A02
100
AcDbEntity
  8
ProjItem
100
AcDbSpline
210
0
220
0
230
1
 70
8
 71
1
 72
17
 73
15
 74
0
 40
3.14159
 40
3.14159
 40
3.25379
 40
3.36599
 40
3.47819
 40
3.59039
 40
3.70259
 40
3.81479
 40
3.92699
 40
4.03919
 40
4.15139
 40
4.26359
 40
4.37579
 40
4.48799
 40
4.60019
 40
4.71239
 40
4.71239
 10
157.128
 20
159.839
 30
0
 10
161.075
 20
159.839
 30
0
 10
164.972
 20
159.839
 30
0
 10
168.771
 20
159.839
 30
0
 10
172.423
 20
159.839
 30
0
 10
175.882
 20
159.839
 30
0
 10
179.106
 20
159.839
 30
0
 10
182.054
 20
159.839
 30
0
 10
184.688
 20
159.839
 30
0
 10
186.975
 20
159.839
 30
0
 10
188.887
 20
159.839
 30
0
 10
190.4
 20
159.839
 30
0
 10
191.495
 20
159.839
 30
0
 10
192.157
 20
159.839
 30
0
 10
192.378
 20
159.839
 30
0
  0
SPLINE
  5
A62
330
A02
100
AcDbEntity
  8
ProjItem
100
AcDbSpline
210
0
220
0
230
1
 70
8
 71
1
 72
17
 73
15
 74
0
 40
7.85398
 40
7.85398
 40
7.96618
 40
8.07838
 40
8.19058
 40
8.30278
 40
8.41498
 40
8.52718
 40
8.63938
 40
8.75158
 40
8.86378
 40
8.97598
 40
9.08818
 40
9.20038
 40
9.31258
 40
9.42478
 40
9.42478
 10
121.878
 20
159.839
 30
0
 10
122.1
 20
159.839
 30
0
 10
122.762
 20
159.839
 30
0
 10
123.856
 20
159.839
 30
0
 10
125.369
 20
159.839
 30
0
 10
127.281
 20
159.839
 30
0
 10
129.569
 20
159.839
 30
0
 10
132.203
 20
159.839
 30
0
 10
135.15
 20
159.839
 30
0
 10
138.374
 20
159.839
 30
0
 10
141.834
 20
159.839
 30
0
 10
145.486
 20
159.839
 30
0
 10
149.284
 20
159.839
 30
0
 10
153.182
 20
159.839
 30
0
 10
157.128
 20
159.839
 30
0
  0
SPLINE
  5
A63
330
A02
100
AcDbEntity
  8
ProjItem
100
AcDbSpline
210
0
220
0
230
1
 70
8
 71
1
 72
17
 73
15
 74
0
 40
3.14159
 40
3.14159
 40
3.25379
 40
3.36599
 40
3.47819
 40
3.59039
 40
3.70259
 40
3.81479
 40
3.92699
 40
4.03919
 40
4.15139
 40
4.26359
 40
4.37579
 40
4.48799
 40
4.60019
 40
4.71239
 40
4.71239
 10
157.128
 20
161.839
 30
0
 10
152.958
 20
161.839
 30
0
 10
148.839
 20
161.839
 30
0
 10
144.825
 20
161.839
 30
0
 10
140.966
 20
161.839
 30
0
 10
137.31
 20
161.839
 30
0
 10
133.903
 20
161.839
 30
0
 10
130.789
 20
161.839
 30
0
 10
128.005
 20
161.839
 30
0
 10
125.588
 20
161.839
 30
0
 10
123.567
 20
161.839
 30
0
 10
121.969
 20
161.839
 30
0
 10
120.812
 20
161.839
 30
0
 10
120.113
 20
161.839
 30
0
 10
119.878
 20
161.839
 30
0
  0
SPLINE
  5
A64
330
A02
100
AcDbEntity
  8
ProjItem
100
AcDbSpline
210
0
220
0
230
1
 70
8
 71
1
 72
17
 73
15
 74
0
 40
1.5708
 40
1.5708
 40
1.683
 40
1.7952
 40
1.9074
 40
2.0196
 40
2.1318
 40
2.24399
 40
2.35619
 40
2.46839
 40
2.58059
 40
2.69279
 40
2.80499
 40
2.91719
 40
3.02939
 40
3.14159
 40
3.14159
 10
194.378
 20
161.839
 30
0
 10
194.144
 20
161.839
 30
0
 10
193.444
 20
161.839
 30
0
 10
192.288
 20
161.839
 30
0
 10
190.689
 20
161.839
 30
0
 10
188.669
 20
161.839
 30
0
 10
186.252
 20
161.839
 30
0
 10
183.468
 20
161.839
 30
0
 10
180.353
 20
161.839
 30
0
 10
176.947
 20
161.839
 30
0
 10
173.29
 20
161.839
 30
0
 10
169.431
 20
161.839
 30
0
 10
165.417
 20
161.839
 30
0
 10
161.299
 20
161.839
 30
0
 10
157.128
 20
161.839
 30
0
  0
LINE
  5
A65
330
A02
100
AcDbEntity
  8
ProjItem
100
AcDbLine
 10
202.128
 20
169.839
 30
0
 11
202.128
 21
187.025
 31
0
  0
SPLINE
  5
A66
330
A02
100
AcDbEntity
  8
ProjItem
100
AcDbSpline
210
0
220
0
230
1
 70
8
 71
1
 72
17
 73
15
 74
0
 40
5.79258
 40
5.79258
 40
5.86266
 40
5.93275
 40
6.00284
 40
6.07292
 40
6.14301
 40
6.2131
 40
6.28319
 40
6.35327
 40
6.42336
 40
6.49345
 40
6.56353
 40
6.63362
 40
6.70371
 40
6.77379
 40
6.77379
 10
193.249
 20
169.839
 30
0
 10
194.385
 20
169.839
 30
0
 10
195.462
 20
169.839
 30
0
 10
196.473
 20
169.839
 30
0
 10
197.414
 20
169.839
 30
0
 10
198.28
 20
169.839
 30
0
 10
199.066
 20
169.839
 30
0
 10
199.769
 20
169.839
 30
0
 10
200.386
 20
169.839
 30
0
 10
200.913
 20
169.839
 30
0
 10
201.348
 20
169.839
 30
0
 10
201.688
 20
169.839
 30
0
 10
201.932
 20
169.839
 30
0
 10
202.079
 20
169.839
 30
0
 10
202.128
 20
169.839
 30
0
  0
SPLINE
  5
A67
330
A02
100
AcDbEntity
  8
ProjItem
100
AcDbSpline
210
0
220
0
230
1
 70
8
 71
2
 72
6
 73
3
 74
0
 40
1.13678
 40
1.13678
 40
1.13678
 40
1.20874
 40
1.20874
 40
1.20874
 10
179.699
 20
208.932
 30
0
 10
176.433
 20
203.276
 30
0
 10
173.067
 20
197.446
 30
0
  0
SPLINE
  5
A68
330
A02
100
AcDbEntity
  8
ProjItem
100
AcDbSpline
210
0
220
0
230
1
 70
8
 71
1
 72
17
 73
15
 74
0
 40
0
 40
0
 40
0.0162516
 40
0.0325032
 40
0.0487548
 40
0.0650064
 40
0.0812581
 40
0.0975097
 40
0.113761
 40
0.130013
 40
0.146265
 40
0.162516
 40
0.178768
 40
0.195019
 40
0.211271
 40
0.227523
 40
0.227523
 10
173.067
 20
169.839
 30
0
 10
174.582
 20
169.839
 30
0
 10
176.088
 20
169.839
 30
0
 10
177.583
 20
169.839
 30
0
 10
179.067
 20
169.839
 30
0
 10
180.541
 20
169.839
 30
0
 10
182.003
 20
169.839
 30
0
 10
183.454
 20
169.839
 30
0
 10
184.893
 20
169.839
 30
0
 10
186.319
 20
169.839
 30
0
 10
187.732
 20
169.839
 30
0
 10
189.132
 20
169.839
 30
0
 10
190.518
 20
169.839
 30
0
 10
191.89
 20
169.839
 30
0
 10
193.249
 20
169.839
 30
0
  0
CIRCLE
  5
A69
330
A02
100
AcDbEntity
  8
ProjItem
100
AcDbCircle
 10
139.714
 20
219.893
 40
5
  0
SPLINE
  5
A6A
330
A02
100
AcDbEntity
  8
ProjItem
100
AcDbSpline
210
0
220
0
230
1
 70
8
 71
3
 72
11
 73
7
 74
0
 40
1.47377e-06
 40
1.47377e-06
 40
1.47377e-06
 40
1.47377e-06
 40
0.506457
 40
0.506457
 40
0.506457
 40
1
 40
1
 40
1
 40
1
 10
119.07
 20
223.92
 30
0
 10
118.497
 20
222.929
 30
0
 10
118.269
 20
221.738
 30
0
 10
118.457
 20
220.607
 30
0
 10
118.637
 20
219.505
 30
0
 10
119.186
 20
218.463
 30
0
 10
120.009
 20
217.707
 30
0
  0
SPLINE
  5
A6B
330
A02
100
AcDbEntity
  8
ProjItem
100
AcDbSpline
210
0
220
0
230
1
 70
8
 71
3
 72
14
 73
10
 74
0
 40
0
 40
0
 40
0
 40
0
 40
0.333333
 40
0.333333
 40
0.333333
 40
0.666667
 40
0.666667
 40
0.666667
 40
1
 40
1
 40
1
 40
1
 10
120.008
 20
217.706
 30
0
 10
121.033
 20
216.762
 30
0
 10
121.889
 20
215.612
 30
0
 10
122.402
 20
214.312
 30
0
 10
122.544
 20
213.951
 30
0
 10
122.654
 20
213.582
 30
0
 10
122.73
 20
213.203
 30
0
 10
122.79
 20
212.905
 30
0
 10
122.822
 20
212.605
 30
0
 10
122.824
 20
212.303
 30
0
  0
LINE
  5
A6C
330
A02
100
AcDbEntity
  8
ProjItem
100
AcDbLine
 10
122.823
 20
212.303
 30
0
 11
122.823
 21
192.122
 31
0
  0
SPLINE
  5
A6D
330
A02
100
AcDbEntity
  8
ProjItem
100
AcDbSpline
210
0
220
0
230
1
 70
8
 71
3
 72
23
 73
19
 74
0
 40
0
 40
0
 40
0
 40
0
 40
0.2
 40
0.2
 40
0.2
 40
0.4
 40
0.4
 40
0.4
 40
0.5
 40
0.5
 40
0.5
 40
0.6
 40
0.6
 40
0.6
 40
0.8
 40
0.8
 40
0.8
 40
1
 40
1
 40
1
 40
1
 10
115.442
 20
175.336
 30
0
 10
115.444
 20
175.336
 30
0
 10
115.514
 20
175.379
 30
0
 10
115.617
 20
175.462
 30
0
 10
115.741
 20
175.56
 30
0
 10
115.914
 20
175.716
 30
0
 10
116.111
 20
175.916
 30
0
 10
116.572
 20
176.383
 30
0
 10
117.158
 20
177.086
 30
0
 10
117.766
 20
177.94
 30
0
 10
118.376
 20
178.796
 30
0
 10
119.016
 20
179.808
 30
0
 10
119.634
 20
180.947
 30
0
 10
120.703
 20
182.925
 30
0
 10
121.736
 20
185.272
 30
0
 10
122.34
 20
187.938
 30
0
 10
122.641
 20
189.273
 30
0
 10
122.824
 20
190.693
 30
0
 10
122.824
 20
192.122
 30
0
  0
SPLINE
  5
A6E
330
A02
100
AcDbEntity
  8
ProjItem
100
AcDbSpline
210
0
220
0
230
1
 70
8
 71
3
 72
11
 73
7
 74
0
 40
0
 40
0
 40
0
 40
0
 40
0.515118
 40
0.515118
 40
0.515118
 40
1
 40
1
 40
1
 40
1
 10
112.135
 20
172.299
 30
0
 10
112.134
 20
173.022
 30
0
 10
112.403
 20
173.745
 30
0
 10
112.887
 20
174.285
 30
0
 10
113.341
 20
174.793
 30
0
 10
113.968
 20
175.145
 30
0
 10
114.641
 20
175.258
 30
0
  0
SPLINE
  5
A6F
330
A02
100
AcDbEntity
  8
ProjItem
100
AcDbSpline
210
0
220
0
230
1
 70
8
 71
3
 72
11
 73
7
 74
0
 40
0.544149
 40
0.544149
 40
0.544149
 40
0.544149
 40
0.670883
 40
0.670883
 40
0.670883
 40
0.677951
 40
0.677951
 40
0.677951
 40
0.677951
 10
117.417
 20
177.462
 30
0
 10
118.005
 20
178.25
 30
0
 10
118.639
 20
179.204
 30
0
 10
119.259
 20
180.277
 30
0
 10
119.292
 20
180.334
 30
0
 10
119.324
 20
180.39
 30
0
 10
119.356
 20
180.447
 30
0
  0
SPLINE
  5
A70
330
A02
100
AcDbEntity
  8
ProjItem
100
AcDbSpline
210
0
220
0
230
1
 70
8
 71
2
 72
8
 73
5
 74
0
 40
0.822747
 40
0.822747
 40
0.822747
 40
0.835441
 40
0.835441
 40
0.886365
 40
0.886365
 40
0.886365
 10
121.228
 20
184.353
 30
0
 10
121.301
 20
184.544
 30
0
 10
121.374
 20
184.734
 30
0
 10
121.761
 20
185.761
 30
0
 10
122.071
 20
186.867
 30
0
  0
SPLINE
  5
A71
330
A02
100
AcDbEntity
  8
ProjItem
100
AcDbSpline
210
0
220
0
230
1
 70
8
 71
3
 72
14
 73
10
 74
0
 40
0.00933162
 40
0.00933162
 40
0.00933162
 40
0.00933162
 40
0.277329
 40
0.277329
 40
0.277329
 40
0.554658
 40
0.554658
 40
0.554658
 40
1
 40
1
 40
1
 40
1
 10
122.823
 20
204.811
 30
0
 10
122.805
 20
205.904
 30
0
 10
122.609
 20
206.988
 30
0
 10
122.359
 20
208.052
 30
0
 10
122.167
 20
208.865
 30
0
 10
121.935
 20
209.668
 30
0
 10
121.692
 20
210.467
 30
0
 10
121.3
 20
211.75
 30
0
 10
120.879
 20
213.025
 30
0
 10
120.505
 20
214.315
 30
0
  0
SPLINE
  5
A72
330
A02
100
AcDbEntity
  8
ProjItem
100
AcDbSpline
210
0
220
0
230
1
 70
8
 71
2
 72
6
 73
3
 74
0
 40
0.904831
 40
0.904831
 40
0.904831
 40
0.957522
 40
0.957522
 40
0.957522
 10
196.234
 20
201.705
 30
0
 10
196.27
 20
201.56
 30
0
 10
196.3
 20
201.414
 30
0
  0
SPLINE
  5
A73
330
A02
100
AcDbEntity
  8
ProjItem
100
AcDbSpline
210
0
220
0
230
1
 70
8
 71
3
 72
11
 73
7
 74
0
 40
0
 40
0
 40
0
 40
0
 40
0.25
 40
0.25
 40
0.25
 40
0.380906
 40
0.380906
 40
0.380906
 40
0.380906
 10
196.346
 20
201.178
 30
0
 10
196.476
 20
200.449
 30
0
 10
196.668
 20
199.747
 30
0
 10
196.893
 20
199.075
 30
0
 10
197.336
 20
197.761
 30
0
 10
197.894
 20
196.562
 30
0
 10
198.454
 20
195.463
 30
0
  0
SPLINE
  5
A74
330
A02
100
AcDbEntity
  8
ProjItem
100
AcDbSpline
210
0
220
0
230
1
 70
8
 71
3
 72
17
 73
13
 74
0
 40
0.446668
 40
0.446668
 40
0.446668
 40
0.446668
 40
0.5
 40
0.5
 40
0.5
 40
0.75
 40
0.75
 40
0.75
 40
0.875
 40
0.875
 40
0.875
 40
1
 40
1
 40
1
 40
1
 10
199.295
 20
193.877
 30
0
 10
199.519
 20
193.468
 30
0
 10
199.737
 20
193.072
 30
0
 10
199.949
 20
192.69
 30
0
 10
200.574
 20
191.552
 30
0
 10
201.113
 20
190.558
 30
0
 10
201.515
 20
189.604
 30
0
 10
201.683
 20
189.203
 30
0
 10
201.827
 20
188.808
 30
0
 10
201.938
 20
188.386
 30
0
 10
202.049
 20
187.965
 30
0
 10
202.127
 20
187.518
 30
0
 10
202.128
 20
187.025
 30
0
  0
SPLINE
  5
A75
330
A02
100
AcDbEntity
  8
ProjItem
100
AcDbSpline
210
0
220
0
230
1
 70
8
 71
3
 72
20
 73
16
 74
0
 40
0
 40
0
 40
0
 40
0
 40
0.25
 40
0.25
 40
0.25
 40
0.5
 40
0.5
 40
0.5
 40
0.75
 40
0.75
 40
0.75
 40
0.875
 40
0.875
 40
0.875
 40
1
 40
1
 40
1
 40
1
 10
202.128
 20
187.025
 30
0
 10
202.125
 20
187.713
 30
0
 10
201.978
 20
188.306
 30
0
 10
201.794
 20
188.864
 30
0
 10
201.584
 20
189.488
 30
0
 10
201.313
 20
190.087
 30
0
 10
200.991
 20
190.731
 30
0
 10
200.436
 20
191.839
 30
0
 10
199.729
 20
193.062
 30
0
 10
198.979
 20
194.461
 30
0
 10
198.469
 20
195.414
 30
0
 10
197.943
 20
196.436
 30
0
 10
197.469
 20
197.552
 30
0
 10
196.998
 20
198.667
 30
0
 10
196.579
 20
199.875
 30
0
 10
196.346
 20
201.178
 30
0
  0
SPLINE
  5
A76
330
A02
100
AcDbEntity
  8
ProjItem
100
AcDbSpline
210
0
220
0
230
1
 70
8
 71
2
 72
12
 73
9
 74
0
 40
0
 40
0
 40
0
 40
0.476557
 40
0.476557
 40
0.651038
 40
0.651038
 40
0.825519
 40
0.825519
 40
1
 40
1
 40
1
 10
196.346
 20
201.178
 30
0
 10
196.246
 20
201.738
 30
0
 10
196.071
 20
202.28
 30
0
 10
196.001
 20
202.497
 30
0
 10
195.923
 20
202.712
 30
0
 10
195.81
 20
203.018
 30
0
 10
195.679
 20
203.317
 30
0
 10
195.356
 20
204.061
 30
0
 10
194.926
 20
204.747
 30
0
  0
SPLINE
  5
A77
330
A02
100
AcDbEntity
  8
ProjItem
100
AcDbSpline
210
0
220
0
230
1
 70
8
 71
2
 72
6
 73
3
 74
0
 40
0
 40
0
 40
0
 40
1
 40
1
 40
1
 10
119.07
 20
223.92
 30
0
 10
119.101
 20
223.974
 30
0
 10
119.127
 20
224.019
 30
0
  0
LINE
  5
A78
330
A02
100
AcDbEntity
  8
ProjItem
100
AcDbLine
 10
112.128
 20
169.839
 30
0
 11
112.128
 21
172.298
 31
0
  0
SPLINE
  5
A79
330
A02
100
AcDbEntity
  8
ProjItem
100
AcDbSpline
210
0
220
0
230
1
 70
8
 71
3
 72
8
 73
4
 74
0
 40
0
 40
0
 40
0
 40
0
 40
1
 40
1
 40
1
 40
1
 10
194.383
 20
205.598
 30
0
 10
191.256
 20
210.434
 30
0
 10
187.593
 20
214.888
 30
0
 10
183.44
 20
218.886
 30
0
  0
SPLINE
  5
A7A
330
A02
100
AcDbEntity
  8
ProjItem
100
AcDbSpline
210
0
220
0
230
1
 70
8
 71
3
 72
8
 73
4
 74
0
 40
0.318015
 40
0.318015
 40
0.318015
 40
0.318015
 40
1
 40
1
 40
1
 40
1
 10
170.737
 20
228.726
 30
0
 10
168.411
 20
230.16
 30
0
 10
165.97
 20
231.488
 30
0
 10
163.442
 20
232.68
 30
0
  0
SPLINE
  5
A7B
330
A02
100
AcDbEntity
  8
ProjItem
100
AcDbSpline
210
0
220
0
230
1
 70
8
 71
3
 72
8
 73
4
 74
0
 40
0
 40
0
 40
0
 40
0
 40
1
 40
1
 40
1
 40
1
 10
194.383
 20
205.598
 30
0
 10
191.254
 20
210.435
 30
0
 10
187.59
 20
214.891
 30
0
 10
183.436
 20
218.89
 30
0
  0
SPLINE
  5
A7C
330
A02
100
AcDbEntity
  8
ProjItem
100
AcDbSpline
210
0
220
0
230
1
 70
8
 71
2
 72
6
 73
3
 74
0
 40
0
 40
0
 40
0
 40
1
 40
1
 40
1
 10
128.986
 20
239.366
 30
0
 10
129.527
 20
239.628
 30
0
 10
130.116
 20
239.755
 30
0
  0
LINE
  5
A7D
330
A02
100
AcDbEntity
  8
ProjItem
100
AcDbLine
 10
192.378
 20
159.839
 30
0
 11
194.378
 21
161.839
 31
0
  0
LINE
  5
A7E
330
A02
100
AcDbEntity
  8
ProjItem
100
AcDbLine
 10
121.878
 20
159.839
 30
0
 11
119.878
 21
161.839
 31
0
  0
LINE
  5
A7F
330
A02
100
AcDbEntity
  8
ProjItem
100
AcDbLine
 10
119.878
 20
169.839
 30
0
 11
119.878
 21
161.839
 31
0
  0
LINE
  5
A80
330
A02
100
AcDbEntity
  8
ProjItem
100
AcDbLine
 10
194.378
 20
169.839
 30
0
 11
194.378
 21
161.839
 31
0
  0
LINE
  5
A81
330
A02
100
AcDbEntity
  8
ProjItem
100
AcDbLine
 10
123.587
 20
192.122
 30
0
 11
123.587
 21
212.303
 31
0
  0
SPLINE
  5
A82
330
A02
100
AcDbEntity
  8
ProjItem
100
AcDbSpline
210
0
220
0
230
1
 70
8
 71
1
 72
4
 73
2
 74
0
 40
1.56631
 40
1.56631
 40
1.5708
 40
1.5708
 10
138.2
 20
239.557
 30
0
 10
138.2
 20
239.557
 30
0
  0
ELLIPSE
  5
A83
330
A02
100
AcDbEntity
  8
ProjItem
100
AcDbEllipse
 10
123.533
 20
221.65
 30
0
 11
-4.33013
 21
2.5
 31
0
 40
0.996863
 41
-6.28319
 42
-4.79939
  0
LINE
  5
A84
330
A02
100
AcDbEntity
  8
ProjItem
100
AcDbLine
 10
173.067
 20
169.839
 30
0
 11
173.067
 21
197.446
 31
0
  0
LINE
  5
A85
330
A02
100
AcDbEntity
  8
ProjItem
100
AcDbLine
 10
167.879
 20
199.131
 30
0
 11
165.418
 21
198.721
 31
0
  0
LINE
  5
A86
330
A02
100
AcDbEntity
  8
ProjItem
100
AcDbLine
 10
163.836
 20
198.457
 30
0
 11
156.081
 21
197.164
 31
0
  0
ELLIPSE
  5
A87
330
A02
100
AcDbEntity
  8
ProjItem
100
AcDbEllipse
 10
137.413
 20
235.611
 30
0
 11
-0.338314
 21
-3.98567
 31
0
 40
0.479526
 41
3.14159
 42
4.75307
  0
LINE
  5
A88
330
A02
100
AcDbEntity
  8
ProjItem
100
AcDbLine
 10
193.249
 20
203.426
 30
0
 11
193.249
 21
169.839
 31
0
  0
LINE
  5
A89
330
A02
100
AcDbEntity
  8
ProjItem
100
AcDbLine
 10
173.067
 20
213.916
 30
0
 11
173.067
 21
223.36
 31
0
  0
LINE
  5
A8A
330
A02
100
AcDbEntity
  8
ProjItem
100
AcDbLine
 10
157.128
 20
159.839
 30
0
 11
157.128
 21
161.839
 31
0
  0
SPLINE
  5
A8B
330
A02
100
AcDbEntity
  8
ProjItem002
100
AcDbSpline
210
0
220
0
230
1
 70
8
 71
1
 72
4
 73
2
 74
0
 40
-0.0068302
 40
-0.0068302
 40
0
 40
0
 10
83.8436
 20
203.162
 30
0
 10
83.8437
 20
203.209
 30
0
  0
ELLIPSE
  5
A8C
330
A02
100
AcDbEntity
  8
ProjItem002
100
AcDbEllipse
 10
86.8436
 20
203.151
 30
0
 11
2.99998
 21
-0.0117075
 31
0
 40
0.531746
 41
3.13565
 42
3.1416
  0
ELLIPSE
  5
A8D
330
A02
100
AcDbEntity
  8
ProjItem002
100
AcDbEllipse
 10
86.8437
 20
236.865
 30
0
 11
3
 21
-9.50734e-14
 31
0
 40
0.999994
 41
-4.71239
 42
-3.14159
  0
SPLINE
  5
A8E
330
A02
100
AcDbEntity
  8
ProjItem002
100
AcDbSpline
210
0
220
0
230
1
 70
8
 71
1
 72
17
 73
15
 74
0
 40
6.59451
 40
6.59451
 40
6.60879
 40
6.62306
 40
6.63734
 40
6.65161
 40
6.66589
 40
6.68016
 40
6.69444
 40
6.70871
 40
6.72299
 40
6.73726
 40
6.75154
 40
6.76581
 40
6.78009
 40
6.79437
 40
6.79437
 10
83.8437
 20
235.432
 30
0
 10
83.8437
 20
235.629
 30
0
 10
83.8437
 20
235.812
 30
0
 10
83.8437
 20
235.98
 30
0
 10
83.8437
 20
236.133
 30
0
 10
83.8437
 20
236.272
 30
0
 10
83.8437
 20
236.396
 30
0
 10
83.8437
 20
236.506
 30
0
 10
83.8437
 20
236.601
 30
0
 10
83.8437
 20
236.682
 30
0
 10
83.8437
 20
236.748
 30
0
 10
83.8437
 20
236.799
 30
0
 10
83.8437
 20
236.836
 30
0
 10
83.8437
 20
236.858
 30
0
 10
83.8437
 20
236.865
 30
0
  0
SPLINE
  5
A8F
330
A02
100
AcDbEntity
  8
ProjItem002
100
AcDbSpline
210
0
220
0
230
1
 70
8
 71
1
 72
4
 73
2
 74
0
 40
6.79437
 40
6.79437
 40
6.79788
 40
6.79788
 10
83.8437
 20
236.865
 30
0
 10
83.8437
 20
236.865
 30
0
  0
SPLINE
  5
A90
330
A02
100
AcDbEntity
  8
ProjItem002
100
AcDbSpline
210
0
220
0
230
1
 70
8
 71
2
 72
28
 73
25
 74
0
 40
5.76134
 40
5.76134
 40
5.76134
 40
5.83589
 40
5.83589
 40
5.91044
 40
5.91044
 40
5.98499
 40
5.98499
 40
6.05954
 40
6.05954
 40
6.13409
 40
6.13409
 40
6.20864
 40
6.20864
 40
6.28319
 40
6.28319
 40
6.35773
 40
6.35773
 40
6.43228
 40
6.43228
 40
6.50683
 40
6.50683
 40
6.65593
 40
6.65593
 40
6.80503
 40
6.80503
 40
6.80503
 10
83.8437
 20
236.865
 30
0
 10
83.8437
 20
236.862
 30
0
 10
83.8437
 20
236.859
 30
0
 10
83.8437
 20
236.85
 30
0
 10
83.8437
 20
236.842
 30
0
 10
83.8437
 20
236.828
 30
0
 10
83.8437
 20
236.814
 30
0
 10
83.8437
 20
236.794
 30
0
 10
83.8437
 20
236.775
 30
0
 10
83.8437
 20
236.75
 30
0
 10
83.8437
 20
236.725
 30
0
 10
83.8437
 20
236.695
 30
0
 10
83.8437
 20
236.665
 30
0
 10
83.8437
 20
236.63
 30
0
 10
83.8437
 20
236.595
 30
0
 10
83.8437
 20
236.555
 30
0
 10
83.8437
 20
236.516
 30
0
 10
83.8437
 20
236.471
 30
0
 10
83.8437
 20
236.427
 30
0
 10
83.8437
 20
236.378
 30
0
 10
83.8437
 20
236.33
 30
0
 10
83.8437
 20
236.226
 30
0
 10
83.8437
 20
236.111
 30
0
 10
83.8437
 20
235.993
 30
0
 10
83.8437
 20
235.865
 30
0
  0
ELLIPSE
  5
A91
330
A02
100
AcDbEntity
  8
ProjItem002
100
AcDbEllipse
 10
86.8437
 20
222.42
 30
0
 11
3
 21
-4.82437e-16
 31
0
 40
0.5
 41
-4.71239
 42
-3.14159
  0
LINE
  5
A92
330
A02
100
AcDbEntity
  8
ProjItem002
100
AcDbLine
 10
83.8437
 20
235.865
 30
0
 11
83.8437
 21
222.42
 31
0
  0
SPLINE
  5
A93
330
A02
100
AcDbEntity
  8
ProjItem002
100
AcDbSpline
210
0
220
0
230
1
 70
8
 71
3
 72
8
 73
4
 74
0
 40
0
 40
0
 40
0
 40
0
 40
0.273497
 40
0.273497
 40
0.273497
 40
0.273497
 10
83.8437
 20
222.42
 30
0
 10
83.8437
 20
221.63
 30
0
 10
83.8437
 20
220.532
 30
0
 10
83.8437
 20
219.915
 30
0
  0
SPLINE
  5
A94
330
A02
100
AcDbEntity
  8
ProjItem002
100
AcDbSpline
210
0
220
0
230
1
 70
8
 71
3
 72
8
 73
4
 74
0
 40
-0.273497
 40
-0.273497
 40
-0.273497
 40
-0.273497
 40
0
 40
0
 40
0
 40
0
 10
87.3837
 20
217.742
 30
0
 10
87.3261
 20
219.273
 30
0
 10
87.0733
 20
221.979
 30
0
 10
86.8437
 20
223.92
 30
0
  0
ELLIPSE
  5
A95
330
A02
100
AcDbEntity
  8
ProjItem002
100
AcDbEllipse
 10
86.8437
 20
219.915
 30
0
 11
3
 21
1.83697e-16
 31
0
 40
0.736521
 41
3.14159
 42
4.89336
  0
SPLINE
  5
A96
330
A02
100
AcDbEntity
  8
ProjItem002
100
AcDbSpline
210
0
220
0
230
1
 70
8
 71
3
 72
11
 73
7
 74
0
 40
0.0263603
 40
0.0263603
 40
0.0263603
 40
0.0263603
 40
0.103432
 40
0.103432
 40
0.103432
 40
0.184591
 40
0.184591
 40
0.184591
 40
0.184591
 10
83.8634
 20
216.746
 30
0
 10
83.8889
 20
216.525
 30
0
 10
83.9337
 20
216.257
 30
0
 10
83.9494
 20
216.008
 30
0
 10
83.9683
 20
215.745
 30
0
 10
83.9461
 20
215.512
 30
0
 10
83.9098
 20
215.38
 30
0
  0
SPLINE
  5
A97
330
A02
100
AcDbEntity
  8
ProjItem002
100
AcDbSpline
210
0
220
0
230
1
 70
8
 71
2
 72
6
 73
3
 74
0
 40
7.45986e-05
 40
7.45986e-05
 40
7.45986e-05
 40
0.0394831
 40
0.0394831
 40
0.0394831
 10
83.8437
 20
217.086
 30
0
 10
83.8439
 20
216.915
 30
0
 10
83.864
 20
216.745
 30
0
  0
SPLINE
  5
A98
330
A02
100
AcDbEntity
  8
ProjItem002
100
AcDbSpline
210
0
220
0
230
1
 70
8
 71
3
 72
8
 73
4
 74
0
 40
-0.873699
 40
-0.873699
 40
-0.873699
 40
-0.873699
 40
-0.5064
 40
-0.5064
 40
-0.5064
 40
-0.5064
 10
83.8437
 20
219.915
 30
0
 10
83.8437
 20
219.087
 30
0
 10
83.8437
 20
218.137
 30
0
 10
83.8437
 20
217.088
 30
0
  0
SPLINE
  5
A99
330
A02
100
AcDbEntity
  8
ProjItem002
100
AcDbSpline
210
0
220
0
230
1
 70
8
 71
3
 72
11
 73
7
 74
0
 40
0
 40
0
 40
0
 40
0
 40
0.374442
 40
0.374442
 40
0.374442
 40
0.873699
 40
0.873699
 40
0.873699
 40
0.873699
 10
88.8437
 20
212.303
 30
0
 10
88.7078
 20
213.153
 30
0
 10
88.5137
 20
214.021
 30
0
 10
88.3003
 20
214.834
 30
0
 10
88.0159
 20
215.918
 30
0
 10
87.6975
 20
216.906
 30
0
 10
87.3837
 20
217.742
 30
0
  0
SPLINE
  5
A9A
330
A02
100
AcDbEntity
  8
ProjItem002
100
AcDbSpline
210
0
220
0
230
1
 70
8
 71
2
 72
30
 73
27
 74
0
 40
0
 40
0
 40
0
 40
0.164323
 40
0.164323
 40
0.328646
 40
0.328646
 40
0.492969
 40
0.492969
 40
0.657293
 40
0.657293
 40
0.821616
 40
0.821616
 40
0.985939
 40
0.985939
 40
1.15026
 40
1.15026
 40
1.31459
 40
1.31459
 40
1.64323
 40
1.64323
 40
1.80755
 40
1.80755
 40
1.97188
 40
1.97188
 40
2.1362
 40
2.1362
 40
2.30052
 40
2.30052
 40
2.30052
 10
83.8437
 20
212.303
 30
0
 10
83.8639
 20
212.303
 30
0
 10
83.8841
 20
212.303
 30
0
 10
83.9442
 20
212.303
 30
0
 10
84.0043
 20
212.303
 30
0
 10
84.1026
 20
212.303
 30
0
 10
84.2009
 20
212.303
 30
0
 10
84.3348
 20
212.303
 30
0
 10
84.4688
 20
212.303
 30
0
 10
84.6347
 20
212.303
 30
0
 10
84.8006
 20
212.303
 30
0
 10
84.994
 20
212.303
 30
0
 10
85.1875
 20
212.303
 30
0
 10
85.4032
 20
212.303
 30
0
 10
85.619
 20
212.303
 30
0
 10
85.8512
 20
212.303
 30
0
 10
86.0835
 20
212.303
 30
0
 10
86.5664
 20
212.303
 30
0
 10
87.0608
 20
212.303
 30
0
 10
87.3041
 20
212.303
 30
0
 10
87.5474
 20
212.303
 30
0
 10
87.7812
 20
212.303
 30
0
 10
88.015
 20
212.303
 30
0
 10
88.233
 20
212.303
 30
0
 10
88.451
 20
212.303
 30
0
 10
88.6473
 20
212.303
 30
0
 10
88.8437
 20
212.303
 30
0
  0
SPLINE
  5
A9B
330
A02
100
AcDbEntity
  8
ProjItem002
100
AcDbSpline
210
0
220
0
230
1
 70
8
 71
3
 72
8
 73
4
 74
0
 40
-0.263609
 40
-0.263609
 40
-0.263609
 40
-0.263609
 40
0
 40
0
 40
0
 40
0
 10
83.8437
 20
214.887
 30
0
 10
83.8437
 20
214.052
 30
0
 10
83.8437
 20
213.182
 30
0
 10
83.8437
 20
212.303
 30
0
  0
SPLINE
  5
A9C
330
A02
100
AcDbEntity
  8
ProjItem002
100
AcDbSpline
210
0
220
0
230
1
 70
8
 71
2
 72
6
 73
3
 74
0
 40
0.107965
 40
0.107965
 40
0.107965
 40
0.206391
 40
0.206391
 40
0.206391
 10
83.9098
 20
215.38
 30
0
 10
83.845
 20
215.134
 30
0
 10
83.8437
 20
214.887
 30
0
  0
SPLINE
  5
A9D
330
A02
100
AcDbEntity
  8
ProjItem002
100
AcDbSpline
210
0
220
0
230
1
 70
8
 71
2
 72
30
 73
27
 74
0
 40
0
 40
0
 40
0
 40
0.164323
 40
0.164323
 40
0.328646
 40
0.328646
 40
0.492969
 40
0.492969
 40
0.657293
 40
0.657293
 40
0.821616
 40
0.821616
 40
0.985939
 40
0.985939
 40
1.15026
 40
1.15026
 40
1.31459
 40
1.31459
 40
1.64323
 40
1.64323
 40
1.80755
 40
1.80755
 40
1.97188
 40
1.97188
 40
2.1362
 40
2.1362
 40
2.30052
 40
2.30052
 40
2.30052
 10
83.8437
 20
192.122
 30
0
 10
83.8639
 20
192.122
 30
0
 10
83.8841
 20
192.122
 30
0
 10
83.9442
 20
192.122
 30
0
 10
84.0043
 20
192.122
 30
0
 10
84.1026
 20
192.122
 30
0
 10
84.2009
 20
192.122
 30
0
 10
84.3348
 20
192.122
 30
0
 10
84.4688
 20
192.122
 30
0
 10
84.6347
 20
192.122
 30
0
 10
84.8006
 20
192.122
 30
0
 10
84.994
 20
192.122
 30
0
 10
85.1875
 20
192.122
 30
0
 10
85.4032
 20
192.122
 30
0
 10
85.619
 20
192.122
 30
0
 10
85.8512
 20
192.122
 30
0
 10
86.0835
 20
192.122
 30
0
 10
86.5664
 20
192.122
 30
0
 10
87.0608
 20
192.122
 30
0
 10
87.3041
 20
192.122
 30
0
 10
87.5474
 20
192.122
 30
0
 10
87.7812
 20
192.122
 30
0
 10
88.015
 20
192.122
 30
0
 10
88.233
 20
192.122
 30
0
 10
88.451
 20
192.122
 30
0
 10
88.6473
 20
192.122
 30
0
 10
88.8437
 20
192.122
 30
0
  0
LINE
  5
A9E
330
A02
100
AcDbEntity
  8
ProjItem002
100
AcDbLine
 10
83.8437
 20
212.303
 30
0
 11
83.8437
 21
192.122
 31
0
  0
SPLINE
  5
A9F
330
A02
100
AcDbEntity
  8
ProjItem002
100
AcDbSpline
210
0
220
0
230
1
 70
8
 71
3
 72
17
 73
13
 74
0
 40
0
 40
0
 40
0
 40
0
 40
0.442114
 40
0.442114
 40
0.442114
 40
1.32634
 40
1.32634
 40
1.32634
 40
2.21057
 40
2.21057
 40
2.21057
 40
3.0948
 40
3.0948
 40
3.0948
 40
3.0948
 10
83.8437
 20
192.122
 30
0
 10
83.8437
 20
190.892
 30
0
 10
83.6891
 20
189.658
 30
0
 10
83.4153
 20
188.476
 30
0
 10
82.8678
 20
186.112
 30
0
 10
81.844
 20
183.957
 30
0
 10
80.4928
 20
182.092
 30
0
 10
79.1415
 20
180.228
 30
0
 10
77.4629
 20
178.654
 30
0
 10
75.4858
 20
177.491
 30
0
 10
73.5086
 20
176.328
 30
0
 10
71.2328
 20
175.575
 30
0
 10
68.8437
 20
175.458
 30
0
  0
SPLINE
  5
AA0
330
A02
100
AcDbEntity
  8
ProjItem002
100
AcDbSpline
210
0
220
0
230
1
 70
8
 71
3
 72
17
 73
13
 74
0
 40
-3.0948
 40
-3.0948
 40
-3.0948
 40
-3.0948
 40
-2.21057
 40
-2.21057
 40
-2.21057
 40
-1.32634
 40
-1.32634
 40
-1.32634
 40
-0.442114
 40
-0.442114
 40
-0.442114
 40
0
 40
0
 40
0
 40
0
 10
69.558
 20
172.499
 30
0
 10
72.6227
 20
172.616
 30
0
 10
75.5425
 20
173.48
 30
0
 10
78.0821
 20
174.831
 30
0
 10
80.6218
 20
176.182
 30
0
 10
82.7812
 20
178.021
 30
0
 10
84.5217
 20
180.213
 30
0
 10
86.2622
 20
182.406
 30
0
 10
87.5836
 20
184.952
 30
0
 10
88.2905
 20
187.767
 30
0
 10
88.6439
 20
189.174
 30
0
 10
88.8437
 20
190.648
 30
0
 10
88.8437
 20
192.122
 30
0
  0
ELLIPSE
  5
AA1
330
A02
100
AcDbEntity
  8
ProjItem002
100
AcDbEllipse
 10
68.8437
 20
172.499
 30
0
 11
0.12247
 21
-2.9975
 31
0
 40
0.237908
 41
-4.72211
 42
-3.31167
  0
SPLINE
  5
AA2
330
A02
100
AcDbEntity
  8
ProjItem002
100
AcDbSpline
210
0
220
0
230
1
 70
8
 71
1
 72
17
 73
15
 74
0
 40
6.04278
 40
6.04278
 40
6.07712
 40
6.11147
 40
6.14581
 40
6.18015
 40
6.2145
 40
6.24884
 40
6.28319
 40
6.31753
 40
6.35187
 40
6.38622
 40
6.42056
 40
6.4549
 40
6.48925
 40
6.52359
 40
6.52359
 10
48.1294
 20
172.499
 30
0
 10
49.6365
 20
172.446
 30
0
 10
51.1544
 20
172.401
 30
0
 10
52.6813
 20
172.364
 30
0
 10
54.2155
 20
172.335
 30
0
 10
55.7552
 20
172.314
 30
0
 10
57.2986
 20
172.302
 30
0
 10
58.8437
 20
172.298
 30
0
 10
60.3889
 20
172.302
 30
0
 10
61.9322
 20
172.314
 30
0
 10
63.4719
 20
172.335
 30
0
 10
65.0061
 20
172.364
 30
0
 10
66.5331
 20
172.401
 30
0
 10
68.051
 20
172.446
 30
0
 10
69.558
 20
172.499
 30
0
  0
ELLIPSE
  5
AA3
330
A02
100
AcDbEntity
  8
ProjItem002
100
AcDbEllipse
 10
48.8437
 20
172.499
 30
0
 11
-0.12247
 21
-2.9975
 31
0
 40
0.237908
 41
3.31167
 42
4.72211
  0
SPLINE
  5
AA4
330
A02
100
AcDbEntity
  8
ProjItem002
100
AcDbSpline
210
0
220
0
230
1
 70
8
 71
2
 72
30
 73
27
 74
0
 40
0
 40
0
 40
0
 40
0.164323
 40
0.164323
 40
0.328646
 40
0.328646
 40
0.492969
 40
0.492969
 40
0.821616
 40
0.821616
 40
0.985939
 40
0.985939
 40
1.15026
 40
1.15026
 40
1.31459
 40
1.31459
 40
1.47891
 40
1.47891
 40
1.64323
 40
1.64323
 40
1.80755
 40
1.80755
 40
1.97188
 40
1.97188
 40
2.1362
 40
2.1362
 40
2.30052
 40
2.30052
 40
2.30052
 10
28.8437
 20
192.122
 30
0
 10
29.0401
 20
192.122
 30
0
 10
29.2364
 20
192.122
 30
0
 10
29.4545
 20
192.122
 30
0
 10
29.6725
 20
192.122
 30
0
 10
29.9063
 20
192.122
 30
0
 10
30.1401
 20
192.122
 30
0
 10
30.625
 20
192.122
 30
0
 10
31.119
 20
192.122
 30
0
 10
31.3615
 20
192.122
 30
0
 10
31.604
 20
192.122
 30
0
 10
31.8362
 20
192.122
 30
0
 10
32.0685
 20
192.122
 30
0
 10
32.2842
 20
192.122
 30
0
 10
32.5
 20
192.122
 30
0
 10
32.6934
 20
192.122
 30
0
 10
32.8868
 20
192.122
 30
0
 10
33.0527
 20
192.122
 30
0
 10
33.2187
 20
192.122
 30
0
 10
33.3526
 20
192.122
 30
0
 10
33.4865
 20
192.122
 30
0
 10
33.5848
 20
192.122
 30
0
 10
33.6832
 20
192.122
 30
0
 10
33.7432
 20
192.122
 30
0
 10
33.8033
 20
192.122
 30
0
 10
33.8235
 20
192.122
 30
0
 10
33.8437
 20
192.122
 30
0
  0
LINE
  5
AA5
330
A02
100
AcDbEntity
  8
ProjItem002
100
AcDbLine
 10
33.8437
 20
192.122
 30
0
 11
33.8437
 21
204.696
 31
0
  0
SPLINE
  5
AA6
330
A02
100
AcDbEntity
  8
ProjItem002
100
AcDbSpline
210
0
220
0
230
1
 70
8
 71
2
 72
30
 73
27
 74
0
 40
0
 40
0
 40
0
 40
0.164323
 40
0.164323
 40
0.328646
 40
0.328646
 40
0.492969
 40
0.492969
 40
0.657293
 40
0.657293
 40
0.821616
 40
0.821616
 40
0.985939
 40
0.985939
 40
1.15026
 40
1.15026
 40
1.31459
 40
1.31459
 40
1.64323
 40
1.64323
 40
1.80755
 40
1.80755
 40
1.97188
 40
1.97188
 40
2.1362
 40
2.1362
 40
2.30052
 40
2.30052
 40
2.30052
 10
33.8437
 20
204.696
 30
0
 10
33.8235
 20
204.696
 30
0
 10
33.8033
 20
204.696
 30
0
 10
33.7432
 20
204.696
 30
0
 10
33.6832
 20
204.696
 30
0
 10
33.5848
 20
204.696
 30
0
 10
33.4865
 20
204.696
 30
0
 10
33.3526
 20
204.696
 30
0
 10
33.2187
 20
204.696
 30
0
 10
33.0527
 20
204.696
 30
0
 10
32.8868
 20
204.696
 30
0
 10
32.6934
 20
204.696
 30
0
 10
32.5
 20
204.696
 30
0
 10
32.2842
 20
204.696
 30
0
 10
32.0685
 20
204.696
 30
0
 10
31.8362
 20
204.696
 30
0
 10
31.604
 20
204.696
 30
0
 10
31.1211
 20
204.696
 30
0
 10
30.6266
 20
204.696
 30
0
 10
30.3833
 20
204.696
 30
0
 10
30.1401
 20
204.696
 30
0
 10
29.9063
 20
204.696
 30
0
 10
29.6725
 20
204.696
 30
0
 10
29.4545
 20
204.696
 30
0
 10
29.2364
 20
204.696
 30
0
 10
29.0401
 20
204.696
 30
0
 10
28.8437
 20
204.696
 30
0
  0
SPLINE
  5
AA7
330
A02
100
AcDbEntity
  8
ProjItem002
100
AcDbSpline
210
0
220
0
230
1
 70
8
 71
3
 72
20
 73
16
 74
0
 40
9.71547e-16
 40
9.71547e-16
 40
9.71547e-16
 40
9.71547e-16
 40
0.442113
 40
0.442113
 40
0.442113
 40
1.32634
 40
1.32634
 40
1.32634
 40
2.21056
 40
2.21056
 40
2.21056
 40
2.65268
 40
2.65268
 40
2.65268
 40
3.09479
 40
3.09479
 40
3.09479
 40
3.09479
 10
48.8437
 20
175.458
 30
0
 10
47.6492
 20
175.517
 30
0
 10
46.4744
 20
175.734
 30
0
 10
45.3594
 20
176.08
 30
0
 10
43.1295
 20
176.774
 30
0
 10
41.139
 20
177.987
 30
0
 10
39.4621
 20
179.533
 30
0
 10
37.7852
 20
181.078
 30
0
 10
36.4219
 20
182.956
 30
0
 10
35.4355
 20
185.094
 30
0
 10
34.9423
 20
186.163
 30
0
 10
34.5433
 20
187.297
 30
0
 10
34.2687
 20
188.479
 30
0
 10
33.994
 20
189.662
 30
0
 10
33.8437
 20
190.892
 30
0
 10
33.8437
 20
192.122
 30
0
  0
SPLINE
  5
AA8
330
A02
100
AcDbEntity
  8
ProjItem002
100
AcDbSpline
210
0
220
0
230
1
 70
8
 71
3
 72
20
 73
16
 74
0
 40
-3.09479
 40
-3.09479
 40
-3.09479
 40
-3.09479
 40
-2.65268
 40
-2.65268
 40
-2.65268
 40
-2.21056
 40
-2.21056
 40
-2.21056
 40
-1.32634
 40
-1.32634
 40
-1.32634
 40
-0.442113
 40
-0.442113
 40
-0.442113
 40
-9.71547e-16
 40
-9.71547e-16
 40
-9.71547e-16
 40
-9.71547e-16
 10
28.8437
 20
192.122
 30
0
 10
28.8437
 20
190.648
 30
0
 10
29.0379
 20
189.178
 30
0
 10
29.3925
 20
187.77
 30
0
 10
29.7472
 20
186.363
 30
0
 10
30.2621
 20
185.018
 30
0
 10
30.8983
 20
183.754
 30
0
 10
32.1706
 20
181.225
 30
0
 10
33.9274
 20
179.019
 30
0
 10
36.0842
 20
177.212
 30
0
 10
38.241
 20
175.404
 30
0
 10
40.7977
 20
173.996
 30
0
 10
43.6593
 20
173.2
 30
0
 10
45.0901
 20
172.802
 30
0
 10
46.5971
 20
172.557
 30
0
 10
48.1294
 20
172.499
 30
0
  0
ELLIPSE
  5
AA9
330
A02
100
AcDbEntity
  8
ProjItem002
100
AcDbEllipse
 10
30.8437
 20
215.152
 30
0
 11
3
 21
1.83697e-16
 31
0
 40
0.278883
 41
4.71239
 42
0
  0
SPLINE
  5
AAA
330
A02
100
AcDbEntity
  8
ProjItem002
100
AcDbSpline
210
0
220
0
230
1
 70
8
 71
1
 72
17
 73
15
 74
0
 40
5.33729
 40
5.33729
 40
5.45223
 40
5.56717
 40
5.68211
 40
5.79705
 40
5.91199
 40
6.02693
 40
6.14187
 40
6.25681
 40
6.37175
 40
6.48669
 40
6.60163
 40
6.71657
 40
6.83151
 40
6.94645
 40
6.94645
 10
33.8437
 20
215.152
 30
0
 10
33.8437
 20
217.056
 30
0
 10
33.8437
 20
218.997
 30
0
 10
33.8437
 20
220.95
 30
0
 10
33.8437
 20
222.889
 30
0
 10
33.8437
 20
224.789
 30
0
 10
33.8437
 20
226.624
 30
0
 10
33.8437
 20
228.37
 30
0
 10
33.8437
 20
230.004
 30
0
 10
33.8437
 20
231.505
 30
0
 10
33.8437
 20
232.853
 30
0
 10
33.8437
 20
234.03
 30
0
 10
33.8437
 20
235.02
 30
0
 10
33.8437
 20
235.81
 30
0
 10
33.8437
 20
236.39
 30
0
  0
SPLINE
  5
AAB
330
A02
100
AcDbEntity
  8
ProjItem002
100
AcDbSpline
210
0
220
0
230
1
 70
8
 71
2
 72
6
 73
3
 74
0
 40
6.11571
 40
6.11571
 40
6.11571
 40
6.35998
 40
6.35998
 40
6.35998
 10
33.8437
 20
236.39
 30
0
 10
33.8437
 20
236.597
 30
0
 10
33.8437
 20
236.598
 30
0
  0
SPLINE
  5
AAC
330
A02
100
AcDbEntity
  8
ProjItem002
100
AcDbSpline
210
0
220
0
230
1
 70
8
 71
2
 72
6
 73
3
 74
0
 40
6.35998
 40
6.35998
 40
6.35998
 40
6.45066
 40
6.45066
 40
6.45066
 10
33.8437
 20
236.598
 30
0
 10
33.8437
 20
236.598
 30
0
 10
33.8437
 20
236.57
 30
0
  0
SPLINE
  5
AAD
330
A02
100
AcDbEntity
  8
ProjItem002
100
AcDbSpline
210
0
220
0
230
1
 70
8
 71
1
 72
4
 73
2
 74
0
 40
-2.87437
 40
-2.87437
 40
-2.86754
 40
-2.86754
 10
33.8437
 20
203.209
 30
0
 10
33.8438
 20
203.162
 30
0
  0
ELLIPSE
  5
AAE
330
A02
100
AcDbEntity
  8
ProjItem002
100
AcDbEllipse
 10
30.8438
 20
203.151
 30
0
 11
2.99998
 21
0.0117075
 31
0
 40
0.531746
 41
6.28318
 42
0.00594413
  0
SPLINE
  5
AAF
330
A02
100
AcDbEntity
  8
ProjItem002
100
AcDbSpline
210
0
220
0
230
1
 70
8
 71
3
 72
11
 73
7
 74
0
 40
0
 40
0
 40
0
 40
0
 40
0.461844
 40
0.461844
 40
0.461844
 40
1.07764
 40
1.07764
 40
1.07764
 40
1.07764
 10
33.8437
 20
204.696
 30
0
 10
33.8437
 20
206.238
 30
0
 10
33.8437
 20
207.757
 30
0
 10
33.8437
 20
209.252
 30
0
 10
33.8437
 20
211.243
 30
0
 10
33.8437
 20
213.181
 30
0
 10
33.8437
 20
215.152
 30
0
  0
SPLINE
  5
AB0
330
A02
100
AcDbEntity
  8
ProjItem002
100
AcDbSpline
210
0
220
0
230
1
 70
8
 71
3
 72
11
 73
7
 74
0
 40
-1.07764
 40
-1.07764
 40
-1.07764
 40
-1.07764
 40
-0.461844
 40
-0.461844
 40
-0.461844
 40
0
 40
0
 40
0
 40
0
 10
30.8437
 20
214.315
 30
0
 10
30.4702
 20
212.214
 30
0
 10
30.0501
 20
210.361
 30
0
 10
29.6555
 20
208.575
 30
0
 10
29.3596
 20
207.235
 30
0
 10
29.0782
 20
205.933
 30
0
 10
28.8437
 20
204.696
 30
0
  0
SPLINE
  5
AB1
330
A02
100
AcDbEntity
  8
ProjItem002
100
AcDbSpline
210
0
220
0
230
1
 70
8
 71
3
 72
8
 73
4
 74
0
 40
0
 40
0
 40
0
 40
0
 40
0.27194
 40
0.27194
 40
0.27194
 40
0.27194
 10
33.8438
 20
203.162
 30
0
 10
33.8459
 20
202.533
 30
0
 10
33.9001
 20
201.835
 30
0
 10
34.0157
 20
201.106
 30
0
  0
ELLIPSE
  5
AB2
330
A02
100
AcDbEntity
  8
ProjItem002
100
AcDbEllipse
 10
31.051
 20
200.653
 30
0
 11
2.96358
 21
0.46607
 31
0
 40
0.172978
 41
6.25764
 42
6.28222
  0
ELLIPSE
  5
AB3
330
A02
100
AcDbEntity
  8
ProjItem002
100
AcDbEllipse
 10
31.051
 20
200.653
 30
0
 11
2.96358
 21
0.46607
 31
0
 40
0.172978
 41
6.28227
 42
0.315081
  0
SPLINE
  5
AB4
330
A02
100
AcDbEntity
  8
ProjItem002
100
AcDbSpline
210
0
220
0
230
1
 70
8
 71
3
 72
17
 73
13
 74
0
 40
1.14065e-15
 40
1.14065e-15
 40
1.14065e-15
 40
1.14065e-15
 40
0.58996
 40
0.58996
 40
0.58996
 40
1.17992
 40
1.17992
 40
1.17992
 40
1.76988
 40
1.76988
 40
1.76988
 40
2.06486
 40
2.06486
 40
2.06486
 40
2.06486
 10
34.0157
 20
201.106
 30
0
 10
34.2653
 20
199.519
 30
0
 10
34.7863
 20
198.057
 30
0
 10
35.5231
 20
196.746
 30
0
 10
36.2599
 20
195.435
 30
0
 10
37.2125
 20
194.275
 30
0
 10
38.3586
 20
193.263
 30
0
 10
39.5048
 20
192.251
 30
0
 10
40.8445
 20
191.388
 30
0
 10
42.3207
 20
190.719
 30
0
 10
43.0619
 20
190.385
 30
0
 10
43.8278
 20
190.101
 30
0
 10
44.6185
 20
189.867
 30
0
  0
SPLINE
  5
AB5
330
A02
100
AcDbEntity
  8
ProjItem002
100
AcDbSpline
210
0
220
0
230
1
 70
8
 71
3
 72
11
 73
7
 74
0
 40
-2.06486
 40
-2.06486
 40
-2.06486
 40
-2.06486
 40
-1.76988
 40
-1.76988
 40
-1.76988
 40
-1.03983
 40
-1.03983
 40
-1.03983
 40
-1.03983
 10
43.7841
 20
187.025
 30
0
 10
42.6742
 20
187.302
 30
0
 10
41.5856
 20
187.645
 30
0
 10
40.5446
 20
188.048
 30
0
 10
37.9679
 20
189.046
 30
0
 10
35.6844
 20
190.413
 30
0
 10
33.8439
 20
192.041
 30
0
  0
ELLIPSE
  5
AB6
330
A02
100
AcDbEntity
  8
ProjItem002
100
AcDbEllipse
 10
43.7841
 20
187.025
 30
0
 11
0.845035
 21
2.87853
 31
0
 40
1.50773e-11
 41
-6.28196
 42
-6.12461
  0
ELLIPSE
  5
AB7
330
A02
100
AcDbEntity
  8
ProjItem002
100
AcDbEllipse
 10
43.7841
 20
187.025
 30
0
 11
0.845035
 21
2.87853
 31
0
 40
1.50773e-11
 41
-1.5708
 42
-6.28234
  0
SPLINE
  5
AB8
330
A02
100
AcDbEntity
  8
ProjItem002
100
AcDbSpline
210
0
220
0
230
1
 70
8
 71
2
 72
6
 73
3
 74
0
 40
0
 40
0
 40
0
 40
0.157352
 40
0.157352
 40
0.157352
 10
73.0689
 20
189.867
 30
0
 10
73.0584
 20
189.903
 30
0
 10
73.0583
 20
189.904
 30
0
  0
SPLINE
  5
AB9
330
A02
100
AcDbEntity
  8
ProjItem002
100
AcDbSpline
210
0
220
0
230
1
 70
8
 71
2
 72
30
 73
27
 74
0
 40
0.317151
 40
0.317151
 40
0.317151
 40
0.418024
 40
0.418024
 40
0.518897
 40
0.518897
 40
0.61977
 40
0.61977
 40
0.720643
 40
0.720643
 40
0.821516
 40
0.821516
 40
0.922388
 40
0.922388
 40
1.02326
 40
1.02326
 40
1.12413
 40
1.12413
 40
1.22501
 40
1.22501
 40
1.32588
 40
1.32588
 40
1.42675
 40
1.42675
 40
1.52763
 40
1.52763
 40
1.72937
 40
1.72937
 40
1.72937
 10
73.0689
 20
189.867
 30
0
 10
73.0777
 20
189.837
 30
0
 10
73.0866
 20
189.807
 30
0
 10
73.0996
 20
189.763
 30
0
 10
73.1125
 20
189.719
 30
0
 10
73.1296
 20
189.661
 30
0
 10
73.1466
 20
189.603
 30
0
 10
73.1674
 20
189.532
 30
0
 10
73.1883
 20
189.461
 30
0
 10
73.2128
 20
189.377
 30
0
 10
73.2373
 20
189.294
 30
0
 10
73.2652
 20
189.199
 30
0
 10
73.293
 20
189.104
 30
0
 10
73.324
 20
188.998
 30
0
 10
73.355
 20
188.893
 30
0
 10
73.3888
 20
188.778
 30
0
 10
73.4225
 20
188.663
 30
0
 10
73.4587
 20
188.539
 30
0
 10
73.495
 20
188.416
 30
0
 10
73.5332
 20
188.286
 30
0
 10
73.5715
 20
188.155
 30
0
 10
73.6115
 20
188.019
 30
0
 10
73.6515
 20
187.883
 30
0
 10
73.6927
 20
187.742
 30
0
 10
73.734
 20
187.602
 30
0
 10
73.818
 20
187.316
 30
0
 10
73.9033
 20
187.025
 30
0
  0
SPLINE
  5
ABA
330
A02
100
AcDbEntity
  8
ProjItem002
100
AcDbSpline
210
0
220
0
230
1
 70
8
 71
3
 72
17
 73
13
 74
0
 40
1.46811e-12
 40
1.46811e-12
 40
1.46811e-12
 40
1.46811e-12
 40
0.589973
 40
0.589973
 40
0.589973
 40
1.17995
 40
1.17995
 40
1.17995
 40
1.76992
 40
1.76992
 40
1.76992
 40
2.0649
 40
2.0649
 40
2.0649
 40
2.0649
 10
73.0689
 20
189.867
 30
0
 10
74.6441
 20
190.332
 30
0
 10
76.1458
 20
191.013
 30
0
 10
77.4724
 20
191.863
 30
0
 10
78.799
 20
192.713
 30
0
 10
79.9505
 20
193.731
 30
0
 10
80.899
 20
194.893
 30
0
 10
81.8476
 20
196.055
 30
0
 10
82.5931
 20
197.36
 30
0
 10
83.0999
 20
198.817
 30
0
 10
83.3548
 20
199.547
 30
0
 10
83.5454
 20
200.31
 30
0
 10
83.6717
 20
201.106
 30
0
  0
SPLINE
  5
ABB
330
A02
100
AcDbEntity
  8
ProjItem002
100
AcDbSpline
210
0
220
0
230
1
 70
8
 71
3
 72
11
 73
7
 74
0
 40
-1.02539
 40
-1.02539
 40
-1.02539
 40
-1.02539
 40
-0.589973
 40
-0.589973
 40
-0.589973
 40
-1.46811e-12
 40
-1.46811e-12
 40
-1.46811e-12
 40
-1.46811e-12
 10
83.8435
 20
192.042
 30
0
 10
82.7447
 20
191.067
 30
0
 10
81.496
 20
190.192
 30
0
 10
80.1139
 20
189.432
 30
0
 10
78.2411
 20
188.401
 30
0
 10
76.1233
 20
187.579
 30
0
 10
73.9033
 20
187.025
 30
0
  0
ELLIPSE
  5
ABC
330
A02
100
AcDbEntity
  8
ProjItem002
100
AcDbEllipse
 10
86.6364
 20
200.653
 30
0
 11
-2.96358
 21
0.46607
 31
0
 40
0.172978
 41
-6.28222
 42
-6.25764
  0
ELLIPSE
  5
ABD
330
A02
100
AcDbEntity
  8
ProjItem002
100
AcDbEllipse
 10
86.6364
 20
200.653
 30
0
 11
-2.96358
 21
0.46607
 31
0
 40
0.172978
 41
-0.315081
 42
-6.28227
  0
SPLINE
  5
ABE
330
A02
100
AcDbEntity
  8
ProjItem002
100
AcDbSpline
210
0
220
0
230
1
 70
8
 71
3
 72
8
 73
4
 74
0
 40
0
 40
0
 40
0
 40
0
 40
0.271941
 40
0.271941
 40
0.271941
 40
0.271941
 10
83.6717
 20
201.106
 30
0
 10
83.7873
 20
201.835
 30
0
 10
83.8415
 20
202.533
 30
0
 10
83.8436
 20
203.162
 30
0
  0
SPLINE
  5
ABF
330
A02
100
AcDbEntity
  8
ProjItem002
100
AcDbSpline
210
0
220
0
230
1
 70
8
 71
3
 72
20
 73
16
 74
0
 40
5.76134
 40
5.76134
 40
5.76134
 40
5.76134
 40
6.05972
 40
6.05972
 40
6.05972
 40
6.10235
 40
6.10235
 40
6.10235
 40
6.1876
 40
6.1876
 40
6.1876
 40
6.27285
 40
6.27285
 40
6.27285
 40
6.3581
 40
6.3581
 40
6.3581
 40
6.3581
 10
89.3437
 20
237.365
 30
0
 10
89.3437
 20
237.795
 30
0
 10
89.3437
 20
238.188
 30
0
 10
89.3437
 20
238.527
 30
0
 10
89.3437
 20
238.575
 30
0
 10
89.3437
 20
238.622
 30
0
 10
89.3437
 20
238.669
 30
0
 10
89.3437
 20
238.76
 30
0
 10
89.3437
 20
238.848
 30
0
 10
89.3437
 20
238.932
 30
0
 10
89.3437
 20
239.013
 30
0
 10
89.3437
 20
239.091
 30
0
 10
89.3437
 20
239.165
 30
0
 10
89.3437
 20
239.236
 30
0
 10
89.3437
 20
239.303
 30
0
 10
89.3437
 20
239.366
 30
0
  0
LINE
  5
AC0
330
A02
100
AcDbEntity
  8
ProjItem002
100
AcDbLine
 10
89.3437
 20
239.366
 30
0
 11
90.2121
 21
239.366
 31
0
  0
SPLINE
  5
AC1
330
A02
100
AcDbEntity
  8
ProjItem002
100
AcDbSpline
210
0
220
0
230
1
 70
8
 71
2
 72
6
 73
3
 74
0
 40
-1.673e-10
 40
-1.673e-10
 40
-1.673e-10
 40
0.0572967
 40
0.0572967
 40
0.0572967
 10
90.5706
 20
239.865
 30
0
 10
90.3872
 20
239.862
 30
0
 10
90.2121
 20
239.366
 30
0
  0
LINE
  5
AC2
330
A02
100
AcDbEntity
  8
ProjItem002
100
AcDbLine
 10
89.3437
 20
224.174
 30
0
 11
89.3437
 21
237.365
 31
0
  0
SPLINE
  5
AC3
330
A02
100
AcDbEntity
  8
ProjItem002
100
AcDbSpline
210
0
220
0
230
1
 70
8
 71
2
 72
6
 73
3
 74
0
 40
-0.248883
 40
-0.248883
 40
-0.248883
 40
0
 40
0
 40
0
 10
87.3837
 20
217.742
 30
0
 10
88.3748
 20
217.682
 30
0
 10
89.3437
 20
217.567
 30
0
  0
SPLINE
  5
AC4
330
A02
100
AcDbEntity
  8
ProjItem002
100
AcDbSpline
210
0
220
0
230
1
 70
8
 71
2
 72
6
 73
3
 74
0
 40
0.729728
 40
0.729728
 40
0.729728
 40
0.744736
 40
0.744736
 40
0.744736
 10
88.8437
 20
212.303
 30
0
 10
89.0954
 20
212.159
 30
0
 10
89.3437
 20
212.012
 30
0
  0
SPLINE
  5
AC5
330
A02
100
AcDbEntity
  8
ProjItem002
100
AcDbSpline
210
0
220
0
230
1
 70
8
 71
3
 72
14
 73
10
 74
0
 40
0
 40
0
 40
0
 40
0
 40
0.176467
 40
0.176467
 40
0.176467
 40
0.413617
 40
0.413617
 40
0.413617
 40
0.632599
 40
0.632599
 40
0.632599
 40
0.632599
 10
89.3437
 20
212.012
 30
0
 10
89.3437
 20
212.6
 30
0
 10
89.3437
 20
213.187
 30
0
 10
89.3437
 20
213.742
 30
0
 10
89.3437
 20
214.488
 30
0
 10
89.3437
 20
215.225
 30
0
 10
89.3437
 20
215.906
 30
0
 10
89.3437
 20
216.536
 30
0
 10
89.3437
 20
217.097
 30
0
 10
89.3437
 20
217.567
 30
0
  0
SPLINE
  5
AC6
330
A02
100
AcDbEntity
  8
ProjItem002
100
AcDbSpline
210
0
220
0
230
1
 70
8
 71
3
 72
14
 73
10
 74
0
 40
-25.7353
 40
-25.7353
 40
-25.7353
 40
-25.7353
 40
-24.8027
 40
-24.8027
 40
-24.8027
 40
-23.87
 40
-23.87
 40
-23.87
 40
-23.5425
 40
-23.5425
 40
-23.5425
 40
-23.5425
 10
18.3437
 20
195.278
 30
0
 10
19.5479
 20
195.77
 30
0
 10
20.9533
 20
196.707
 30
0
 10
22.4591
 20
197.964
 30
0
 10
23.9648
 20
199.222
 30
0
 10
25.5708
 20
200.8
 30
0
 10
27.1692
 20
202.648
 30
0
 10
27.7318
 20
203.297
 30
0
 10
28.2899
 20
203.98
 30
0
 10
28.8435
 20
204.697
 30
0
  0
SPLINE
  5
AC7
330
A02
100
AcDbEntity
  8
ProjItem002
100
AcDbSpline
210
0
220
0
230
1
 70
8
 71
3
 72
8
 73
4
 74
0
 40
0.558825
 40
0.558825
 40
0.558825
 40
0.558825
 40
0.796184
 40
0.796184
 40
0.796184
 40
0.796184
 10
18.3437
 20
215.404
 30
0
 10
18.0078
 20
215.062
 30
0
 10
17.6562
 20
214.893
 30
0
 10
17.35
 20
214.893
 30
0
  0
SPLINE
  5
AC8
330
A02
100
AcDbEntity
  8
ProjItem002
100
AcDbSpline
210
0
220
0
230
1
 70
8
 71
3
 72
29
 73
25
 74
0
 40
0.796184
 40
0.796184
 40
0.796184
 40
0.796184
 40
0.997656
 40
0.997656
 40
0.997656
 40
1.19913
 40
1.19913
 40
1.19913
 40
1.3865
 40
1.3865
 40
1.3865
 40
1.57388
 40
1.57388
 40
1.57388
 40
1.76126
 40
1.76126
 40
1.76126
 40
1.94863
 40
1.94863
 40
1.94863
 40
2.1501
 40
2.1501
 40
2.1501
 40
2.35154
 40
2.35154
 40
2.35154
 40
2.35154
 10
17.35
 20
214.893
 30
0
 10
17.0901
 20
214.893
 30
0
 10
16.8267
 20
215.016
 30
0
 10
16.5976
 20
215.274
 30
0
 10
16.3685
 20
215.533
 30
0
 10
16.173
 20
215.929
 30
0
 10
16.0249
 20
216.397
 30
0
 10
15.8872
 20
216.833
 30
0
 10
15.7734
 20
217.386
 30
0
 10
15.6993
 20
217.995
 30
0
 10
15.6252
 20
218.604
 30
0
 10
15.5901
 20
219.269
 30
0
 10
15.5901
 20
219.893
 30
0
 10
15.5901
 20
220.518
 30
0
 10
15.6252
 20
221.183
 30
0
 10
15.6993
 20
221.792
 30
0
 10
15.7734
 20
222.401
 30
0
 10
15.8872
 20
222.954
 30
0
 10
16.0249
 20
223.389
 30
0
 10
16.173
 20
223.858
 30
0
 10
16.3685
 20
224.254
 30
0
 10
16.5976
 20
224.512
 30
0
 10
16.8267
 20
224.771
 30
0
 10
17.09
 20
224.893
 30
0
 10
17.3499
 20
224.893
 30
0
  0
SPLINE
  5
AC9
330
A02
100
AcDbEntity
  8
ProjItem002
100
AcDbSpline
210
0
220
0
230
1
 70
8
 71
3
 72
8
 73
4
 74
0
 40
2.35154
 40
2.35154
 40
2.35154
 40
2.35154
 40
2.58893
 40
2.58893
 40
2.58893
 40
2.58893
 10
17.3499
 20
224.893
 30
0
 10
17.6561
 20
224.894
 30
0
 10
18.0078
 20
224.725
 30
0
 10
18.3437
 20
224.383
 30
0
  0
SPLINE
  5
ACA
330
A02
100
AcDbEntity
  8
ProjItem002
100
AcDbSpline
210
0
220
0
230
1
 70
8
 71
3
 72
11
 73
7
 74
0
 40
-1.90627
 40
-1.90627
 40
-1.90627
 40
-1.90627
 40
-1.02307
 40
-1.02307
 40
-1.02307
 40
0
 40
0
 40
0
 40
0
 10
13.8444
 20
231.043
 30
0
 10
13.8433
 20
232.111
 30
0
 10
14.1475
 20
233.005
 30
0
 10
14.7885
 20
233.709
 30
0
 10
15.5303
 20
234.526
 30
0
 10
16.7203
 20
235.091
 30
0
 10
18.3437
 20
235.43
 30
0
  0
SPLINE
  5
ACB
330
A02
100
AcDbEntity
  8
ProjItem002
100
AcDbSpline
210
0
220
0
230
1
 70
8
 71
1
 72
17
 73
15
 74
0
 40
0.362057
 40
0.362057
 40
0.586456
 40
0.810856
 40
1.03526
 40
1.25965
 40
1.48405
 40
1.70845
 40
1.93285
 40
2.15725
 40
2.38165
 40
2.60605
 40
2.83045
 40
3.05485
 40
3.27925
 40
3.50365
 40
3.50365
 10
13.8437
 20
169.839
 30
0
 10
14.972
 20
169.839
 30
0
 10
18.3001
 20
169.839
 30
0
 10
23.6613
 20
169.839
 30
0
 10
30.7867
 20
169.839
 30
0
 10
39.3189
 20
169.839
 30
0
 10
48.8303
 20
169.839
 30
0
 10
58.8437
 20
169.839
 30
0
 10
68.8572
 20
169.839
 30
0
 10
78.3685
 20
169.839
 30
0
 10
86.9008
 20
169.839
 30
0
 10
94.0261
 20
169.839
 30
0
 10
99.3873
 20
169.839
 30
0
 10
102.715
 20
169.839
 30
0
 10
103.844
 20
169.839
 30
0
  0
SPLINE
  5
ACC
330
A02
100
AcDbEntity
  8
ProjItem002
100
AcDbSpline
210
0
220
0
230
1
 70
8
 71
1
 72
17
 73
15
 74
0
 40
1.5708
 40
1.5708
 40
1.6298
 40
1.6888
 40
1.74781
 40
1.80681
 40
1.86582
 40
1.92482
 40
1.98383
 40
2.04283
 40
2.10184
 40
2.16084
 40
2.21984
 40
2.27885
 40
2.33785
 40
2.39686
 40
2.39686
 10
103.844
 20
196.56
 30
0
 10
103.765
 20
198.092
 30
0
 10
103.531
 20
199.619
 30
0
 10
103.141
 20
201.135
 30
0
 10
102.596
 20
202.635
 30
0
 10
101.9
 20
204.114
 30
0
 10
101.053
 20
205.567
 30
0
 10
100.06
 20
206.988
 30
0
 10
98.9227
 20
208.373
 30
0
 10
97.6464
 20
209.717
 30
0
 10
96.235
 20
211.016
 30
0
 10
94.6934
 20
212.263
 30
0
 10
93.0271
 20
213.457
 30
0
 10
91.2418
 20
214.591
 30
0
 10
89.3437
 20
215.663
 30
0
  0
LINE
  5
ACD
330
A02
100
AcDbEntity
  8
ProjItem002
100
AcDbLine
 10
89.3437
 20
215.663
 30
0
 11
89.3437
 21
212.012
 31
0
  0
SPLINE
  5
ACE
330
A02
100
AcDbEntity
  8
ProjItem002
100
AcDbSpline
210
0
220
0
230
1
 70
8
 71
3
 72
14
 73
10
 74
0
 40
22.4711
 40
22.4711
 40
22.4711
 40
22.4711
 40
22.9374
 40
22.9374
 40
22.9374
 40
23.4037
 40
23.4037
 40
23.4037
 40
24.0111
 40
24.0111
 40
24.0111
 40
24.0111
 10
30.8437
 20
214.315
 30
0
 10
30.2509
 20
213.211
 30
0
 10
29.5342
 20
212.177
 30
0
 10
28.7579
 20
211.207
 30
0
 10
27.9816
 20
210.236
 30
0
 10
27.1456
 20
209.33
 30
0
 10
26.2846
 20
208.48
 30
0
 10
25.1631
 20
207.373
 30
0
 10
23.9998
 20
206.361
 30
0
 10
22.8437
 20
205.441
 30
0
  0
SPLINE
  5
ACF
330
A02
100
AcDbEntity
  8
ProjItem002
100
AcDbSpline
210
0
220
0
230
1
 70
8
 71
3
 72
11
 73
7
 74
0
 40
-0.998684
 40
-0.998684
 40
-0.998684
 40
-0.998684
 40
-0.428007
 40
-0.428007
 40
-0.428007
 40
0
 40
0
 40
0
 40
0
 10
20.2395
 20
199.16
 30
0
 10
20.6666
 20
200.302
 30
0
 10
21.163
 20
201.471
 30
0
 10
21.6748
 20
202.676
 30
0
 10
22.0601
 20
203.581
 30
0
 10
22.4498
 20
204.502
 30
0
 10
22.8437
 20
205.441
 30
0
  0
SPLINE
  5
AD0
330
A02
100
AcDbEntity
  8
ProjItem002
100
AcDbSpline
210
0
220
0
230
1
 70
8
 71
3
 72
8
 73
4
 74
0
 40
-0.693857
 40
-0.693857
 40
-0.693857
 40
-0.693857
 40
0
 40
0
 40
0
 40
0
 10
18.3437
 20
195.278
 30
0
 10
19.0691
 20
196.443
 30
0
 10
19.7201
 20
197.772
 30
0
 10
20.2395
 20
199.16
 30
0
  0
SPLINE
  5
AD1
330
A02
100
AcDbEntity
  8
ProjItem002
100
AcDbSpline
210
0
220
0
230
1
 70
8
 71
2
 72
6
 73
3
 74
0
 40
5.94207
 40
5.94207
 40
5.94207
 40
5.99486
 40
5.99486
 40
5.99486
 10
22.8437
 20
239.131
 30
0
 10
22.8437
 20
239.222
 30
0
 10
22.8293
 20
239.301
 30
0
  0
SPLINE
  5
AD2
330
A02
100
AcDbEntity
  8
ProjItem002
100
AcDbSpline
210
0
220
0
230
1
 70
8
 71
3
 72
35
 73
31
 74
0
 40
-5.30608
 40
-5.30608
 40
-5.30608
 40
-5.30608
 40
-4.83233
 40
-4.83233
 40
-4.83233
 40
-4.54807
 40
-4.54807
 40
-4.54807
 40
-4.16907
 40
-4.16907
 40
-4.16907
 40
-3.79006
 40
-3.79006
 40
-3.79006
 40
-3.03205
 40
-3.03205
 40
-3.03205
 40
-2.27404
 40
-2.27404
 40
-2.27404
 40
-1.51602
 40
-1.51602
 40
-1.51602
 40
-0.758012
 40
-0.758012
 40
-0.758012
 40
-0.379006
 40
-0.379006
 40
-0.379006
 40
0
 40
0
 40
0
 40
0
 10
79.092
 20
185.194
 30
0
 10
79.5759
 20
185.697
 30
0
 10
79.9997
 20
186.269
 30
0
 10
80.3202
 20
186.818
 30
0
 10
80.5129
 20
187.147
 30
0
 10
80.6701
 20
187.469
 30
0
 10
80.7848
 20
187.755
 30
0
 10
80.9377
 20
188.136
 30
0
 10
81.015
 20
188.451
 30
0
 10
81.0234
 20
188.672
 30
0
 10
81.0318
 20
188.892
 30
0
 10
80.9714
 20
189.017
 30
0
 10
80.8584
 20
189.066
 30
0
 10
80.6318
 20
189.164
 30
0
 10
80.1966
 20
188.961
 30
0
 10
79.6239
 20
188.659
 30
0
 10
79.0502
 20
188.356
 30
0
 10
78.3344
 20
187.95
 30
0
 10
77.5129
 20
187.549
 30
0
 10
76.6914
 20
187.149
 30
0
 10
75.7642
 20
186.754
 30
0
 10
74.7826
 20
186.433
 30
0
 10
73.804
 20
186.116
 30
0
 10
72.7572
 20
185.859
 30
0
 10
71.7308
 20
185.783
 30
0
 10
71.2169
 20
185.747
 30
0
 10
70.718
 20
185.758
 30
0
 10
70.2341
 20
185.814
 30
0
 10
69.7525
 20
185.87
 30
0
 10
69.2924
 20
185.969
 30
0
 10
68.8437
 20
186.087
 30
0
  0
SPLINE
  5
AD3
330
A02
100
AcDbEntity
  8
ProjItem002
100
AcDbSpline
210
0
220
0
230
1
 70
8
 71
1
 72
4
 73
2
 74
0
 40
-0.00047777
 40
-0.00047777
 40
0.111504
 40
0.111504
 10
78.7516
 20
184.839
 30
0
 10
79.092
 20
185.194
 30
0
  0
SPLINE
  5
AD4
330
A02
100
AcDbEntity
  8
ProjItem002
100
AcDbSpline
210
0
220
0
230
1
 70
8
 71
3
 72
20
 73
16
 74
0
 40
-12.3127
 40
-12.3127
 40
-12.3127
 40
-12.3127
 40
-11.8656
 40
-11.8656
 40
-11.8656
 40
-10.9714
 40
-10.9714
 40
-10.9714
 40
-10.0772
 40
-10.0772
 40
-10.0772
 40
-9.63015
 40
-9.63015
 40
-9.63015
 40
-9.2955
 40
-9.2955
 40
-9.2955
 40
-9.2955
 10
68.8437
 20
178.487
 30
0
 10
69.436
 20
178.585
 30
0
 10
70.0135
 20
178.725
 30
0
 10
70.5761
 20
178.907
 30
0
 10
71.6991
 20
179.269
 30
0
 10
72.7493
 20
179.786
 30
0
 10
73.7221
 20
180.403
 30
0
 10
74.6948
 20
181.019
 30
0
 10
75.59
 20
181.735
 30
0
 10
76.4595
 20
182.536
 30
0
 10
76.892
 20
182.936
 30
0
 10
77.325
 20
183.359
 30
0
 10
77.7585
 20
183.805
 30
0
 10
78.0844
 20
184.141
 30
0
 10
78.4153
 20
184.485
 30
0
 10
78.7512
 20
184.839
 30
0
  0
SPLINE
  5
AD5
330
A02
100
AcDbEntity
  8
ProjItem002
100
AcDbSpline
210
0
220
0
230
1
 70
8
 71
3
 72
8
 73
4
 74
0
 40
1.5708
 40
1.5708
 40
1.5708
 40
1.5708
 40
1.79032
 40
1.79032
 40
1.79032
 40
1.79032
 10
83.8437
 20
197.164
 30
0
 10
83.8433
 20
196.313
 30
0
 10
83.7223
 20
195.461
 30
0
 10
83.4837
 20
194.63
 30
0
  0
SPLINE
  5
AD6
330
A02
100
AcDbEntity
  8
ProjItem002
100
AcDbSpline
210
0
220
0
230
1
 70
8
 71
3
 72
11
 73
7
 74
0
 40
-0.0853811
 40
-0.0853811
 40
-0.0853811
 40
-0.0853811
 40
-0.0376732
 40
-0.0376732
 40
-0.0376732
 40
0.0161439
 40
0.0161439
 40
0.0161439
 40
0.0161439
 10
83.5139
 20
194.996
 30
0
 10
83.4876
 20
194.859
 30
0
 10
83.464
 20
194.737
 30
0
 10
83.4484
 20
194.647
 30
0
 10
83.4311
 20
194.546
 30
0
 10
83.4262
 20
194.496
 30
0
 10
83.4336
 20
194.496
 30
0
  0
SPLINE
  5
AD7
330
A02
100
AcDbEntity
  8
ProjItem002
100
AcDbSpline
210
0
220
0
230
1
 70
8
 71
2
 72
6
 73
3
 74
0
 40
0.0161439
 40
0.0161439
 40
0.0161439
 40
0.0661264
 40
0.0661264
 40
0.0661264
 10
83.4336
 20
194.496
 30
0
 10
83.4452
 20
194.498
 30
0
 10
83.4837
 20
194.63
 30
0
  0
SPLINE
  5
AD8
330
A02
100
AcDbEntity
  8
ProjItem002
100
AcDbSpline
210
0
220
0
230
1
 70
8
 71
2
 72
6
 73
3
 74
0
 40
4.5023
 40
4.5023
 40
4.5023
 40
4.63111
 40
4.63111
 40
4.63111
 10
83.5139
 20
194.996
 30
0
 10
83.7153
 20
196.043
 30
0
 10
83.7942
 20
197.109
 30
0
  0
SPLINE
  5
AD9
330
A02
100
AcDbEntity
  8
ProjItem002
100
AcDbSpline
210
0
220
0
230
1
 70
8
 71
2
 72
6
 73
3
 74
0
 40
0.236823
 40
0.236823
 40
0.236823
 40
0.286541
 40
0.286541
 40
0.286541
 10
83.8048
 20
197.475
 30
0
 10
83.8166
 20
197.608
 30
0
 10
83.8189
 20
197.609
 30
0
  0
SPLINE
  5
ADA
330
A02
100
AcDbEntity
  8
ProjItem002
100
AcDbSpline
210
0
220
0
230
1
 70
8
 71
3
 72
11
 73
7
 74
0
 40
0.286541
 40
0.286541
 40
0.286541
 40
0.286541
 40
0.340356
 40
0.340356
 40
0.340356
 40
0.387582
 40
0.387582
 40
0.387582
 40
0.387582
 10
83.8189
 20
197.609
 30
0
 10
83.8208
 20
197.61
 30
0
 10
83.8195
 20
197.559
 30
0
 10
83.8151
 20
197.458
 30
0
 10
83.811
 20
197.368
 30
0
 10
83.8043
 20
197.246
 30
0
 10
83.7942
 20
197.109
 30
0
  0
SPLINE
  5
ADB
330
A02
100
AcDbEntity
  8
ProjItem002
100
AcDbSpline
210
0
220
0
230
1
 70
8
 71
2
 72
6
 73
3
 74
0
 40
1.64283
 40
1.64283
 40
1.64283
 40
1.69679
 40
1.69679
 40
1.69679
 10
83.8048
 20
197.475
 30
0
 10
83.7756
 20
197.162
 30
0
 10
83.7248
 20
196.85
 30
0
  0
SPLINE
  5
ADC
330
A02
100
AcDbEntity
  8
ProjItem002
100
AcDbSpline
210
0
220
0
230
1
 70
8
 71
2
 72
6
 73
3
 74
0
 40
1.69679
 40
1.69679
 40
1.69679
 40
1.72271
 40
1.72271
 40
1.72271
 10
83.7248
 20
196.85
 30
0
 10
83.7004
 20
196.85
 30
0
 10
83.671
 20
196.85
 30
0
  0
SPLINE
  5
ADD
330
A02
100
AcDbEntity
  8
ProjItem002
100
AcDbSpline
210
0
220
0
230
1
 70
8
 71
2
 72
6
 73
3
 74
0
 40
4.56048
 40
4.56048
 40
4.56048
 40
4.71239
 40
4.71239
 40
4.71239
 10
83.671
 20
196.85
 30
0
 10
83.8432
 20
198.099
 30
0
 10
83.8437
 20
199.362
 30
0
  0
SPLINE
  5
ADE
330
A02
100
AcDbEntity
  8
ProjItem002
100
AcDbSpline
210
0
220
0
230
1
 70
8
 71
3
 72
17
 73
13
 74
0
 40
-3.01723
 40
-3.01723
 40
-3.01723
 40
-3.01723
 40
-2.2355
 40
-2.2355
 40
-2.2355
 40
-1.7884
 40
-1.7884
 40
-1.7884
 40
-0.8942
 40
-0.8942
 40
-0.8942
 40
0
 40
0
 40
0
 40
0
 10
38.9362
 20
184.839
 30
0
 10
39.7223
 20
184.013
 30
0
 10
40.4698
 20
183.232
 30
0
 10
41.2284
 20
182.535
 30
0
 10
41.6613
 20
182.135
 30
0
 10
42.1041
 20
181.757
 30
0
 10
42.5568
 20
181.401
 30
0
 10
43.4654
 20
180.689
 30
0
 10
44.433
 20
180.062
 30
0
 10
45.482
 20
179.559
 30
0
 10
46.531
 20
179.057
 30
0
 10
47.6614
 20
178.681
 30
0
 10
48.8437
 20
178.487
 30
0
  0
SPLINE
  5
ADF
330
A02
100
AcDbEntity
  8
ProjItem002
100
AcDbSpline
210
0
220
0
230
1
 70
8
 71
1
 72
4
 73
2
 74
0
 40
9.00278e-05
 40
9.00278e-05
 40
0.111982
 40
0.111982
 10
38.5955
 20
185.194
 30
0
 10
38.9358
 20
184.839
 30
0
  0
SPLINE
  5
AE0
330
A02
100
AcDbEntity
  8
ProjItem002
100
AcDbSpline
210
0
220
0
230
1
 70
8
 71
3
 72
35
 73
31
 74
0
 40
0
 40
0
 40
0
 40
0
 40
0.37916
 40
0.37916
 40
0.37916
 40
0.75832
 40
0.75832
 40
0.75832
 40
1.13748
 40
1.13748
 40
1.13748
 40
1.51664
 40
1.51664
 40
1.51664
 40
3.03328
 40
3.03328
 40
3.03328
 40
3.7916
 40
3.7916
 40
3.7916
 40
4.17076
 40
4.17076
 40
4.17076
 40
4.54992
 40
4.54992
 40
4.54992
 40
4.92908
 40
4.92908
 40
4.92908
 40
5.30824
 40
5.30824
 40
5.30824
 40
5.30824
 10
48.8437
 20
186.087
 30
0
 10
48.3949
 20
185.969
 30
0
 10
47.9407
 20
185.87
 30
0
 10
47.4593
 20
185.815
 30
0
 10
46.9778
 20
185.759
 30
0
 10
46.4692
 20
185.746
 30
0
 10
45.9561
 20
185.783
 30
0
 10
45.443
 20
185.82
 30
0
 10
44.9255
 20
185.906
 30
0
 10
44.4129
 20
186.018
 30
0
 10
43.8986
 20
186.132
 30
0
 10
43.3945
 20
186.269
 30
0
 10
42.9006
 20
186.43
 30
0
 10
40.9319
 20
187.07
 30
0
 10
39.21
 20
188.052
 30
0
 10
38.0612
 20
188.656
 30
0
 10
37.4867
 20
188.958
 30
0
 10
37.0555
 20
189.166
 30
0
 10
36.8298
 20
189.067
 30
0
 10
36.7169
 20
189.018
 30
0
 10
36.6554
 20
188.892
 30
0
 10
36.6635
 20
188.672
 30
0
 10
36.6716
 20
188.452
 30
0
 10
36.7493
 20
188.137
 30
0
 10
36.902
 20
187.757
 30
0
 10
37.0546
 20
187.377
 30
0
 10
37.2823
 20
186.932
 30
0
 10
37.571
 20
186.487
 30
0
 10
37.8598
 20
186.041
 30
0
 10
38.2097
 20
185.595
 30
0
 10
38.5955
 20
185.194
 30
0
  0
SPLINE
  5
AE1
330
A02
100
AcDbEntity
  8
ProjItem002
100
AcDbSpline
210
0
220
0
230
1
 70
8
 71
1
 72
17
 73
15
 74
0
 40
0
 40
0
 40
0.0747998
 40
0.1496
 40
0.224399
 40
0.299199
 40
0.373999
 40
0.448799
 40
0.523599
 40
0.598399
 40
0.673198
 40
0.747998
 40
0.822798
 40
0.897598
 40
0.972398
 40
1.0472
 40
1.0472
 10
33.8437
 20
227.518
 30
0
 10
33.8437
 20
228.484
 30
0
 10
33.8437
 20
229.402
 30
0
 10
33.8437
 20
230.266
 30
0
 10
33.8437
 20
231.072
 30
0
 10
33.8437
 20
231.816
 30
0
 10
33.8437
 20
232.494
 30
0
 10
33.8437
 20
233.1
 30
0
 10
33.8437
 20
233.633
 30
0
 10
33.8437
 20
234.089
 30
0
 10
33.8437
 20
234.466
 30
0
 10
33.8437
 20
234.761
 30
0
 10
33.8437
 20
234.973
 30
0
 10
33.8437
 20
235.101
 30
0
 10
33.8437
 20
235.143
 30
0
  0
ELLIPSE
  5
AE2
330
A02
100
AcDbEntity
  8
ProjItem002
100
AcDbEllipse
 10
21.9437
 20
235.43
 30
0
 11
-0.89529
 21
3.89852
 31
0
 40
0.895524
 41
-0.000413133
 42
-4.91522
  0
ELLIPSE
  5
AE3
330
A02
100
AcDbEntity
  8
ProjItem002
100
AcDbEllipse
 10
21.9437
 20
235.43
 30
0
 11
-0.89529
 21
3.89852
 31
0
 40
0.895524
 41
-0.0177562
 42
-0.000414867
  0
SPLINE
  5
AE4
330
A02
100
AcDbEntity
  8
ProjItem002
100
AcDbSpline
210
0
220
0
230
1
 70
8
 71
2
 72
6
 73
3
 74
0
 40
-0.257492
 40
-0.257492
 40
-0.257492
 40
-0.0532214
 40
-0.0532214
 40
-0.0532214
 10
18.6463
 20
235.574
 30
0
 10
18.804
 20
235.665
 30
0
 10
18.8357
 20
235.42
 30
0
  0
ELLIPSE
  5
AE5
330
A02
100
AcDbEntity
  8
ProjItem002
100
AcDbEllipse
 10
22.4883
 20
235.574
 30
0
 11
1.19798
 21
-3.81639
 31
0
 40
0.956867
 41
3.03889
 42
3.13777
  0
ELLIPSE
  5
AE6
330
A02
100
AcDbEntity
  8
ProjItem002
100
AcDbEllipse
 10
22.4883
 20
235.574
 30
0
 11
1.19798
 21
-3.81639
 31
0
 40
0.956867
 41
3.13777
 42
3.14166
  0
ELLIPSE
  5
AE7
330
A02
100
AcDbEntity
  8
ProjItem002
100
AcDbEllipse
 10
22.4883
 20
235.574
 30
0
 11
1.19798
 21
-3.81639
 31
0
 40
0.956867
 41
3.14166
 42
4.4206
  0
SPLINE
  5
AE8
330
A02
100
AcDbEntity
  8
ProjItem002
100
AcDbSpline
210
0
220
0
230
1
 70
8
 71
2
 72
6
 73
3
 74
0
 40
0.0532214
 40
0.0532214
 40
0.0532214
 40
0.201337
 40
0.201337
 40
0.201337
 10
22.8293
 20
239.301
 30
0
 10
22.7882
 20
239.598
 30
0
 10
22.6271
 20
239.598
 30
0
  0
SPLINE
  5
AE9
330
A02
100
AcDbEntity
  8
ProjItem002
100
AcDbSpline
210
0
220
0
230
1
 70
8
 71
1
 72
4
 73
2
 74
0
 40
0.201337
 40
0.201337
 40
0.201826
 40
0.201826
 10
22.6271
 20
239.598
 30
0
 10
22.6261
 20
239.598
 30
0
  0
ELLIPSE
  5
AEA
330
A02
100
AcDbEntity
  8
ProjItem002
100
AcDbEllipse
 10
22.8293
 20
235.42
 30
0
 11
3.90023
 21
0.887819
 31
0
 40
0.968849
 41
-4.92946
 42
-3.37236
  0
SPLINE
  5
AEB
330
A02
100
AcDbEntity
  8
ProjItem002
100
AcDbSpline
210
0
220
0
230
1
 70
8
 71
2
 72
6
 73
3
 74
0
 40
-3.41567e-15
 40
-3.41567e-15
 40
-3.41567e-15
 40
0.152823
 40
0.152823
 40
0.152823
 10
18.3437
 20
235.43
 30
0
 10
18.5282
 20
235.507
 30
0
 10
18.6463
 20
235.574
 30
0
  0
ELLIPSE
  5
AEC
330
A02
100
AcDbEntity
  8
ProjItem002
100
AcDbEllipse
 10
22.8437
 20
208.331
 30
0
 11
4
 21
2.44929e-16
 31
0
 40
0.722561
 41
3.14159
 42
4.71239
  0
ELLIPSE
  5
AED
330
A02
100
AcDbEntity
  8
ProjItem002
100
AcDbEllipse
 10
22.8437
 20
235.284
 30
0
 11
-4
 21
1.00149e-14
 31
0
 40
0.961815
 41
4.71239
 42
2.66454e-15
  0
SPLINE
  5
AEE
330
A02
100
AcDbEntity
  8
ProjItem002
100
AcDbSpline
210
0
220
0
230
1
 70
8
 71
1
 72
17
 73
15
 74
0
 40
5.13124
 40
5.13124
 40
5.28132
 40
5.4314
 40
5.58147
 40
5.73155
 40
5.88162
 40
6.0317
 40
6.18177
 40
6.33185
 40
6.48192
 40
6.632
 40
6.78208
 40
6.93215
 40
7.08223
 40
7.2323
 40
7.2323
 10
18.8437
 20
235.284
 30
0
 10
18.8437
 20
234.456
 30
0
 10
18.8437
 20
233.301
 30
0
 10
18.8437
 20
231.845
 30
0
 10
18.8437
 20
230.119
 30
0
 10
18.8437
 20
228.164
 30
0
 10
18.8437
 20
226.023
 30
0
 10
18.8437
 20
223.744
 30
0
 10
18.8437
 20
221.379
 30
0
 10
18.8437
 20
218.98
 30
0
 10
18.8437
 20
216.602
 30
0
 10
18.8437
 20
214.297
 30
0
 10
18.8437
 20
212.119
 30
0
 10
18.8437
 20
210.115
 30
0
 10
18.8437
 20
208.331
 30
0
  0
SPLINE
  5
AEF
330
A02
100
AcDbEntity
  8
ProjItem002
100
AcDbSpline
210
0
220
0
230
1
 70
8
 71
3
 72
11
 73
7
 74
0
 40
0
 40
0
 40
0
 40
0
 40
0.428007
 40
0.428007
 40
0.428007
 40
0.998684
 40
0.998684
 40
0.998684
 40
0.998684
 10
18.8437
 20
208.331
 30
0
 10
18.8437
 20
207.345
 30
0
 10
18.8437
 20
206.332
 30
0
 10
18.8437
 20
205.292
 30
0
 10
18.8437
 20
203.907
 30
0
 10
18.8437
 20
202.476
 30
0
 10
18.8437
 20
200.93
 30
0
  0
ELLIPSE
  5
AF0
330
A02
100
AcDbEntity
  8
ProjItem002
100
AcDbEllipse
 10
22.8437
 20
200.93
 30
0
 11
4
 21
-2.06552e-10
 31
0
 40
0.582825
 41
3.14159
 42
4.00341
  0
SPLINE
  5
AF1
330
A02
100
AcDbEntity
  8
ProjItem002
100
AcDbSpline
210
0
220
0
230
1
 70
8
 71
3
 72
8
 73
4
 74
0
 40
0
 40
0
 40
0
 40
0
 40
0.693857
 40
0.693857
 40
0.693857
 40
0.693857
 10
18.8437
 20
200.93
 30
0
 10
18.8437
 20
199.05
 30
0
 10
18.6818
 20
197.12
 30
0
 10
18.3437
 20
195.278
 30
0
  0
SPLINE
  5
AF2
330
A02
100
AcDbEntity
  8
ProjItem002
100
AcDbSpline
210
0
220
0
230
1
 70
8
 71
2
 72
6
 73
3
 74
0
 40
-5.99486
 40
-5.99486
 40
-5.99486
 40
-5.94207
 40
-5.94207
 40
-5.94207
 10
18.8357
 20
235.42
 30
0
 10
18.8437
 20
235.356
 30
0
 10
18.8437
 20
235.284
 30
0
  0
SPLINE
  5
AF3
330
A02
100
AcDbEntity
  8
ProjItem002
100
AcDbSpline
210
0
220
0
230
1
 70
8
 71
3
 72
11
 73
7
 74
0
 40
-3.78893
 40
-3.78893
 40
-3.78893
 40
-3.78893
 40
-2.70638
 40
-2.70638
 40
-2.70638
 40
-1.6744
 40
-1.6744
 40
-1.6744
 40
-1.6744
 10
98.2998
 20
235.611
 30
0
 10
100.199
 20
235.343
 30
0
 10
101.628
 20
234.839
 30
0
 10
102.548
 20
234.051
 30
0
 10
103.426
 20
233.299
 30
0
 10
103.843
 20
232.289
 30
0
 10
103.844
 20
231.044
 30
0
  0
SPLINE
  5
AF4
330
A02
100
AcDbEntity
  8
ProjItem002
100
AcDbSpline
210
0
220
0
230
1
 70
8
 71
1
 72
4
 73
2
 74
0
 40
-1.6744
 40
-1.6744
 40
-1.6725
 40
-1.6725
 10
103.844
 20
231.044
 30
0
 10
103.844
 20
231.037
 30
0
  0
SPLINE
  5
AF5
330
A02
100
AcDbEntity
  8
ProjItem002
100
AcDbSpline
210
0
220
0
230
1
 70
8
 71
1
 72
4
 73
2
 74
0
 40
-1.6725
 40
-1.6725
 40
-1.65871
 40
-1.65871
 10
103.844
 20
231.037
 30
0
 10
103.844
 20
230.987
 30
0
  0
ELLIPSE
  5
AF6
330
A02
100
AcDbEntity
  8
ProjItem002
100
AcDbEllipse
 10
90.5706
 20
235.865
 30
0
 11
0.0171598
 21
-3.99996
 31
0
 40
0.773824
 41
-3.80845
 42
-3.14714
  0
SPLINE
  5
AF7
330
A02
100
AcDbEntity
  8
ProjItem002
100
AcDbSpline
210
0
220
0
230
1
 70
8
 71
3
 72
8
 73
4
 74
0
 40
-2.63268
 40
-2.63268
 40
-2.63268
 40
-2.63268
 40
-1.90854
 40
-1.90854
 40
-1.90854
 40
-1.90854
 10
94.7926
 20
239.597
 30
0
 10
93.6351
 20
239.786
 30
0
 10
92.2873
 20
239.865
 30
0
 10
90.773
 20
239.865
 30
0
  0
SPLINE
  5
AF8
330
A02
100
AcDbEntity
  8
ProjItem002
100
AcDbSpline
210
0
220
0
230
1
 70
8
 71
1
 72
4
 73
2
 74
0
 40
-1.90854
 40
-1.90854
 40
-1.90829
 40
-1.90829
 10
90.773
 20
239.865
 30
0
 10
90.7715
 20
239.865
 30
0
  0
SPLINE
  5
AF9
330
A02
100
AcDbEntity
  8
ProjItem002
100
AcDbSpline
210
0
220
0
230
1
 70
8
 71
1
 72
4
 73
2
 74
0
 40
-1.90829
 40
-1.90829
 40
-1.87642
 40
-1.87642
 10
90.7715
 20
239.865
 30
0
 10
90.5706
 20
239.865
 30
0
  0
SPLINE
  5
AFA
330
A02
100
AcDbEntity
  8
ProjItem002
100
AcDbSpline
210
0
220
0
230
1
 70
8
 71
3
 72
14
 73
10
 74
0
 40
0.241689
 40
0.241689
 40
0.241689
 40
0.241689
 40
0.329862
 40
0.329862
 40
0.329862
 40
0.622818
 40
0.622818
 40
0.622818
 40
0.932631
 40
0.932631
 40
0.932631
 40
0.932631
 10
92.4716
 20
239.016
 30
0
 10
92.7764
 20
238.918
 30
0
 10
93.0819
 20
238.809
 30
0
 10
93.3882
 20
238.692
 30
0
 10
94.4046
 20
238.301
 30
0
 10
95.3283
 20
237.841
 30
0
 10
96.1337
 20
237.339
 30
0
 10
96.9854
 20
236.809
 30
0
 10
97.7162
 20
236.225
 30
0
 10
98.2998
 20
235.611
 30
0
  0
SPLINE
  5
AFB
330
A02
100
AcDbEntity
  8
ProjItem002
100
AcDbSpline
210
0
220
0
230
1
 70
8
 71
3
 72
8
 73
4
 74
0
 40
0
 40
0
 40
0
 40
0
 40
0.24007
 40
0.24007
 40
0.24007
 40
0.24007
 10
90.2121
 20
239.366
 30
0
 10
91.0111
 20
239.367
 30
0
 10
91.7982
 20
239.235
 30
0
 10
92.4716
 20
239.016
 30
0
  0
SPLINE
  5
AFC
330
A02
100
AcDbEntity
  8
ProjItem002
100
AcDbSpline
210
0
220
0
230
1
 70
8
 71
2
 72
12
 73
9
 74
0
 40
0.301241
 40
0.301241
 40
0.301241
 40
0.316216
 40
0.316216
 40
0.353726
 40
0.353726
 40
0.391235
 40
0.391235
 40
0.42008
 40
0.42008
 40
0.42008
 10
98.0813
 20
209.28
 30
0
 10
98.0757
 20
209.357
 30
0
 10
98.0757
 20
209.432
 30
0
 10
98.0758
 20
209.625
 30
0
 10
98.1102
 20
209.81
 30
0
 10
98.1464
 20
209.994
 30
0
 10
98.2054
 20
210.126
 30
0
 10
98.2499
 20
210.226
 30
0
 10
98.3067
 20
210.298
 30
0
  0
SPLINE
  5
AFD
330
A02
100
AcDbEntity
  8
ProjItem002
100
AcDbSpline
210
0
220
0
230
1
 70
8
 71
2
 72
6
 73
3
 74
0
 40
5.07445
 40
5.07445
 40
5.07445
 40
5.14237
 40
5.14237
 40
5.14237
 10
100.926
 20
213.916
 30
0
 10
99.7225
 20
212.081
 30
0
 10
98.3067
 20
210.298
 30
0
  0
SPLINE
  5
AFE
330
A02
100
AcDbEntity
  8
ProjItem002
100
AcDbSpline
210
0
220
0
230
1
 70
8
 71
1
 72
17
 73
15
 74
0
 40
4.21076
 40
4.21076
 40
4.24659
 40
4.28242
 40
4.31825
 40
4.35408
 40
4.38992
 40
4.42575
 40
4.46158
 40
4.49741
 40
4.53324
 40
4.56907
 40
4.6049
 40
4.64073
 40
4.67656
 40
4.71239
 40
4.71239
 10
98.2998
 20
235.611
 30
0
 10
99.0496
 20
234.787
 30
0
 10
99.7478
 20
233.948
 30
0
 10
100.394
 20
233.095
 30
0
 10
100.986
 20
232.229
 30
0
 10
101.524
 20
231.352
 30
0
 10
102.008
 20
230.464
 30
0
 10
102.436
 20
229.566
 30
0
 10
102.808
 20
228.661
 30
0
 10
103.123
 20
227.748
 30
0
 10
103.382
 20
226.829
 30
0
 10
103.584
 20
225.905
 30
0
 10
103.728
 20
224.978
 30
0
 10
103.815
 20
224.049
 30
0
 10
103.844
 20
223.118
 30
0
  0
SPLINE
  5
AFF
330
A02
100
AcDbEntity
  8
ProjItem002
100
AcDbSpline
210
0
220
0
230
1
 70
8
 71
1
 72
17
 73
15
 74
0
 40
4.71239
 40
4.71239
 40
4.73825
 40
4.76411
 40
4.78997
 40
4.81583
 40
4.84169
 40
4.86756
 40
4.89342
 40
4.91928
 40
4.94514
 40
4.971
 40
4.99686
 40
5.02272
 40
5.04858
 40
5.07445
 40
5.07445
 10
103.844
 20
223.118
 30
0
 10
103.829
 20
222.446
 30
0
 10
103.784
 20
221.775
 30
0
 10
103.708
 20
221.104
 30
0
 10
103.603
 20
220.435
 30
0
 10
103.468
 20
219.768
 30
0
 10
103.303
 20
219.103
 30
0
 10
103.108
 20
218.44
 30
0
 10
102.884
 20
217.781
 30
0
 10
102.63
 20
217.125
 30
0
 10
102.347
 20
216.474
 30
0
 10
102.035
 20
215.827
 30
0
 10
101.694
 20
215.184
 30
0
 10
101.324
 20
214.547
 30
0
 10
100.926
 20
213.916
 30
0
  0
SPLINE
  5
B00
330
A02
100
AcDbEntity
  8
ProjItem002
100
AcDbSpline
210
0
220
0
230
1
 70
8
 71
3
 72
14
 73
10
 74
0
 40
0
 40
0
 40
0
 40
0
 40
0.194144
 40
0.194144
 40
0.194144
 40
0.389545
 40
0.389545
 40
0.389545
 40
0.74492
 40
0.74492
 40
0.74492
 40
0.74492
 10
89.3437
 20
217.567
 30
0
 10
89.3437
 20
217.938
 30
0
 10
89.3437
 20
218.409
 30
0
 10
89.3437
 20
218.953
 30
0
 10
89.3437
 20
219.501
 30
0
 10
89.3437
 20
220.112
 30
0
 10
89.3437
 20
220.753
 30
0
 10
89.3437
 20
221.915
 30
0
 10
89.3437
 20
223.151
 30
0
 10
89.3437
 20
224.174
 30
0
  0
SPLINE
  5
B01
330
A02
100
AcDbEntity
  8
ProjItem002
100
AcDbSpline
210
0
220
0
230
1
 70
8
 71
1
 72
17
 73
15
 74
0
 40
4.71239
 40
4.71239
 40
4.91626
 40
5.12012
 40
5.32399
 40
5.52786
 40
5.73173
 40
5.93559
 40
6.13946
 40
6.34333
 40
6.54719
 40
6.75106
 40
6.95493
 40
7.1588
 40
7.36266
 40
7.56653
 40
7.56653
 10
89.3437
 20
221.725
 30
0
 10
89.3437
 20
221.751
 30
0
 10
89.3437
 20
221.828
 30
0
 10
89.3437
 20
221.952
 30
0
 10
89.3437
 20
222.118
 30
0
 10
89.3437
 20
222.32
 30
0
 10
89.3437
 20
222.55
 30
0
 10
89.3437
 20
222.796
 30
0
 10
89.3437
 20
223.051
 30
0
 10
89.3437
 20
223.302
 30
0
 10
89.3437
 20
223.539
 30
0
 10
89.3437
 20
223.753
 30
0
 10
89.3437
 20
223.935
 30
0
 10
89.3437
 20
224.078
 30
0
 10
89.3437
 20
224.174
 30
0
  0
SPLINE
  5
B02
330
A02
100
AcDbEntity
  8
ProjItem002
100
AcDbSpline
210
0
220
0
230
1
 70
8
 71
1
 72
17
 73
15
 74
0
 40
6.28319
 40
6.28319
 40
6.50758
 40
6.73198
 40
6.95638
 40
7.18078
 40
7.40518
 40
7.62958
 40
7.85398
 40
8.07838
 40
8.30278
 40
8.52718
 40
8.75158
 40
8.97598
 40
9.20038
 40
9.42478
 40
9.42478
 10
23.5937
 20
159.839
 30
0
 10
24.4775
 20
159.839
 30
0
 10
27.0846
 20
159.839
 30
0
 10
31.2842
 20
159.839
 30
0
 10
36.8657
 20
159.839
 30
0
 10
43.5493
 20
159.839
 30
0
 10
50.9998
 20
159.839
 30
0
 10
58.8437
 20
159.839
 30
0
 10
66.6876
 20
159.839
 30
0
 10
74.1381
 20
159.839
 30
0
 10
80.8217
 20
159.839
 30
0
 10
86.4033
 20
159.839
 30
0
 10
90.6029
 20
159.839
 30
0
 10
93.2099
 20
159.839
 30
0
 10
94.0937
 20
159.839
 30
0
  0
LINE
  5
B03
330
A02
100
AcDbEntity
  8
ProjItem002
100
AcDbLine
 10
94.0937
 20
159.839
 30
0
 11
96.0937
 21
161.839
 31
0
  0
SPLINE
  5
B04
330
A02
100
AcDbEntity
  8
ProjItem002
100
AcDbSpline
210
0
220
0
230
1
 70
8
 71
1
 72
17
 73
15
 74
0
 40
3.14159
 40
3.14159
 40
3.36599
 40
3.59039
 40
3.81479
 40
4.03919
 40
4.26359
 40
4.48799
 40
4.71239
 40
4.93679
 40
5.16119
 40
5.38559
 40
5.60999
 40
5.83439
 40
6.05879
 40
6.28319
 40
6.28319
 10
96.0937
 20
161.839
 30
0
 10
95.1598
 20
161.839
 30
0
 10
92.4048
 20
161.839
 30
0
 10
87.9669
 20
161.839
 30
0
 10
82.0687
 20
161.839
 30
0
 10
75.0059
 20
161.839
 30
0
 10
67.1326
 20
161.839
 30
0
 10
58.8437
 20
161.839
 30
0
 10
50.5548
 20
161.839
 30
0
 10
42.6815
 20
161.839
 30
0
 10
35.6187
 20
161.839
 30
0
 10
29.7205
 20
161.839
 30
0
 10
25.2826
 20
161.839
 30
0
 10
22.5276
 20
161.839
 30
0
 10
21.5937
 20
161.839
 30
0
  0
LINE
  5
B05
330
A02
100
AcDbEntity
  8
ProjItem002
100
AcDbLine
 10
21.5937
 20
161.839
 30
0
 11
21.5937
 21
169.839
 31
0
  0
SPLINE
  5
B06
330
A02
100
AcDbEntity
  8
ProjItem002
100
AcDbSpline
210
0
220
0
230
1
 70
8
 71
2
 72
10
 73
7
 74
0
 40
0.245536
 40
0.245536
 40
0.245536
 40
0.35552
 40
0.35552
 40
0.474027
 40
0.474027
 40
0.550309
 40
0.550309
 40
0.550309
 10
18.8437
 20
217.481
 30
0
 10
18.8469
 20
216.982
 30
0
 10
18.8012
 20
216.563
 30
0
 10
18.7518
 20
216.112
 30
0
 10
18.6035
 20
215.784
 30
0
 10
18.5066
 20
215.571
 30
0
 10
18.3437
 20
215.404
 30
0
  0
LINE
  5
B07
330
A02
100
AcDbEntity
  8
ProjItem002
100
AcDbLine
 10
18.8437
 20
217.481
 30
0
 11
18.8437
 21
200.93
 31
0
  0
SPLINE
  5
B08
330
A02
100
AcDbEntity
  8
ProjItem002
100
AcDbSpline
210
0
220
0
230
1
 70
8
 71
2
 72
10
 73
7
 74
0
 40
3.82876
 40
3.82876
 40
3.82876
 40
3.90504
 40
3.90504
 40
4.02355
 40
4.02355
 40
4.13353
 40
4.13353
 40
4.13353
 10
18.3437
 20
224.383
 30
0
 10
18.5066
 20
224.215
 30
0
 10
18.6035
 20
224.003
 30
0
 10
18.7518
 20
223.674
 30
0
 10
18.8012
 20
223.224
 30
0
 10
18.8469
 20
222.805
 30
0
 10
18.8437
 20
222.306
 30
0
  0
ELLIPSE
  5
B09
330
A02
100
AcDbEntity
  8
ProjItem002
100
AcDbEllipse
 10
68.8437
 20
166.359
 30
0
 11
2.26183
 21
19.8717
 31
0
 40
0.561489
 41
-6.08318
 42
-5.83774
  0
SPLINE
  5
B0A
330
A02
100
AcDbEntity
  8
ProjItem002
100
AcDbSpline
210
0
220
0
230
1
 70
8
 71
3
 72
8
 73
4
 74
0
 40
1.20072
 40
1.20072
 40
1.20072
 40
1.20072
 40
1.5708
 40
1.5708
 40
1.5708
 40
1.5708
 10
66.0774
 20
184.839
 30
0
 10
63.7766
 20
184.839
 30
0
 10
61.3112
 20
184.839
 30
0
 10
58.8437
 20
184.839
 30
0
  0
SPLINE
  5
B0B
330
A02
100
AcDbEntity
  8
ProjItem002
100
AcDbSpline
210
0
220
0
230
1
 70
8
 71
3
 72
8
 73
4
 74
0
 40
1.5708
 40
1.5708
 40
1.5708
 40
1.5708
 40
1.94087
 40
1.94087
 40
1.94087
 40
1.94087
 10
58.8437
 20
184.839
 30
0
 10
56.3762
 20
184.839
 30
0
 10
53.9108
 20
184.839
 30
0
 10
51.61
 20
184.839
 30
0
  0
ELLIPSE
  5
B0C
330
A02
100
AcDbEntity
  8
ProjItem002
100
AcDbEllipse
 10
48.8437
 20
166.359
 30
0
 11
2.26183
 21
-19.8717
 31
0
 40
0.561489
 41
-3.58704
 42
-3.3416
  0
SPLINE
  5
B0D
330
A02
100
AcDbEntity
  8
ProjItem002
100
AcDbSpline
210
0
220
0
230
1
 70
8
 71
1
 72
17
 73
15
 74
0
 40
1.94087
 40
1.94087
 40
2.0167
 40
2.09253
 40
2.16837
 40
2.2442
 40
2.32003
 40
2.39586
 40
2.47169
 40
2.54753
 40
2.62336
 40
2.69919
 40
2.77502
 40
2.85085
 40
2.92669
 40
3.00252
 40
3.00252
 10
51.61
 20
184.839
 30
0
 10
50.2182
 20
184.839
 30
0
 10
48.876
 20
184.839
 30
0
 10
47.591
 20
184.839
 30
0
 10
46.3707
 20
184.839
 30
0
 10
45.2221
 20
184.839
 30
0
 10
44.1519
 20
184.839
 30
0
 10
43.166
 20
184.839
 30
0
 10
42.2703
 20
184.839
 30
0
 10
41.4698
 20
184.839
 30
0
 10
40.7692
 20
184.839
 30
0
 10
40.1725
 20
184.839
 30
0
 10
39.6831
 20
184.839
 30
0
 10
39.3038
 20
184.839
 30
0
 10
39.0368
 20
184.839
 30
0
  0
SPLINE
  5
B0E
330
A02
100
AcDbEntity
  8
ProjItem002
100
AcDbSpline
210
0
220
0
230
1
 70
8
 71
2
 72
6
 73
3
 74
0
 40
3.14282
 40
3.14282
 40
3.14282
 40
3.28067
 40
3.28067
 40
3.28067
 10
38.8437
 20
184.839
 30
0
 10
38.846
 20
184.839
 30
0
 10
39.0368
 20
184.839
 30
0
  0
ELLIPSE
  5
B0F
330
A02
100
AcDbEntity
  8
ProjItem002
100
AcDbEllipse
 10
25.0312
 20
170.697
 30
0
 11
13.8918
 21
14.3881
 31
0
 40
0.127861
 41
-6.28304
 42
-6.16107
  0
ELLIPSE
  5
B10
330
A02
100
AcDbEntity
  8
ProjItem002
100
AcDbEllipse
 10
25.0312
 20
170.697
 30
0
 11
13.8918
 21
14.3881
 31
0
 40
0.127861
 41
-2.15368e-05
 42
-6.28304
  0
ELLIPSE
  5
B11
330
A02
100
AcDbEntity
  8
ProjItem002
100
AcDbEllipse
 10
25.0312
 20
170.697
 30
0
 11
13.8918
 21
14.3881
 31
0
 40
0.127861
 41
-0.00329707
 42
-2.15368e-05
  0
SPLINE
  5
B12
330
A02
100
AcDbEntity
  8
ProjItem002
100
AcDbSpline
210
0
220
0
230
1
 70
8
 71
2
 72
6
 73
3
 74
0
 40
6.18719
 40
6.18719
 40
6.18719
 40
6.28304
 40
6.28304
 40
6.28304
 10
78.7516
 20
184.839
 30
0
 10
78.8433
 20
184.839
 30
0
 10
78.8437
 20
184.839
 30
0
  0
SPLINE
  5
B13
330
A02
100
AcDbEntity
  8
ProjItem002
100
AcDbSpline
210
0
220
0
230
1
 70
8
 71
1
 72
17
 73
15
 74
0
 40
6.46682
 40
6.46682
 40
6.53947
 40
6.61212
 40
6.68477
 40
6.75742
 40
6.83007
 40
6.90272
 40
6.97537
 40
7.04801
 40
7.12066
 40
7.19331
 40
7.26596
 40
7.33861
 40
7.41126
 40
7.48391
 40
7.48391
 10
78.5074
 20
184.839
 30
0
 10
78.1905
 20
184.839
 30
0
 10
77.7714
 20
184.839
 30
0
 10
77.2526
 20
184.839
 30
0
 10
76.6366
 20
184.839
 30
0
 10
75.9267
 20
184.839
 30
0
 10
75.1267
 20
184.839
 30
0
 10
74.2408
 20
184.839
 30
0
 10
73.2737
 20
184.839
 30
0
 10
72.2305
 20
184.839
 30
0
 10
71.1166
 20
184.839
 30
0
 10
69.938
 20
184.839
 30
0
 10
68.7009
 20
184.839
 30
0
 10
67.4117
 20
184.839
 30
0
 10
66.0774
 20
184.839
 30
0
  0
ELLIPSE
  5
B14
330
A02
100
AcDbEntity
  8
ProjItem002
100
AcDbEllipse
 10
92.6562
 20
170.697
 30
0
 11
13.8918
 21
-14.3881
 31
0
 40
0.127861
 41
-3.14157
 42
-3.13815
  0
ELLIPSE
  5
B15
330
A02
100
AcDbEntity
  8
ProjItem002
100
AcDbEllipse
 10
92.6562
 20
170.697
 30
0
 11
13.8918
 21
-14.3881
 31
0
 40
0.127861
 41
-3.26371
 42
-3.14159
  0
SPLINE
  5
B16
330
A02
100
AcDbEntity
  8
ProjItem002
100
AcDbSpline
210
0
220
0
230
1
 70
8
 71
2
 72
6
 73
3
 74
0
 40
0
 40
0
 40
0
 40
0.263495
 40
0.263495
 40
0.263495
 10
38.9358
 20
184.839
 30
0
 10
39.1802
 20
184.839
 30
0
 10
39.1794
 20
184.839
 30
0
  0
SPLINE
  5
B17
330
A02
100
AcDbEntity
  8
ProjItem002
100
AcDbSpline
210
0
220
0
230
1
 70
8
 71
2
 72
6
 73
3
 74
0
 40
0.264927
 40
0.264927
 40
0.264927
 40
0.467793
 40
0.467793
 40
0.467793
 10
39.1794
 20
184.839
 30
0
 10
39.1779
 20
184.839
 30
0
 10
39.0368
 20
184.839
 30
0
  0
SPLINE
  5
B18
330
A02
100
AcDbEntity
  8
ProjItem002
100
AcDbSpline
210
0
220
0
230
1
 70
8
 71
3
 72
8
 73
4
 74
0
 40
0.203834
 40
0.203834
 40
0.203834
 40
0.203834
 40
0.467928
 40
0.467928
 40
0.467928
 40
0.467928
 10
78.5074
 20
184.839
 30
0
 10
78.5111
 20
184.839
 30
0
 10
78.5765
 20
184.839
 30
0
 10
78.7516
 20
184.839
 30
0
  0
ELLIPSE
  5
B19
330
A02
100
AcDbEntity
  8
ProjItem002
100
AcDbEllipse
 10
68.8437
 20
158.759
 30
0
 11
1.41335
 21
-19.95
 31
0
 40
0.390365
 41
-3.14141
 42
-3.13418
  0
ELLIPSE
  5
B1A
330
A02
100
AcDbEntity
  8
ProjItem002
100
AcDbEllipse
 10
68.8437
 20
158.759
 30
0
 11
1.41335
 21
-19.95
 31
0
 40
0.390365
 41
-3.32112
 42
-3.14144
  0
SPLINE
  5
B1B
330
A02
100
AcDbEntity
  8
ProjItem002
100
AcDbSpline
210
0
220
0
230
1
 70
8
 71
2
 72
8
 73
5
 74
0
 40
9.83449
 40
9.83449
 40
9.83449
 40
10.0772
 40
10.0772
 40
10.8388
 40
10.8388
 40
10.8388
 10
74.4148
 20
180.867
 30
0
 10
73.6846
 20
180.219
 30
0
 10
72.9852
 20
179.623
 30
0
 10
70.7867
 20
177.754
 30
0
 10
68.8437
 20
176.342
 30
0
  0
ELLIPSE
  5
B1C
330
A02
100
AcDbEntity
  8
ProjItem002
100
AcDbEllipse
 10
48.8437
 20
158.759
 30
0
 11
-1.41335
 21
-19.95
 31
0
 40
0.390365
 41
3.13418
 42
3.14141
  0
ELLIPSE
  5
B1D
330
A02
100
AcDbEntity
  8
ProjItem002
100
AcDbEllipse
 10
48.8437
 20
158.759
 30
0
 11
-1.41335
 21
-19.95
 31
0
 40
0.390365
 41
3.14144
 42
3.32112
  0
SPLINE
  5
B1E
330
A02
100
AcDbEntity
  8
ProjItem002
100
AcDbSpline
210
0
220
0
230
1
 70
8
 71
3
 72
11
 73
7
 74
0
 40
1.47389
 40
1.47389
 40
1.47389
 40
1.47389
 40
1.7884
 40
1.7884
 40
1.7884
 40
2.4786
 40
2.4786
 40
2.4786
 40
2.4786
 10
48.8437
 20
176.341
 30
0
 10
48.3066
 20
176.732
 30
0
 10
47.7558
 20
177.149
 30
0
 10
47.1914
 20
177.59
 30
0
 10
45.9532
 20
178.558
 30
0
 10
44.6588
 20
179.636
 30
0
 10
43.2714
 20
180.868
 30
0
  0
LINE
  5
B1F
330
A02
100
AcDbEntity
  8
ProjItem002
100
AcDbLine
 10
83.7733
 20
196.85
 30
0
 11
83.671
 21
196.85
 31
0
  0
SPLINE
  5
B20
330
A02
100
AcDbEntity
  8
ProjItem002
100
AcDbSpline
210
0
220
0
230
1
 70
8
 71
1
 72
4
 73
2
 74
0
 40
0
 40
0
 40
1
 40
1
 10
83.8437
 20
203.209
 30
0
 10
83.8436
 20
203.163
 30
0
  0
SPLINE
  5
B21
330
A02
100
AcDbEntity
  8
ProjItem002
100
AcDbSpline
210
0
220
0
230
1
 70
8
 71
3
 72
11
 73
7
 74
0
 40
0
 40
0
 40
0
 40
0
 40
0.430026
 40
0.430026
 40
0.430026
 40
1
 40
1
 40
1
 40
1
 10
86.8437
 20
239.865
 30
0
 10
86.1677
 20
239.867
 30
0
 10
85.4944
 20
239.631
 30
0
 10
84.968
 20
239.207
 30
0
 10
84.2644
 20
238.65
 30
0
 10
83.8384
 20
237.763
 30
0
 10
83.8437
 20
236.865
 30
0
  0
SPLINE
  5
B22
330
A02
100
AcDbEntity
  8
ProjItem002
100
AcDbSpline
210
0
220
0
230
1
 70
8
 71
3
 72
11
 73
7
 74
0
 40
0
 40
0
 40
0
 40
0
 40
0.565036
 40
0.565036
 40
0.565036
 40
1
 40
1
 40
1
 40
1
 10
30.8437
 20
239.598
 30
0
 10
31.7332
 20
239.603
 30
0
 10
32.6126
 20
239.185
 30
0
 10
33.1702
 20
238.492
 30
0
 10
33.6034
 20
237.963
 30
0
 10
33.8456
 20
237.282
 30
0
 10
33.8437
 20
236.598
 30
0
  0
SPLINE
  5
B23
330
A02
100
AcDbEntity
  8
ProjItem002
100
AcDbSpline
210
0
220
0
230
1
 70
8
 71
1
 72
4
 73
2
 74
0
 40
0
 40
0
 40
1
 40
1
 10
33.8437
 20
203.209
 30
0
 10
33.8438
 20
203.163
 30
0
  0
SPLINE
  5
B24
330
A02
100
AcDbEntity
  8
ProjItem002
100
AcDbSpline
210
0
220
0
230
1
 70
8
 71
2
 72
8
 73
5
 74
0
 40
0
 40
0
 40
0
 40
0.427503
 40
0.427503
 40
1
 40
1
 40
1
 10
33.8438
 20
203.163
 30
0
 10
33.8448
 20
202.773
 30
0
 10
33.8747
 20
202.338
 30
0
 10
33.9146
 20
201.757
 30
0
 10
34.0146
 20
201.118
 30
0
  0
SPLINE
  5
B25
330
A02
100
AcDbEntity
  8
ProjItem002
100
AcDbSpline
210
0
220
0
230
1
 70
8
 71
3
 72
17
 73
13
 74
0
 40
0
 40
0
 40
0
 40
0
 40
0.308949
 40
0.308949
 40
0.308949
 40
0.614882
 40
0.614882
 40
0.614882
 40
0.807441
 40
0.807441
 40
0.807441
 40
1
 40
1
 40
1
 40
1
 10
34.0146
 20
201.118
 30
0
 10
34.1878
 20
200.016
 30
0
 10
34.4925
 20
198.981
 30
0
 10
34.8998
 20
198.028
 30
0
 10
35.3049
 20
197.086
 30
0
 10
35.8066
 20
196.213
 30
0
 10
36.4051
 20
195.41
 30
0
 10
37.4574
 20
193.994
 30
0
 10
38.8148
 20
192.763
 30
0
 10
40.4333
 20
191.76
 30
0
 10
41.6983
 20
190.975
 30
0
 10
43.131
 20
190.342
 30
0
 10
44.629
 20
189.903
 30
0
  0
SPLINE
  5
B26
330
A02
100
AcDbEntity
  8
ProjItem002
100
AcDbSpline
210
0
220
0
230
1
 70
8
 71
3
 72
8
 73
4
 74
0
 40
0
 40
0
 40
0
 40
0
 40
1
 40
1
 40
1
 40
1
 10
44.629
 20
189.903
 30
0
 10
45.9955
 20
189.502
 30
0
 10
47.4195
 20
189.297
 30
0
 10
48.8437
 20
189.297
 30
0
  0
LINE
  5
B27
330
A02
100
AcDbEntity
  8
ProjItem002
100
AcDbLine
 10
48.8437
 20
189.298
 30
0
 11
68.8437
 21
189.298
 31
0
  0
SPLINE
  5
B28
330
A02
100
AcDbEntity
  8
ProjItem002
100
AcDbSpline
210
0
220
0
230
1
 70
8
 71
3
 72
8
 73
4
 74
0
 40
0
 40
0
 40
0
 40
0
 40
1
 40
1
 40
1
 40
1
 10
68.8437
 20
189.297
 30
0
 10
70.2679
 20
189.297
 30
0
 10
71.6919
 20
189.502
 30
0
 10
73.0584
 20
189.903
 30
0
  0
SPLINE
  5
B29
330
A02
100
AcDbEntity
  8
ProjItem002
100
AcDbSpline
210
0
220
0
230
1
 70
8
 71
3
 72
17
 73
13
 74
0
 40
0
 40
0
 40
0
 40
0
 40
0.287676
 40
0.287676
 40
0.287676
 40
0.575352
 40
0.575352
 40
0.575352
 40
0.863028
 40
0.863028
 40
0.863028
 40
1
 40
1
 40
1
 40
1
 10
73.0584
 20
189.903
 30
0
 10
74.641
 20
190.368
 30
0
 10
76.148
 20
191.051
 30
0
 10
77.4685
 20
191.895
 30
0
 10
78.8317
 20
192.767
 30
0
 10
79.9969
 20
193.806
 30
0
 10
80.9478
 20
194.98
 30
0
 10
81.8865
 20
196.142
 30
0
 10
82.6229
 20
197.437
 30
0
 10
83.1266
 20
198.907
 30
0
 10
83.3677
 20
199.609
 30
0
 10
83.5498
 20
200.346
 30
0
 10
83.6728
 20
201.118
 30
0
  0
SPLINE
  5
B2A
330
A02
100
AcDbEntity
  8
ProjItem002
100
AcDbSpline
210
0
220
0
230
1
 70
8
 71
2
 72
8
 73
5
 74
0
 40
0
 40
0
 40
0
 40
0.5725
 40
0.5725
 40
1
 40
1
 40
1
 10
83.6728
 20
201.118
 30
0
 10
83.7728
 20
201.757
 30
0
 10
83.8127
 20
202.338
 30
0
 10
83.8426
 20
202.773
 30
0
 10
83.8436
 20
203.163
 30
0
  0
LINE
  5
B2B
330
A02
100
AcDbEntity
  8
ProjItem002
100
AcDbLine
 10
103.844
 20
169.839
 30
0
 11
103.844
 21
196.56
 31
0
  0
LINE
  5
B2C
330
A02
100
AcDbEntity
  8
ProjItem002
100
AcDbLine
 10
13.8437
 20
169.839
 30
0
 11
13.8437
 21
231.042
 31
0
  0
SPLINE
  5
B2D
330
A02
100
AcDbEntity
  8
ProjItem002
100
AcDbSpline
210
0
220
0
230
1
 70
8
 71
3
 72
17
 73
13
 74
0
 40
0
 40
0
 40
0
 40
0
 40
0.166667
 40
0.166667
 40
0.166667
 40
0.333333
 40
0.333333
 40
0.333333
 40
0.666667
 40
0.666667
 40
0.666667
 40
1
 40
1
 40
1
 40
1
 10
21.0505
 20
239.328
 30
0
 10
19.996
 20
239.085
 30
0
 10
18.9998
 20
238.742
 30
0
 10
18.0679
 20
238.237
 30
0
 10
17.1382
 20
237.735
 30
0
 10
16.2595
 20
237.049
 30
0
 10
15.571
 20
236.195
 30
0
 10
14.8997
 20
235.37
 30
0
 10
14.4051
 20
234.37
 30
0
 10
14.1358
 20
233.348
 30
0
 10
13.9293
 20
232.574
 30
0
 10
13.8442
 20
231.798
 30
0
 10
13.8444
 20
231.043
 30
0
  0
SPLINE
  5
B2E
330
A02
100
AcDbEntity
  8
ProjItem002
100
AcDbSpline
210
0
220
0
230
1
 70
8
 71
3
 72
8
 73
4
 74
0
 40
0
 40
0
 40
0
 40
0
 40
1
 40
1
 40
1
 40
1
 10
21.3067
 20
239.388
 30
0
 10
21.7186
 20
239.519
 30
0
 10
22.1688
 20
239.598
 30
0
 10
22.6261
 20
239.598
 30
0
  0
SPLINE
  5
B2F
330
A02
100
AcDbEntity
  8
ProjItem002
100
AcDbSpline
210
0
220
0
230
1
 70
8
 71
3
 72
8
 73
4
 74
0
 40
0
 40
0
 40
0
 40
0
 40
1
 40
1
 40
1
 40
1
 10
21.0505
 20
239.328
 30
0
 10
21.1946
 20
239.361
 30
0
 10
21.2898
 20
239.389
 30
0
 10
21.2911
 20
239.389
 30
0
  0
SPLINE
  5
B30
330
A02
100
AcDbEntity
  8
ProjItem002
100
AcDbSpline
210
0
220
0
230
1
 70
8
 71
1
 72
4
 73
2
 74
0
 40
0
 40
0
 40
1
 40
1
 10
21.2911
 20
239.389
 30
0
 10
21.291
 20
239.389
 30
0
  0
LINE
  5
B31
330
A02
100
AcDbEntity
  8
ProjItem002
100
AcDbLine
 10
30.8437
 20
239.598
 30
0
 11
22.6271
 21
239.598
 31
0
  0
SPLINE
  5
B32
330
A02
100
AcDbEntity
  8
ProjItem002
100
AcDbSpline
210
0
220
0
230
1
 70
8
 71
3
 72
20
 73
16
 74
0
 40
0
 40
0
 40
0
 40
0
 40
0.25
 40
0.25
 40
0.25
 40
0.5
 40
0.5
 40
0.5
 40
0.625
 40
0.625
 40
0.625
 40
0.75
 40
0.75
 40
0.75
 40
1
 40
1
 40
1
 40
1
 10
103.844
 20
231.037
 30
0
 10
103.844
 20
231.864
 30
0
 10
103.74
 20
232.713
 30
0
 10
103.493
 20
233.55
 30
0
 10
103.248
 20
234.386
 30
0
 10
102.853
 20
235.203
 30
0
 10
102.332
 20
235.914
 30
0
 10
101.934
 20
236.461
 30
0
 10
101.45
 20
236.961
 30
0
 10
100.917
 20
237.385
 30
0
 10
100.385
 20
237.81
 30
0
 10
99.8124
 20
238.158
 30
0
 10
99.2209
 20
238.443
 30
0
 10
98.0354
 20
239.013
 30
0
 10
96.7626
 20
239.351
 30
0
 10
95.4008
 20
239.564
 30
0
  0
SPLINE
  5
B33
330
A02
100
AcDbEntity
  8
ProjItem002
100
AcDbSpline
210
0
220
0
230
1
 70
8
 71
3
 72
8
 73
4
 74
0
 40
0
 40
0
 40
0
 40
0
 40
1
 40
1
 40
1
 40
1
 10
90.7715
 20
239.865
 30
0
 10
92.4363
 20
239.864
 30
0
 10
93.9637
 20
239.785
 30
0
 10
95.3961
 20
239.564
 30
0
  0
LINE
  5
B34
330
A02
100
AcDbEntity
  8
ProjItem002
100
AcDbLine
 10
86.8437
 20
239.865
 30
0
 11
90.773
 21
239.865
 31
0
  0
LINE
  5
B35
330
A02
100
AcDbEntity
  8
ProjItem002
100
AcDbLine
 10
23.5937
 20
159.839
 30
0
 11
21.5937
 21
161.839
 31
0
  0
LINE
  5
B36
330
A02
100
AcDbEntity
  8
ProjItem002
100
AcDbLine
 10
96.0937
 20
169.839
 30
0
 11
96.0937
 21
161.839
 31
0
  0
SPLINE
  5
B37
330
A02
100
AcDbEntity
  8
ProjItem002
100
AcDbSpline
210
0
220
0
230
1
 70
8
 71
2
 72
6
 73
3
 74
0
 40
0
 40
0
 40
0
 40
0.141786
 40
0.141786
 40
0.141786
 10
38.844
 20
184.839
 30
0
 10
38.7951
 20
184.942
 30
0
 10
38.7491
 20
185.034
 30
0
  0
SPLINE
  5
B38
330
A02
100
AcDbEntity
  8
ProjItem002
100
AcDbSpline
210
0
220
0
230
1
 70
8
 71
3
 72
11
 73
7
 74
0
 40
0
 40
0
 40
0
 40
0
 40
0.5
 40
0.5
 40
0.5
 40
1
 40
1
 40
1
 40
1
 10
38.374
 20
185.713
 30
0
 10
38.373
 20
185.711
 30
0
 10
38.4121
 20
185.659
 30
0
 10
38.4912
 20
185.557
 30
0
 10
38.5725
 20
185.457
 30
0
 10
38.6931
 20
185.309
 30
0
 10
38.923
 20
185.085
 30
0
  0
SPLINE
  5
B39
330
A02
100
AcDbEntity
  8
ProjItem002
100
AcDbSpline
210
0
220
0
230
1
 70
8
 71
2
 72
6
 73
3
 74
0
 40
0
 40
0
 40
0
 40
0.176295
 40
0.176295
 40
0.176295
 10
78.8435
 20
184.839
 30
0
 10
78.8923
 20
184.942
 30
0
 10
78.9382
 20
185.034
 30
0
  0
SPLINE
  5
B3A
330
A02
100
AcDbEntity
  8
ProjItem002
100
AcDbSpline
210
0
220
0
230
1
 70
8
 71
1
 72
4
 73
2
 74
0
 40
0.980912
 40
0.980912
 40
1
 40
1
 10
79.3104
 20
185.708
 30
0
 10
79.3107
 20
185.709
 30
0
  0
SPLINE
  5
B3B
330
A02
100
AcDbEntity
  8
ProjItem002
100
AcDbSpline
210
0
220
0
230
1
 70
8
 71
3
 72
14
 73
10
 74
0
 40
0
 40
0
 40
0
 40
0
 40
0.5
 40
0.5
 40
0.5
 40
0.75
 40
0.75
 40
0.75
 40
1
 40
1
 40
1
 40
1
 10
79.3107
 20
185.709
 30
0
 10
79.3098
 20
185.708
 30
0
 10
79.2785
 20
185.66
 30
0
 10
79.1995
 20
185.561
 30
0
 10
79.1604
 20
185.511
 30
0
 10
79.1065
 20
185.448
 30
0
 10
79.0378
 20
185.37
 30
0
 10
78.9677
 20
185.291
 30
0
 10
78.883
 20
185.2
 30
0
 10
78.7645
 20
185.085
 30
0
  0
SPLINE
  5
B3C
330
A02
100
AcDbEntity
  8
ProjItem002
100
AcDbSpline
210
0
220
0
230
1
 70
8
 71
2
 72
8
 73
5
 74
0
 40
0
 40
0
 40
0
 40
0.5
 40
0.5
 40
1
 40
1
 40
1
 10
39.1799
 20
184.839
 30
0
 10
39.1206
 20
184.896
 30
0
 10
39.0209
 20
184.991
 30
0
 10
38.9751
 20
185.035
 30
0
 10
38.9227
 20
185.085
 30
0
  0
SPLINE
  5
B3D
330
A02
100
AcDbEntity
  8
ProjItem002
100
AcDbSpline
210
0
220
0
230
1
 70
8
 71
2
 72
6
 73
3
 74
0
 40
0
 40
0
 40
0
 40
1
 40
1
 40
1
 10
78.5074
 20
184.839
 30
0
 10
78.5944
 20
184.922
 30
0
 10
78.7645
 20
185.085
 30
0
  0
SPLINE
  5
B3E
330
A02
100
AcDbEntity
  8
ProjItem002
100
AcDbSpline
210
0
220
0
230
1
 70
8
 71
3
 72
26
 73
22
 74
0
 40
0
 40
0
 40
0
 40
0
 40
0.125
 40
0.125
 40
0.125
 40
0.25
 40
0.25
 40
0.25
 40
0.5
 40
0.5
 40
0.5
 40
0.625
 40
0.625
 40
0.625
 40
0.75
 40
0.75
 40
0.75
 40
0.875
 40
0.875
 40
0.875
 40
1
 40
1
 40
1
 40
1
 10
67.4287
 20
178.708
 30
0
 10
67.8246
 20
178.737
 30
0
 10
68.1997
 20
178.783
 30
0
 10
68.5538
 20
178.846
 30
0
 10
68.9052
 20
178.907
 30
0
 10
69.247
 20
178.984
 30
0
 10
69.5793
 20
179.074
 30
0
 10
70.3318
 20
179.278
 30
0
 10
71.0587
 20
179.551
 30
0
 10
71.7482
 20
179.871
 30
0
 10
72.3706
 20
180.161
 30
0
 10
72.9833
 20
180.497
 30
0
 10
73.6165
 20
180.894
 30
0
 10
74.2507
 20
181.292
 30
0
 10
74.8946
 20
181.745
 30
0
 10
75.5836
 20
182.283
 30
0
 10
76.0131
 20
182.619
 30
0
 10
76.4632
 20
182.991
 30
0
 10
76.9493
 20
183.415
 30
0
 10
77.4356
 20
183.838
 30
0
 10
77.955
 20
184.313
 30
0
 10
78.5077
 20
184.839
 30
0
  0
SPLINE
  5
B3F
330
A02
100
AcDbEntity
  8
ProjItem002
100
AcDbSpline
210
0
220
0
230
1
 70
8
 71
3
 72
11
 73
7
 74
0
 40
0
 40
0
 40
0
 40
0
 40
0.429923
 40
0.429923
 40
0.429923
 40
1
 40
1
 40
1
 40
1
 10
67.4289
 20
178.708
 30
0
 10
65.1575
 20
178.547
 30
0
 10
62.6407
 20
178.448
 30
0
 10
60.092
 20
178.424
 30
0
 10
56.7128
 20
178.392
 30
0
 10
53.2707
 20
178.494
 30
0
 10
50.2585
 20
178.708
 30
0
  0
SPLINE
  5
B40
330
A02
100
AcDbEntity
  8
ProjItem002
100
AcDbSpline
210
0
220
0
230
1
 70
8
 71
3
 72
20
 73
16
 74
0
 40
0
 40
0
 40
0
 40
0
 40
0.2
 40
0.2
 40
0.2
 40
0.4
 40
0.4
 40
0.4
 40
0.6
 40
0.6
 40
0.6
 40
0.8
 40
0.8
 40
0.8
 40
1
 40
1
 40
1
 40
1
 10
50.2587
 20
178.708
 30
0
 10
49.2292
 20
178.783
 30
0
 10
48.3025
 20
178.992
 30
0
 10
47.4537
 20
179.27
 30
0
 10
46.4613
 20
179.597
 30
0
 10
45.4913
 20
180.051
 30
0
 10
44.5379
 20
180.609
 30
0
 10
44.0197
 20
180.913
 30
0
 10
43.4981
 20
181.254
 30
0
 10
42.9449
 20
181.652
 30
0
 10
42.1908
 20
182.195
 30
0
 10
41.3995
 20
182.826
 30
0
 10
40.489
 20
183.633
 30
0
 10
40.0754
 20
183.999
 30
0
 10
39.6389
 20
184.401
 30
0
 10
39.1794
 20
184.839
 30
0
  0
LINE
  5
B41
330
A02
100
AcDbEntity
  8
ProjItem002
100
AcDbLine
 10
69.5122
 20
175.508
 30
0
 11
78.8437
 21
184.839
 31
0
  0
LINE
  5
B42
330
A02
100
AcDbEntity
  8
ProjItem002
100
AcDbLine
 10
48.1753
 20
175.507
 30
0
 11
38.8437
 21
184.839
 31
0
  0
LINE
  5
B43
330
A02
100
AcDbEntity
  8
ProjItem002
100
AcDbLine
 10
83.8437
 20
197.609
 30
0
 11
83.8189
 21
197.609
 31
0
  0
LINE
  5
B44
330
A02
100
AcDbEntity
  8
ProjItem002
100
AcDbLine
 10
83.8437
 20
194.496
 30
0
 11
83.4336
 21
194.496
 31
0
  0
LINE
  5
B45
330
A02
100
AcDbEntity
  8
ProjItem002
100
AcDbLine
 10
103.844
 20
223.118
 30
0
 11
103.844
 21
231.044
 31
0
  0
SPLINE
  5
B46
330
A02
100
AcDbEntity
  8
ProjItem002
100
AcDbSpline
210
0
220
0
230
1
 70
8
 71
1
 72
4
 73
2
 74
0
 40
5.76849
 40
5.76849
 40
5.77201
 40
5.77201
 10
86.8437
 20
239.865
 30
0
 10
86.8437
 20
239.865
 30
0
  0
SPLINE
  5
B47
330
A02
100
AcDbEntity
  8
ProjItem002
100
AcDbSpline
210
0
220
0
230
1
 70
8
 71
1
 72
17
 73
15
 74
0
 40
5.76134
 40
5.76134
 40
5.83589
 40
5.91044
 40
5.98499
 40
6.05954
 40
6.13409
 40
6.20864
 40
6.28319
 40
6.35773
 40
6.43228
 40
6.50683
 40
6.58138
 40
6.65593
 40
6.73048
 40
6.80503
 40
6.80503
 10
86.8437
 20
237.365
 30
0
 10
86.8437
 20
237.681
 30
0
 10
86.8437
 20
237.98
 30
0
 10
86.8437
 20
238.263
 30
0
 10
86.8437
 20
238.527
 30
0
 10
86.8437
 20
238.77
 30
0
 10
86.8437
 20
238.992
 30
0
 10
86.8437
 20
239.191
 30
0
 10
86.8437
 20
239.365
 30
0
 10
86.8437
 20
239.515
 30
0
 10
86.8437
 20
239.639
 30
0
 10
86.8437
 20
239.736
 30
0
 10
86.8437
 20
239.807
 30
0
 10
86.8437
 20
239.85
 30
0
 10
86.8437
 20
239.865
 30
0
  0
ELLIPSE
  5
B48
330
A02
100
AcDbEntity
  8
ProjItem002
100
AcDbEllipse
 10
86.8437
 20
235.865
 30
0
 11
3
 21
-4.82437e-16
 31
0
 40
0.5
 41
-4.71239
 42
-3.14159
  0
LINE
  5
B49
330
A02
100
AcDbEntity
  8
ProjItem002
100
AcDbLine
 10
86.8437
 20
223.92
 30
0
 11
86.8437
 21
237.365
 31
0
  0
LINE
  5
B4A
330
A02
100
AcDbEntity
  8
ProjItem002
100
AcDbLine
 10
88.8437
 20
192.122
 30
0
 11
88.8437
 21
212.303
 31
0
  0
SPLINE
  5
B4B
330
A02
100
AcDbEntity
  8
ProjItem002
100
AcDbSpline
210
0
220
0
230
1
 70
8
 71
1
 72
17
 73
15
 74
0
 40
6.04278
 40
6.04278
 40
6.07712
 40
6.11147
 40
6.14581
 40
6.18015
 40
6.2145
 40
6.24884
 40
6.28319
 40
6.31753
 40
6.35187
 40
6.38622
 40
6.42056
 40
6.4549
 40
6.48925
 40
6.52359
 40
6.52359
 10
68.8437
 20
175.458
 30
0
 10
67.4371
 20
175.405
 30
0
 10
66.0204
 20
175.36
 30
0
 10
64.5953
 20
175.323
 30
0
 10
63.1633
 20
175.294
 30
0
 10
61.7263
 20
175.273
 30
0
 10
60.2859
 20
175.261
 30
0
 10
58.8437
 20
175.257
 30
0
 10
57.4016
 20
175.261
 30
0
 10
55.9611
 20
175.273
 30
0
 10
54.5241
 20
175.294
 30
0
 10
53.0921
 20
175.323
 30
0
 10
51.667
 20
175.36
 30
0
 10
50.2503
 20
175.405
 30
0
 10
48.8437
 20
175.458
 30
0
  0
LINE
  5
B4C
330
A02
100
AcDbEntity
  8
ProjItem002
100
AcDbLine
 10
28.8437
 20
204.696
 30
0
 11
28.8437
 21
192.122
 31
0
  0
ELLIPSE
  5
B4D
330
A02
100
AcDbEntity
  8
ProjItem002
100
AcDbEllipse
 10
30.8437
 20
236.39
 30
0
 11
-3
 21
1.51596e-15
 31
0
 40
0.970316
 41
3.14159
 42
4.71239
  0
SPLINE
  5
B4E
330
A02
100
AcDbEntity
  8
ProjItem002
100
AcDbSpline
210
0
220
0
230
1
 70
8
 71
1
 72
17
 73
15
 74
0
 40
5.61992
 40
5.61992
 40
5.73486
 40
5.8498
 40
5.96474
 40
6.07968
 40
6.19462
 40
6.30956
 40
6.4245
 40
6.53944
 40
6.65438
 40
6.76932
 40
6.88426
 40
6.9992
 40
7.11414
 40
7.22908
 40
7.22908
 10
30.8437
 20
239.301
 30
0
 10
30.8437
 20
238.619
 30
0
 10
30.8437
 20
237.689
 30
0
 10
30.8437
 20
236.524
 30
0
 10
30.8437
 20
235.14
 30
0
 10
30.8437
 20
233.554
 30
0
 10
30.8437
 20
231.788
 30
0
 10
30.8437
 20
229.866
 30
0
 10
30.8437
 20
227.811
 30
0
 10
30.8437
 20
225.653
 30
0
 10
30.8437
 20
223.418
 30
0
 10
30.8437
 20
221.137
 30
0
 10
30.8437
 20
218.839
 30
0
 10
30.8437
 20
216.555
 30
0
 10
30.8437
 20
214.315
 30
0
  0
SPLINE
  5
B4F
330
A02
100
AcDbEntity
  8
ProjItem002
100
AcDbSpline
210
0
220
0
230
1
 70
8
 71
2
 72
6
 73
3
 74
0
 40
6.2064
 40
6.2064
 40
6.2064
 40
6.45066
 40
6.45066
 40
6.45066
 10
30.8437
 20
239.598
 30
0
 10
30.8437
 20
239.597
 30
0
 10
30.8437
 20
239.301
 30
0
  0
SPLINE
  5
B50
330
A02
100
AcDbEntity
  8
ProjItem002
100
AcDbSpline
210
0
220
0
230
1
 70
8
 71
3
 72
8
 73
4
 74
0
 40
2.26188e-12
 40
2.26188e-12
 40
2.26188e-12
 40
2.26188e-12
 40
0.512873
 40
0.512873
 40
0.512873
 40
0.512873
 10
44.6185
 20
189.867
 30
0
 10
45.9879
 20
189.463
 30
0
 10
47.4157
 20
189.257
 30
0
 10
48.8437
 20
189.257
 30
0
  0
SPLINE
  5
B51
330
A02
100
AcDbEntity
  8
ProjItem002
100
AcDbSpline
210
0
220
0
230
1
 70
8
 71
3
 72
8
 73
4
 74
0
 40
-0.512873
 40
-0.512873
 40
-0.512873
 40
-0.512873
 40
-2.26188e-12
 40
-2.26188e-12
 40
-2.26188e-12
 40
-2.26188e-12
 10
48.8437
 20
186.298
 30
0
 10
47.134
 20
186.298
 30
0
 10
45.4245
 20
186.543
 30
0
 10
43.7841
 20
187.025
 30
0
  0
SPLINE
  5
B52
330
A02
100
AcDbEntity
  8
ProjItem002
100
AcDbSpline
210
0
220
0
230
1
 70
8
 71
2
 72
6
 73
3
 74
0
 40
0
 40
0
 40
0
 40
0.163941
 40
0.163941
 40
0.163941
 10
48.8437
 20
189.257
 30
0
 10
48.8437
 20
189.297
 30
0
 10
48.8437
 20
189.298
 30
0
  0
SPLINE
  5
B53
330
A02
100
AcDbEntity
  8
ProjItem002
100
AcDbSpline
210
0
220
0
230
1
 70
8
 71
2
 72
6
 73
3
 74
0
 40
0
 40
0
 40
0
 40
0.163941
 40
0.163941
 40
0.163941
 10
68.8437
 20
189.257
 30
0
 10
68.8437
 20
189.297
 30
0
 10
68.8437
 20
189.298
 30
0
  0
LINE
  5
B54
330
A02
100
AcDbEntity
  8
ProjItem002
100
AcDbLine
 10
48.8437
 20
189.257
 30
0
 11
68.8437
 21
189.257
 31
0
  0
SPLINE
  5
B55
330
A02
100
AcDbEntity
  8
ProjItem002
100
AcDbSpline
210
0
220
0
230
1
 70
8
 71
3
 72
8
 73
4
 74
0
 40
0
 40
0
 40
0
 40
0
 40
0.512874
 40
0.512874
 40
0.512874
 40
0.512874
 10
68.8437
 20
189.257
 30
0
 10
70.2716
 20
189.257
 30
0
 10
71.6995
 20
189.463
 30
0
 10
73.0689
 20
189.867
 30
0
  0
SPLINE
  5
B56
330
A02
100
AcDbEntity
  8
ProjItem002
100
AcDbSpline
210
0
220
0
230
1
 70
8
 71
3
 72
8
 73
4
 74
0
 40
-0.512874
 40
-0.512874
 40
-0.512874
 40
-0.512874
 40
0
 40
0
 40
0
 40
0
 10
73.9033
 20
187.025
 30
0
 10
72.2629
 20
186.543
 30
0
 10
70.5533
 20
186.298
 30
0
 10
68.8437
 20
186.298
 30
0
  0
LINE
  5
B57
330
A02
100
AcDbEntity
  8
ProjItem002
100
AcDbLine
 10
86.8437
 20
237.365
 30
0
 11
89.3437
 21
237.365
 31
0
  0
LINE
  5
B58
330
A02
100
AcDbEntity
  8
ProjItem002
100
AcDbLine
 10
90.5706
 20
239.865
 30
0
 11
86.8437
 21
239.865
 31
0
  0
SPLINE
  5
B59
330
A02
100
AcDbEntity
  8
ProjItem002
100
AcDbSpline
210
0
220
0
230
1
 70
8
 71
1
 72
4
 73
2
 74
0
 40
-0.0395235
 40
-0.0395235
 40
-2.90046e-15
 40
-2.90046e-15
 10
89.3437
 20
224.174
 30
0
 10
88.9495
 20
224.15
 30
0
  0
SPLINE
  5
B5A
330
A02
100
AcDbEntity
  8
ProjItem002
100
AcDbSpline
210
0
220
0
230
1
 70
8
 71
2
 72
6
 73
3
 74
0
 40
0
 40
0
 40
0
 40
0.212308
 40
0.212308
 40
0.212308
 10
88.9495
 20
224.15
 30
0
 10
87.8906
 20
224.077
 30
0
 10
86.8437
 20
223.92
 30
0
  0
ELLIPSE
  5
B5B
330
A02
100
AcDbEntity
  8
ProjItem002
100
AcDbEllipse
 10
88.9495
 20
221.65
 30
0
 11
-0.342996
 21
4.98822
 31
0
 40
0.0395747
 41
3.75084
 42
5.23463
  0
LINE
  5
B5C
330
A02
100
AcDbEntity
  8
ProjItem002
100
AcDbLine
 10
18.3437
 20
215.404
 30
0
 11
18.3437
 21
195.278
 31
0
  0
LINE
  5
B5D
330
A02
100
AcDbEntity
  8
ProjItem002
100
AcDbLine
 10
18.3437
 20
235.43
 30
0
 11
18.3437
 21
224.383
 31
0
  0
LINE
  5
B5E
330
A02
100
AcDbEntity
  8
ProjItem002
100
AcDbLine
 10
22.8293
 20
239.301
 30
0
 11
30.8437
 21
239.301
 31
0
  0
SPLINE
  5
B5F
330
A02
100
AcDbEntity
  8
ProjItem002
100
AcDbSpline
210
0
220
0
230
1
 70
8
 71
1
 72
17
 73
15
 74
0
 40
5.33407
 40
5.33407
 40
5.48414
 40
5.63422
 40
5.7843
 40
5.93437
 40
6.08445
 40
6.23452
 40
6.3846
 40
6.53467
 40
6.68475
 40
6.83482
 40
6.9849
 40
7.13498
 40
7.28505
 40
7.43513
 40
7.43513
 10
22.8437
 20
205.441
 30
0
 10
22.8437
 20
207.671
 30
0
 10
22.8437
 20
210.175
 30
0
 10
22.8437
 20
212.898
 30
0
 10
22.8437
 20
215.779
 30
0
 10
22.8437
 20
218.751
 30
0
 10
22.8437
 20
221.75
 30
0
 10
22.8437
 20
224.707
 30
0
 10
22.8437
 20
227.555
 30
0
 10
22.8437
 20
230.232
 30
0
 10
22.8437
 20
232.675
 30
0
 10
22.8437
 20
234.832
 30
0
 10
22.8437
 20
236.653
 30
0
 10
22.8437
 20
238.097
 30
0
 10
22.8437
 20
239.131
 30
0
  0
LINE
  5
B60
330
A02
100
AcDbEntity
  8
ProjItem002
100
AcDbLine
 10
48.8437
 20
189.257
 30
0
 11
48.8437
 21
186.087
 31
0
  0
SPLINE
  5
B61
330
A02
100
AcDbEntity
  8
ProjItem002
100
AcDbSpline
210
0
220
0
230
1
 70
8
 71
3
 72
14
 73
10
 74
0
 40
5.92224
 40
5.92224
 40
5.92224
 40
5.92224
 40
6.22359
 40
6.22359
 40
6.22359
 40
6.82629
 40
6.82629
 40
6.82629
 40
8.03167
 40
8.03167
 40
8.03167
 40
8.03167
 10
68.8437
 20
186.087
 30
0
 10
68.0178
 20
186.181
 30
0
 10
67.1275
 20
186.262
 30
0
 10
66.2046
 20
186.33
 30
0
 10
64.3588
 20
186.465
 30
0
 10
62.3826
 20
186.545
 30
0
 10
60.3703
 20
186.572
 30
0
 10
56.3457
 20
186.627
 30
0
 10
52.1769
 20
186.467
 30
0
 10
48.8437
 20
186.087
 30
0
  0
LINE
  5
B62
330
A02
100
AcDbEntity
  8
ProjItem002
100
AcDbLine
 10
68.8437
 20
189.257
 30
0
 11
68.8437
 21
186.087
 31
0
  0
LINE
  5
B63
330
A02
100
AcDbEntity
  8
ProjItem002
100
AcDbLine
 10
68.8437
 20
178.487
 30
0
 11
68.8437
 21
175.458
 31
0
  0
LINE
  5
B64
330
A02
100
AcDbEntity
  8
ProjItem002
100
AcDbLine
 10
48.8437
 20
178.487
 30
0
 11
48.8437
 21
175.458
 31
0
  0
ELLIPSE
  5
B65
330
A02
100
AcDbEntity
  8
ProjItem002
100
AcDbEllipse
 10
94.7926
 20
235.611
 30
0
 11
-0.611826
 21
-3.95293
 31
0
 40
0.874384
 41
-3.13912
 42
-3.11401
  0
ELLIPSE
  5
B66
330
A02
100
AcDbEntity
  8
ProjItem002
100
AcDbEllipse
 10
94.7926
 20
235.611
 30
0
 11
-0.611826
 21
-3.95293
 31
0
 40
0.874384
 41
-4.57787
 42
-3.14067
  0
LINE
  5
B67
330
A02
100
AcDbEntity
  8
ProjItem002
100
AcDbLine
 10
98.3067
 20
210.298
 30
0
 11
97.0376
 21
210.298
 31
0
  0
LINE
  5
B68
330
A02
100
AcDbEntity
  8
ProjItem002
100
AcDbLine
 10
83.4837
 20
194.63
 30
0
 11
83.8437
 21
194.63
 31
0
  0
SPLINE
  5
B69
330
A02
100
AcDbEntity
  8
ProjItem002
100
AcDbSpline
210
0
220
0
230
1
 70
8
 71
1
 72
17
 73
15
 74
0
 40
5.8863
 40
5.8863
 40
5.943
 40
5.9997
 40
6.0564
 40
6.11309
 40
6.16979
 40
6.22649
 40
6.28319
 40
6.33988
 40
6.39658
 40
6.45328
 40
6.50998
 40
6.56667
 40
6.62337
 40
6.68007
 40
6.68007
 10
48.8437
 20
178.487
 30
0
 10
50.2118
 20
178.398
 30
0
 10
51.6077
 20
178.321
 30
0
 10
53.0268
 20
178.259
 30
0
 10
54.4646
 20
178.21
 30
0
 10
55.9164
 20
178.175
 30
0
 10
57.3777
 20
178.154
 30
0
 10
58.8437
 20
178.147
 30
0
 10
60.3097
 20
178.154
 30
0
 10
61.771
 20
178.175
 30
0
 10
63.2229
 20
178.21
 30
0
 10
64.6606
 20
178.259
 30
0
 10
66.0798
 20
178.321
 30
0
 10
67.4756
 20
178.398
 30
0
 10
68.8437
 20
178.487
 30
0
  0
LINE
  5
B6A
330
A02
100
AcDbEntity
  8
ProjItem002
100
AcDbLine
 10
83.7942
 20
197.109
 30
0
 11
83.8437
 21
197.109
 31
0
  0
LINE
  5
B6B
330
A02
100
AcDbEntity
  8
ProjItem002
100
AcDbLine
 10
83.8437
 20
194.996
 30
0
 11
83.5139
 21
194.996
 31
0
  0
LINE
  5
B6C
330
A02
100
AcDbEntity
  8
ProjItem002
100
AcDbLine
 10
83.8159
 20
197.475
 30
0
 11
83.8048
 21
197.475
 31
0
  0
LINE
  5
B6D
330
A02
100
AcDbEntity
  8
ProjItem002
100
AcDbLine
 10
58.8437
 20
178.418
 30
0
 11
58.8437
 21
184.839
 31
0
  0
ELLIPSE
  5
B6E
330
A02
100
AcDbEntity
  8
ProjItem003
100
AcDbEllipse
 10
121.668
 20
117.926
 30
0
 11
3.67394e-16
 21
-3
 31
0
 40
0.866025
 41
-1.5708
 42
-0.640422
  0
SPLINE
  5
B6F
330
A02
100
AcDbEntity
  8
ProjItem003
100
AcDbSpline
210
0
220
0
230
1
 70
8
 71
3
 72
8
 73
4
 74
0
 40
-0.273497
 40
-0.273497
 40
-0.273497
 40
-0.273497
 40
-0.108264
 40
-0.108264
 40
-0.108264
 40
-0.108264
 10
120.041
 20
118.466
 30
0
 10
119.024
 20
118.43
 30
0
 10
118.421
 20
118.325
 30
0
 10
118.405
 20
118.196
 30
0
  0
SPLINE
  5
B70
330
A02
100
AcDbEntity
  8
ProjItem003
100
AcDbSpline
210
0
220
0
230
1
 70
8
 71
3
 72
11
 73
7
 74
0
 40
0
 40
0
 40
0
 40
0
 40
0.374442
 40
0.374442
 40
0.374442
 40
0.873699
 40
0.873699
 40
0.873699
 40
0.873699
 10
123.587
 20
119.926
 30
0
 10
123.466
 20
119.79
 30
0
 10
123.091
 20
119.596
 30
0
 10
122.592
 20
119.382
 30
0
 10
121.925
 20
119.098
 30
0
 10
121.036
 20
118.78
 30
0
 10
120.041
 20
118.466
 30
0
  0
SPLINE
  5
B71
330
A02
100
AcDbEntity
  8
ProjItem003
100
AcDbSpline
210
0
220
0
230
1
 70
8
 71
3
 72
8
 73
4
 74
0
 40
-3.0948
 40
-3.0948
 40
-3.0948
 40
-3.0948
 40
-2.11616
 40
-2.11616
 40
-2.11616
 40
-2.11616
 10
113.422
 20
100.64
 30
0
 10
114.254
 20
104.032
 30
0
 10
115.486
 20
107.246
 30
0
 10
116.837
 20
109.965
 30
0
  0
SPLINE
  5
B72
330
A02
100
AcDbEntity
  8
ProjItem003
100
AcDbSpline
210
0
220
0
230
1
 70
8
 71
3
 72
8
 73
4
 74
0
 40
-1.99879
 40
-1.99879
 40
-1.99879
 40
-1.99879
 40
-1.53132
 40
-1.53132
 40
-1.53132
 40
-1.53132
 10
117.327
 20
110.923
 30
0
 10
117.984
 20
112.168
 30
0
 10
118.658
 20
113.305
 30
0
 10
119.318
 20
114.326
 30
0
  0
SPLINE
  5
B73
330
A02
100
AcDbEntity
  8
ProjItem003
100
AcDbSpline
210
0
220
0
230
1
 70
8
 71
3
 72
8
 73
4
 74
0
 40
-0.676549
 40
-0.676549
 40
-0.676549
 40
-0.676549
 40
0
 40
0
 40
0
 40
0
 10
122.517
 20
118.684
 30
0
 10
123.162
 20
119.461
 30
0
 10
123.587
 20
119.924
 30
0
 10
123.587
 20
119.926
 30
0
  0
SPLINE
  5
B74
330
A02
100
AcDbEntity
  8
ProjItem003
100
AcDbSpline
210
0
220
0
230
1
 70
8
 71
2
 72
6
 73
3
 74
0
 40
-3.09479
 40
-3.09479
 40
-3.09479
 40
-2.8399
 40
-2.8399
 40
-2.8399
 10
123.587
 20
59.9258
 30
0
 10
123.585
 20
59.9274
 30
0
 10
123.42
 20
60.113
 30
0
  0
SPLINE
  5
B75
330
A02
100
AcDbEntity
  8
ProjItem003
100
AcDbSpline
210
0
220
0
230
1
 70
8
 71
3
 72
8
 73
4
 74
0
 40
-2.8399
 40
-2.8399
 40
-2.8399
 40
-2.8399
 40
-2.51823
 40
-2.51823
 40
-2.51823
 40
-2.51823
 10
123.42
 20
60.113
 30
0
 10
123.283
 20
60.2677
 30
0
 10
123.067
 20
60.5151
 30
0
 10
122.79
 20
60.8415
 30
0
  0
SPLINE
  5
B76
330
A02
100
AcDbEntity
  8
ProjItem003
100
AcDbSpline
210
0
220
0
230
1
 70
8
 71
2
 72
6
 73
3
 74
0
 40
-2.37253
 40
-2.37253
 40
-2.37253
 40
-2.12436
 40
-2.12436
 40
-2.12436
 10
122.381
 20
61.3319
 30
0
 10
122.002
 20
61.79
 30
0
 10
121.555
 20
62.3662
 30
0
  0
SPLINE
  5
B77
330
A02
100
AcDbEntity
  8
ProjItem003
100
AcDbSpline
210
0
220
0
230
1
 70
8
 71
3
 72
8
 73
4
 74
0
 40
-1.68747
 40
-1.68747
 40
-1.68747
 40
-1.68747
 40
-1.10984
 40
-1.10984
 40
-1.10984
 40
-1.10984
 10
119.844
 20
64.7295
 30
0
 10
119.041
 20
65.9158
 30
0
 10
118.197
 20
67.2878
 30
0
 10
117.384
 20
68.821
 30
0
  0
SPLINE
  5
B78
330
A02
100
AcDbEntity
  8
ProjItem003
100
AcDbSpline
210
0
220
0
230
1
 70
8
 71
2
 72
6
 73
3
 74
0
 40
-0.582125
 40
-0.582125
 40
-0.582125
 40
-0.345475
 40
-0.345475
 40
-0.345475
 10
115.271
 20
73.4053
 30
0
 10
114.831
 20
74.5151
 30
0
 10
114.439
 20
75.69
 30
0
  0
SPLINE
  5
B79
330
A02
100
AcDbEntity
  8
ProjItem003
100
AcDbSpline
210
0
220
0
230
1
 70
8
 71
3
 72
8
 73
4
 74
0
 40
-0.344281
 40
-0.344281
 40
-0.344281
 40
-0.344281
 40
-9.71547e-16
 40
-9.71547e-16
 40
-9.71547e-16
 40
-9.71547e-16
 10
114.435
 20
75.7018
 30
0
 10
114.057
 20
76.8403
 30
0
 10
113.715
 20
78.0182
 30
0
 10
113.422
 20
79.2115
 30
0
  0
ELLIPSE
  5
B7A
330
A02
100
AcDbEntity
  8
ProjItem003
100
AcDbEllipse
 10
123.386
 20
61.9258
 30
0
 11
-6.78875e-29
 21
3
 31
0
 40
0.960325
 41
-5.19593
 42
-4.71239
  0
SPLINE
  5
B7B
330
A02
100
AcDbEntity
  8
ProjItem003
100
AcDbSpline
210
0
220
0
230
1
 70
8
 71
3
 72
11
 73
7
 74
0
 40
-1.07764
 40
-1.07764
 40
-1.07764
 40
-1.07764
 40
-0.461844
 40
-0.461844
 40
-0.461844
 40
-0.00712469
 40
-0.00712469
 40
-0.00712469
 40
-0.00712469
 10
120.505
 20
61.9258
 30
0
 10
121.116
 20
61.5523
 30
0
 10
121.849
 20
61.1321
 30
0
 10
122.483
 20
60.7376
 30
0
 10
122.951
 20
60.4463
 30
0
 10
123.365
 20
60.1689
 30
0
 10
123.577
 20
59.9367
 30
0
  0
SPLINE
  5
B7C
330
A02
100
AcDbEntity
  8
ProjItem003
100
AcDbSpline
210
0
220
0
230
1
 70
8
 71
3
 72
8
 73
4
 74
0
 40
-2.0649
 40
-2.0649
 40
-2.0649
 40
-2.0649
 40
-1.78038
 40
-1.78038
 40
-1.78038
 40
-1.78038
 10
195.38
 20
119.965
 30
0
 10
195.573
 20
119.795
 30
0
 10
195.863
 20
119.533
 30
0
 10
196.206
 20
119.193
 30
0
  0
SPLINE
  5
B7D
330
A02
100
AcDbEntity
  8
ProjItem003
100
AcDbSpline
210
0
220
0
230
1
 70
8
 71
2
 72
6
 73
3
 74
0
 40
-1.78038
 40
-1.78038
 40
-1.78038
 40
-1.64137
 40
-1.64137
 40
-1.64137
 10
196.206
 20
119.193
 30
0
 10
196.459
 20
118.943
 30
0
 10
196.744
 20
118.638
 30
0
  0
SPLINE
  5
B7E
330
A02
100
AcDbEntity
  8
ProjItem003
100
AcDbSpline
210
0
220
0
230
1
 70
8
 71
2
 72
6
 73
3
 74
0
 40
-1.21329
 40
-1.21329
 40
-1.21329
 40
-0.977118
 40
-0.977118
 40
-0.977118
 10
198.645
 20
116.263
 30
0
 10
199.186
 20
115.476
 30
0
 10
199.69
 20
114.555
 30
0
  0
ELLIPSE
  5
B7F
330
A02
100
AcDbEntity
  8
ProjItem003
100
AcDbEllipse
 10
193.392
 20
117.718
 30
0
 11
-1.98769
 21
-2.24702
 31
0
 40
0.972967
 41
0.712313
 42
3.14159
  0
SPLINE
  5
B80
330
A02
100
AcDbEntity
  8
ProjItem003
100
AcDbSpline
210
0
220
0
230
1
 70
8
 71
2
 72
6
 73
3
 74
0
 40
-0.248883
 40
-0.248883
 40
-0.248883
 40
0
 40
0
 40
0
 10
120.041
 20
118.466
 30
0
 10
120.375
 20
119.457
 30
0
 10
120.674
 20
120.426
 30
0
  0
SPLINE
  5
B81
330
A02
100
AcDbEntity
  8
ProjItem003
100
AcDbSpline
210
0
220
0
230
1
 70
8
 71
3
 72
14
 73
10
 74
0
 40
0
 40
0
 40
0
 40
0
 40
0.176467
 40
0.176467
 40
0.176467
 40
0.413617
 40
0.413617
 40
0.413617
 40
0.632599
 40
0.632599
 40
0.632599
 40
0.632599
 10
124.041
 20
120.426
 30
0
 10
124.041
 20
120.426
 30
0
 10
123.921
 20
120.426
 30
0
 10
123.722
 20
120.426
 30
0
 10
123.454
 20
120.426
 30
0
 10
123.027
 20
120.426
 30
0
 10
122.47
 20
120.426
 30
0
 10
121.955
 20
120.426
 30
0
 10
121.345
 20
120.426
 30
0
 10
120.674
 20
120.426
 30
0
  0
SPLINE
  5
B82
330
A02
100
AcDbEntity
  8
ProjItem003
100
AcDbSpline
210
0
220
0
230
1
 70
8
 71
2
 72
6
 73
3
 74
0
 40
-24.7677
 40
-24.7677
 40
-24.7677
 40
-24.6629
 40
-24.6629
 40
-24.6629
 10
130.417
 20
53.7108
 30
0
 10
130.072
 20
53.9658
 30
0
 10
129.735
 20
54.2242
 30
0
  0
SPLINE
  5
B83
330
A02
100
AcDbEntity
  8
ProjItem003
100
AcDbSpline
210
0
220
0
230
1
 70
8
 71
3
 72
8
 73
4
 74
0
 40
0.558825
 40
0.558825
 40
0.558825
 40
0.558825
 40
0.796184
 40
0.796184
 40
0.796184
 40
0.796184
 10
137.513
 20
49.4258
 30
0
 10
138.206
 20
49.0899
 30
0
 10
138.984
 20
48.7383
 30
0
 10
139.714
 20
48.4321
 30
0
  0
SPLINE
  5
B84
330
A02
100
AcDbEntity
  8
ProjItem003
100
AcDbSpline
210
0
220
0
230
1
 70
8
 71
3
 72
17
 73
13
 74
0
 40
0.796184
 40
0.796184
 40
0.796184
 40
0.796184
 40
0.997656
 40
0.997656
 40
0.997656
 40
1.19913
 40
1.19913
 40
1.19913
 40
1.3865
 40
1.3865
 40
1.3865
 40
1.57386
 40
1.57386
 40
1.57386
 40
1.57386
 10
139.714
 20
48.4321
 30
0
 10
140.333
 20
48.1722
 30
0
 10
141.003
 20
47.9088
 30
0
 10
141.628
 20
47.6797
 30
0
 10
142.252
 20
47.4506
 30
0
 10
142.83
 20
47.255
 30
0
 10
143.288
 20
47.107
 30
0
 10
143.714
 20
46.9693
 30
0
 10
144.089
 20
46.8555
 30
0
 10
144.339
 20
46.7814
 30
0
 10
144.589
 20
46.708
 30
0
 10
144.714
 20
46.6716
 30
0
 10
144.714
 20
46.6722
 30
0
  0
SPLINE
  5
B85
330
A02
100
AcDbEntity
  8
ProjItem003
100
AcDbSpline
210
0
220
0
230
1
 70
8
 71
3
 72
17
 73
13
 74
0
 40
1.57386
 40
1.57386
 40
1.57386
 40
1.57386
 40
1.76126
 40
1.76126
 40
1.76126
 40
1.94863
 40
1.94863
 40
1.94863
 40
2.1501
 40
2.1501
 40
2.1501
 40
2.35158
 40
2.35158
 40
2.35158
 40
2.35158
 10
144.714
 20
46.6722
 30
0
 10
144.714
 20
46.6715
 30
0
 10
144.589
 20
46.7079
 30
0
 10
144.339
 20
46.7814
 30
0
 10
144.089
 20
46.8555
 30
0
 10
143.714
 20
46.9693
 30
0
 10
143.288
 20
47.107
 30
0
 10
142.83
 20
47.255
 30
0
 10
142.252
 20
47.4506
 30
0
 10
141.628
 20
47.6797
 30
0
 10
141.003
 20
47.9088
 30
0
 10
140.333
 20
48.1722
 30
0
 10
139.714
 20
48.4321
 30
0
  0
SPLINE
  5
B86
330
A02
100
AcDbEntity
  8
ProjItem003
100
AcDbSpline
210
0
220
0
230
1
 70
8
 71
3
 72
8
 73
4
 74
0
 40
-3.58075
 40
-3.58075
 40
-3.58075
 40
-3.58075
 40
-2.40189
 40
-2.40189
 40
-2.40189
 40
-2.40189
 10
173.067
 20
47.8431
 30
0
 10
169.675
 20
46.5584
 30
0
 10
166.001
 20
45.6345
 30
0
 10
162.116
 20
45.203
 30
0
  0
SPLINE
  5
B87
330
A02
100
AcDbEntity
  8
ProjItem003
100
AcDbSpline
210
0
220
0
230
1
 70
8
 71
3
 72
8
 73
4
 74
0
 40
-1.60132
 40
-1.60132
 40
-1.60132
 40
-1.60132
 40
-0.711179
 40
-0.711179
 40
-0.711179
 40
-0.711179
 10
153.984
 20
45.0358
 30
0
 10
150.908
 20
45.2498
 30
0
 10
147.783
 20
45.7903
 30
0
 10
144.714
 20
46.6736
 30
0
  0
SPLINE
  5
B88
330
A02
100
AcDbEntity
  8
ProjItem003
100
AcDbSpline
210
0
220
0
230
1
 70
8
 71
2
 72
6
 73
3
 74
0
 40
-0.139167
 40
-0.139167
 40
-0.139167
 40
-0.0419915
 40
-0.0419915
 40
-0.0419915
 10
138.891
 20
48.7874
 30
0
 10
138.407
 20
49.0018
 30
0
 10
137.927
 20
49.2281
 30
0
  0
ARC
  5
B89
330
A02
100
AcDbEntity
  8
ProjItem003
100
AcDbCircle
 10
157.128
 20
89.9258
 30
0
 40
45
100
AcDbArc
 50
69.2557
 51
-69.2557
  0
SPLINE
  5
B8A
330
A02
100
AcDbEntity
  8
ProjItem003
100
AcDbSpline
210
0
220
0
230
1
 70
8
 71
3
 72
14
 73
10
 74
0
 40
22.4711
 40
22.4711
 40
22.4711
 40
22.4711
 40
22.9374
 40
22.9374
 40
22.9374
 40
23.4037
 40
23.4037
 40
23.4037
 40
24.0111
 40
24.0111
 40
24.0111
 40
24.0111
 10
120.505
 20
61.9258
 30
0
 10
120.826
 20
61.3329
 30
0
 10
121.229
 20
60.6163
 30
0
 10
121.697
 20
59.84
 30
0
 10
122.165
 20
59.0636
 30
0
 10
122.697
 20
58.2276
 30
0
 10
123.288
 20
57.3667
 30
0
 10
124.058
 20
56.2452
 30
0
 10
124.926
 20
55.0818
 30
0
 10
125.886
 20
53.9258
 30
0
  0
SPLINE
  5
B8B
330
A02
100
AcDbEntity
  8
ProjItem003
100
AcDbSpline
210
0
220
0
230
1
 70
8
 71
3
 72
11
 73
7
 74
0
 40
-0.998684
 40
-0.998684
 40
-0.998684
 40
-0.998684
 40
-0.428007
 40
-0.428007
 40
-0.428007
 40
0
 40
0
 40
0
 40
0
 10
132.867
 20
51.3215
 30
0
 10
131.597
 20
51.7487
 30
0
 10
130.22
 20
52.2451
 30
0
 10
128.872
 20
52.7569
 30
0
 10
127.861
 20
53.1422
 30
0
 10
126.866
 20
53.5318
 30
0
 10
125.886
 20
53.9258
 30
0
  0
SPLINE
  5
B8C
330
A02
100
AcDbEntity
  8
ProjItem003
100
AcDbSpline
210
0
220
0
230
1
 70
8
 71
3
 72
8
 73
4
 74
0
 40
-0.693218
 40
-0.693218
 40
-0.693218
 40
-0.693218
 40
0
 40
0
 40
0
 40
0
 10
137.509
 20
49.4278
 30
0
 10
136.009
 20
50.1524
 30
0
 10
134.409
 20
50.8027
 30
0
 10
132.867
 20
51.3215
 30
0
  0
SPLINE
  5
B8D
330
A02
100
AcDbEntity
  8
ProjItem003
100
AcDbSpline
210
0
220
0
230
1
 70
8
 71
2
 72
6
 73
3
 74
0
 40
-0.351223
 40
-0.351223
 40
-0.351223
 40
-0.187555
 40
-0.187555
 40
-0.187555
 10
195.38
 20
59.8861
 30
0
 10
194.909
 20
59.4697
 30
0
 10
194.414
 20
59.0845
 30
0
  0
SPLINE
  5
B8E
330
A02
100
AcDbEntity
  8
ProjItem003
100
AcDbSpline
210
0
220
0
230
1
 70
8
 71
2
 72
6
 73
3
 74
0
 40
-0.187555
 40
-0.187555
 40
-0.187555
 40
0
 40
0
 40
0
 10
194.414
 20
59.0845
 30
0
 10
193.847
 20
58.643
 30
0
 10
193.249
 20
58.2427
 30
0
  0
SPLINE
  5
B8F
330
A02
100
AcDbEntity
  8
ProjItem003
100
AcDbSpline
210
0
220
0
230
1
 70
8
 71
2
 72
6
 73
3
 74
0
 40
-0.235157
 40
-0.235157
 40
-0.235157
 40
-0.166702
 40
-0.166702
 40
-0.166702
 10
136.606
 20
49.7612
 30
0
 10
136.422
 20
49.8094
 30
0
 10
136.235
 20
49.8436
 30
0
  0
SPLINE
  5
B90
330
A02
100
AcDbEntity
  8
ProjItem003
100
AcDbSpline
210
0
220
0
230
1
 70
8
 71
2
 72
6
 73
3
 74
0
 40
-0.166702
 40
-0.166702
 40
-0.166702
 40
-0.0532214
 40
-0.0532214
 40
-0.0532214
 10
136.235
 20
49.8436
 30
0
 10
135.924
 20
49.9003
 30
0
 10
135.617
 20
49.9177
 30
0
  0
SPLINE
  5
B91
330
A02
100
AcDbEntity
  8
ProjItem003
100
AcDbSpline
210
0
220
0
230
1
 70
8
 71
1
 72
4
 73
2
 74
0
 40
0.119149
 40
0.119149
 40
0.13375
 40
0.13375
 10
136.903
 20
49.6731
 30
0
 10
136.826
 20
49.6979
 30
0
  0
ELLIPSE
  5
B92
330
A02
100
AcDbEntity
  8
ProjItem003
100
AcDbEllipse
 10
128.651
 20
53.9258
 30
0
 11
0
 21
4
 31
0
 40
0.691307
 41
-4.71239
 42
-3.14159
  0
SPLINE
  5
B93
330
A02
100
AcDbEntity
  8
ProjItem003
100
AcDbSpline
210
0
220
0
230
1
 70
8
 71
1
 72
17
 73
15
 74
0
 40
6.4248
 40
6.4248
 40
6.48248
 40
6.54016
 40
6.59784
 40
6.65552
 40
6.71319
 40
6.77087
 40
6.82855
 40
6.88623
 40
6.94391
 40
7.00159
 40
7.05927
 40
7.11694
 40
7.17462
 40
7.2323
 40
7.2323
 10
123.712
 20
49.9258
 30
0
 10
123.738
 20
49.9258
 30
0
 10
123.818
 20
49.9258
 30
0
 10
123.951
 20
49.9258
 30
0
 10
124.136
 20
49.9258
 30
0
 10
124.373
 20
49.9258
 30
0
 10
124.66
 20
49.9258
 30
0
 10
124.998
 20
49.9258
 30
0
 10
125.385
 20
49.9258
 30
0
 10
125.82
 20
49.9258
 30
0
 10
126.301
 20
49.9258
 30
0
 10
126.826
 20
49.9258
 30
0
 10
127.394
 20
49.9258
 30
0
 10
128.003
 20
49.9258
 30
0
 10
128.651
 20
49.9258
 30
0
  0
SPLINE
  5
B94
330
A02
100
AcDbEntity
  8
ProjItem003
100
AcDbSpline
210
0
220
0
230
1
 70
8
 71
3
 72
11
 73
7
 74
0
 40
0
 40
0
 40
0
 40
0
 40
0.428007
 40
0.428007
 40
0.428007
 40
0.998684
 40
0.998684
 40
0.998684
 40
0.998684
 10
128.651
 20
49.9258
 30
0
 10
129.682
 20
49.9258
 30
0
 10
130.685
 20
49.9258
 30
0
 10
131.662
 20
49.9258
 30
0
 10
132.966
 20
49.9258
 30
0
 10
134.225
 20
49.9258
 30
0
 10
135.334
 20
49.9258
 30
0
  0
ELLIPSE
  5
B95
330
A02
100
AcDbEntity
  8
ProjItem003
100
AcDbEllipse
 10
135.334
 20
53.9258
 30
0
 11
2.87983e-10
 21
4
 31
0
 40
0.812598
 41
-4.00341
 42
-3.14159
  0
SPLINE
  5
B96
330
A02
100
AcDbEntity
  8
ProjItem003
100
AcDbSpline
210
0
220
0
230
1
 70
8
 71
2
 72
6
 73
3
 74
0
 40
0
 40
0
 40
0
 40
0.692501
 40
0.692501
 40
0.692501
 10
135.334
 20
49.9258
 30
0
 10
136.458
 20
49.9293
 30
0
 10
137.509
 20
49.4278
 30
0
  0
SPLINE
  5
B97
330
A02
100
AcDbEntity
  8
ProjItem003
100
AcDbSpline
210
0
220
0
230
1
 70
8
 71
1
 72
4
 73
2
 74
0
 40
0.692501
 40
0.692501
 40
0.693857
 40
0.693857
 10
137.509
 20
49.4278
 30
0
 10
137.513
 20
49.4258
 30
0
  0
SPLINE
  5
B98
330
A02
100
AcDbEntity
  8
ProjItem003
100
AcDbSpline
210
0
220
0
230
1
 70
8
 71
2
 72
6
 73
3
 74
0
 40
-5.99486
 40
-5.99486
 40
-5.99486
 40
-5.94207
 40
-5.94207
 40
-5.94207
 10
135.617
 20
49.9177
 30
0
 10
135.475
 20
49.9258
 30
0
 10
135.334
 20
49.9258
 30
0
  0
ARC
  5
B99
330
A02
100
AcDbEntity
  8
ProjItem003
100
AcDbCircle
 10
137.647
 20
141.36
 30
0
 40
100
100
AcDbArc
 50
-69.2557
 51
-56.2196
  0
ARC
  5
B9A
330
A02
100
AcDbEntity
  8
ProjItem003
100
AcDbCircle
 10
182.128
 20
74.8662
 30
0
 40
20
100
AcDbArc
 50
-56.2196
 51
0
  0
SPLINE
  5
B9B
330
A02
100
AcDbEntity
  8
ProjItem003
100
AcDbSpline
210
0
220
0
230
1
 70
8
 71
2
 72
6
 73
3
 74
0
 40
-2.95969
 40
-2.95969
 40
-2.95969
 40
-2.45993
 40
-2.45993
 40
-2.45993
 10
143.782
 20
132.901
 30
0
 10
146.361
 20
133.702
 30
0
 10
148.975
 20
134.181
 30
0
  0
SPLINE
  5
B9C
330
A02
100
AcDbEntity
  8
ProjItem003
100
AcDbSpline
210
0
220
0
230
1
 70
8
 71
3
 72
8
 73
4
 74
0
 40
-1.72619
 40
-1.72619
 40
-1.72619
 40
-1.72619
 40
-1.09314
 40
-1.09314
 40
-1.09314
 40
-1.09314
 10
156.598
 20
134.923
 30
0
 10
158.763
 20
134.949
 30
0
 10
160.887
 20
134.818
 30
0
 10
162.954
 20
134.547
 30
0
  0
SPLINE
  5
B9D
330
A02
100
AcDbEntity
  8
ProjItem003
100
AcDbSpline
210
0
220
0
230
1
 70
8
 71
3
 72
8
 73
4
 74
0
 40
-2.10354
 40
-2.10354
 40
-2.10354
 40
-2.10354
 40
-0.725287
 40
-0.725287
 40
-0.725287
 40
-0.725287
 10
179.833
 20
129.155
 30
0
 10
183.232
 20
127.572
 30
0
 10
186.336
 20
125.894
 30
0
 10
189.121
 20
124.224
 30
0
  0
SPLINE
  5
B9E
330
A02
100
AcDbEntity
  8
ProjItem003
100
AcDbSpline
210
0
220
0
230
1
 70
8
 71
2
 72
6
 73
3
 74
0
 40
-2.18036
 40
-2.18036
 40
-2.18036
 40
-1.99289
 40
-1.99289
 40
-1.99289
 10
193.249
 20
121.609
 30
0
 10
193.847
 20
121.209
 30
0
 10
194.414
 20
120.767
 30
0
  0
SPLINE
  5
B9F
330
A02
100
AcDbEntity
  8
ProjItem003
100
AcDbSpline
210
0
220
0
230
1
 70
8
 71
2
 72
6
 73
3
 74
0
 40
-1.99289
 40
-1.99289
 40
-1.99289
 40
-1.82916
 40
-1.82916
 40
-1.82916
 10
194.414
 20
120.767
 30
0
 10
194.909
 20
120.382
 30
0
 10
195.38
 20
119.965
 30
0
  0
SPLINE
  5
BA0
330
A02
100
AcDbEntity
  8
ProjItem003
100
AcDbSpline
210
0
220
0
230
1
 70
8
 71
2
 72
6
 73
3
 74
0
 40
0.265608
 40
0.265608
 40
0.265608
 40
0.316211
 40
0.316211
 40
0.316211
 10
179.699
 20
129.22
 30
0
 10
179.832
 20
129.158
 30
0
 10
179.833
 20
129.158
 30
0
  0
SPLINE
  5
BA1
330
A02
100
AcDbEntity
  8
ProjItem003
100
AcDbSpline
210
0
220
0
230
1
 70
8
 71
2
 72
6
 73
3
 74
0
 40
0.316211
 40
0.316211
 40
0.316211
 40
0.356645
 40
0.356645
 40
0.356645
 10
179.833
 20
129.158
 30
0
 10
179.833
 20
129.158
 30
0
 10
179.747
 20
129.198
 30
0
  0
SPLINE
  5
BA2
330
A02
100
AcDbEntity
  8
ProjItem003
100
AcDbSpline
210
0
220
0
230
1
 70
8
 71
2
 72
6
 73
3
 74
0
 40
0.36679
 40
0.36679
 40
0.36679
 40
0.42008
 40
0.42008
 40
0.42008
 10
179.699
 20
129.22
 30
0
 10
179.561
 20
129.284
 30
0
 10
179.333
 20
129.389
 30
0
  0
SPLINE
  5
BA3
330
A02
100
AcDbEntity
  8
ProjItem003
100
AcDbSpline
210
0
220
0
230
1
 70
8
 71
1
 72
17
 73
15
 74
0
 40
4.21076
 40
4.21076
 40
4.27245
 40
4.33415
 40
4.39584
 40
4.45753
 40
4.51922
 40
4.58091
 40
4.6426
 40
4.7043
 40
4.76599
 40
4.82768
 40
4.88937
 40
4.95106
 40
5.01275
 40
5.07445
 40
5.07445
 10
135.49
 20
129.382
 30
0
 10
137.964
 20
130.641
 30
0
 10
140.51
 20
131.745
 30
0
 10
143.12
 20
132.69
 30
0
 10
145.783
 20
133.472
 30
0
 10
148.49
 20
134.089
 30
0
 10
151.229
 20
134.537
 30
0
 10
153.991
 20
134.816
 30
0
 10
156.764
 20
134.924
 30
0
 10
159.539
 20
134.861
 30
0
 10
162.305
 20
134.627
 30
0
 10
165.051
 20
134.223
 30
0
 10
167.767
 20
133.65
 30
0
 10
170.442
 20
132.911
 30
0
 10
173.067
 20
132.008
 30
0
  0
SPLINE
  5
BA4
330
A02
100
AcDbEntity
  8
ProjItem003
100
AcDbSpline
210
0
220
0
230
1
 70
8
 71
3
 72
11
 73
7
 74
0
 40
0
 40
0
 40
0
 40
0
 40
0.194144
 40
0.194144
 40
0.194144
 40
0.480495
 40
0.480495
 40
0.480495
 40
0.480495
 10
120.674
 20
120.426
 30
0
 10
120.144
 20
120.426
 30
0
 10
119.691
 20
120.426
 30
0
 10
119.341
 20
120.426
 30
0
 10
118.824
 20
120.426
 30
0
 10
118.545
 20
120.426
 30
0
 10
118.544
 20
120.426
 30
0
  0
SPLINE
  5
BA5
330
A02
100
AcDbEntity
  8
ProjItem003
100
AcDbSpline
210
0
220
0
230
1
 70
8
 71
3
 72
8
 73
4
 74
0
 40
0.480495
 40
0.480495
 40
0.480495
 40
0.480495
 40
0.74492
 40
0.74492
 40
0.74492
 40
0.74492
 10
118.544
 20
120.426
 30
0
 10
118.542
 20
120.426
 30
0
 10
118.776
 20
120.426
 30
0
 10
119.217
 20
120.426
 30
0
  0
CIRCLE
  5
BA6
330
A02
100
AcDbEntity
  8
ProjItem003
100
AcDbCircle
 10
157.128
 20
89.9258
 40
35.25
  0
ARC
  5
BA7
330
A02
100
AcDbEntity
  8
ProjItem003
100
AcDbCircle
 10
157.128
 20
89.9258
 30
0
 40
37.25
100
AcDbArc
 50
90
 51
-90
  0
ARC
  5
BA8
330
A02
100
AcDbEntity
  8
ProjItem003
100
AcDbCircle
 10
157.128
 20
89.9258
 30
0
 40
37.25
100
AcDbArc
 50
-90
 51
90
  0
ARC
  5
BA9
330
A02
100
AcDbEntity
  8
ProjItem003
100
AcDbCircle
 10
157.128
 20
89.9258
 30
0
 40
2.85
100
AcDbArc
 50
-90
 51
90
  0
ARC
  5
BAA
330
A02
100
AcDbEntity
  8
ProjItem003
100
AcDbCircle
 10
157.128
 20
89.9258
 30
0
 40
2.85
100
AcDbArc
 50
90
 51
-90
  0
CIRCLE
  5
BAB
330
A02
100
AcDbEntity
  8
ProjItem003
100
AcDbCircle
 10
157.128
 20
89.9258
 40
1.7
  0
SPLINE
  5
BAC
330
A02
100
AcDbEntity
  8
ProjItem003
100
AcDbSpline
210
0
220
0
230
1
 70
8
 71
3
 72
14
 73
10
 74
0
 40
0.245536
 40
0.245536
 40
0.245536
 40
0.245536
 40
0.35552
 40
0.35552
 40
0.35552
 40
0.474027
 40
0.474027
 40
0.474027
 40
0.533969
 40
0.533969
 40
0.533969
 40
0.533969
 10
135.334
 20
49.9258
 30
0
 10
135.518
 20
49.9279
 30
0
 10
135.735
 20
49.9137
 30
0
 10
135.984
 20
49.8833
 30
0
 10
136.251
 20
49.8482
 30
0
 10
136.551
 20
49.7865
 30
0
 10
136.865
 20
49.6856
 30
0
 10
137.025
 20
49.6347
 30
0
 10
137.193
 20
49.5704
 30
0
 10
137.369
 20
49.4926
 30
0
  0
SPLINE
  5
BAD
330
A02
100
AcDbEntity
  8
ProjItem003
100
AcDbSpline
210
0
220
0
230
1
 70
8
 71
1
 72
4
 73
2
 74
0
 40
0.549764
 40
0.549764
 40
0.550309
 40
0.550309
 10
137.508
 20
49.4281
 30
0
 10
137.513
 20
49.4258
 30
0
  0
SPLINE
  5
BAE
330
A02
100
AcDbEntity
  8
ProjItem003
100
AcDbSpline
210
0
220
0
230
1
 70
8
 71
1
 72
4
 73
2
 74
0
 40
3.82876
 40
3.82876
 40
3.82931
 40
3.82931
 10
137.513
 20
49.4258
 30
0
 10
137.508
 20
49.4281
 30
0
  0
SPLINE
  5
BAF
330
A02
100
AcDbEntity
  8
ProjItem003
100
AcDbSpline
210
0
220
0
230
1
 70
8
 71
3
 72
14
 73
10
 74
0
 40
3.8451
 40
3.8451
 40
3.8451
 40
3.8451
 40
3.90504
 40
3.90504
 40
3.90504
 40
4.02355
 40
4.02355
 40
4.02355
 40
4.13353
 40
4.13353
 40
4.13353
 40
4.13353
 10
137.369
 20
49.4926
 30
0
 10
137.193
 20
49.5704
 30
0
 10
137.025
 20
49.6347
 30
0
 10
136.865
 20
49.6856
 30
0
 10
136.551
 20
49.7865
 30
0
 10
136.251
 20
49.8482
 30
0
 10
135.984
 20
49.8833
 30
0
 10
135.735
 20
49.9137
 30
0
 10
135.518
 20
49.9279
 30
0
 10
135.334
 20
49.9258
 30
0
  0
LINE
  5
BB0
330
A02
100
AcDbEntity
  8
ProjItem003
100
AcDbLine
 10
202.128
 20
104.985
 30
0
 11
202.128
 21
74.8662
 31
0
  0
ARC
  5
BB1
330
A02
100
AcDbEntity
  8
ProjItem003
100
AcDbCircle
 10
182.128
 20
104.985
 30
0
 40
20
100
AcDbArc
 50
0
 51
56.2196
  0
ARC
  5
BB2
330
A02
100
AcDbEntity
  8
ProjItem003
100
AcDbCircle
 10
137.647
 20
38.4914
 30
0
 40
100
100
AcDbArc
 50
56.2196
 51
69.2557
  0
SPLINE
  5
BB3
330
A02
100
AcDbEntity
  8
ProjItem003
100
AcDbSpline
210
0
220
0
230
1
 70
8
 71
3
 72
14
 73
10
 74
0
 40
0
 40
0
 40
0
 40
0
 40
0.248083
 40
0.248083
 40
0.248083
 40
0.440487
 40
0.440487
 40
0.440487
 40
0.578198
 40
0.578198
 40
0.578198
 40
0.578198
 10
118.404
 20
118.194
 30
0
 10
118.368
 20
117.797
 30
0
 10
118.415
 20
117.393
 30
0
 10
118.536
 20
117.014
 30
0
 10
118.631
 20
116.717
 30
0
 10
118.768
 20
116.442
 30
0
 10
118.948
 20
116.187
 30
0
 10
119.211
 20
115.817
 30
0
 10
119.56
 20
115.508
 30
0
 10
119.958
 20
115.291
 30
0
  0
SPLINE
  5
BB4
330
A02
100
AcDbEntity
  8
ProjItem003
100
AcDbSpline
210
0
220
0
230
1
 70
8
 71
3
 72
11
 73
7
 74
0
 40
0
 40
0
 40
0
 40
0
 40
0.5
 40
0.5
 40
0.5
 40
1
 40
1
 40
1
 40
1
 10
113.422
 20
100.64
 30
0
 10
113.868
 20
102.458
 30
0
 10
114.431
 20
104.233
 30
0
 10
115.067
 20
105.907
 30
0
 10
115.61
 20
107.338
 30
0
 10
116.207
 20
108.697
 30
0
 10
116.837
 20
109.965
 30
0
  0
SPLINE
  5
BB5
330
A02
100
AcDbEntity
  8
ProjItem003
100
AcDbSpline
210
0
220
0
230
1
 70
8
 71
3
 72
8
 73
4
 74
0
 40
0
 40
0
 40
0
 40
0
 40
1
 40
1
 40
1
 40
1
 10
113.422
 20
100.64
 30
0
 10
111.705
 20
93.6383
 30
0
 10
111.705
 20
86.2132
 30
0
 10
113.422
 20
79.2115
 30
0
  0
SPLINE
  5
BB6
330
A02
100
AcDbEntity
  8
ProjItem003
100
AcDbSpline
210
0
220
0
230
1
 70
8
 71
3
 72
8
 73
4
 74
0
 40
0
 40
0
 40
0
 40
0
 40
1
 40
1
 40
1
 40
1
 10
113.422
 20
79.2115
 30
0
 10
113.715
 20
78.0184
 30
0
 10
114.056
 20
76.8423
 30
0
 10
114.435
 20
75.7018
 30
0
  0
SPLINE
  5
BB7
330
A02
100
AcDbEntity
  8
ProjItem003
100
AcDbSpline
210
0
220
0
230
1
 70
8
 71
2
 72
6
 73
3
 74
0
 40
0
 40
0
 40
0
 40
0.801892
 40
0.801892
 40
0.801892
 10
123.42
 20
60.113
 30
0
 10
123.208
 20
60.3512
 30
0
 10
122.797
 20
60.8335
 30
0
  0
SPLINE
  5
BB8
330
A02
100
AcDbEntity
  8
ProjItem003
100
AcDbSpline
210
0
220
0
230
1
 70
8
 71
3
 72
8
 73
4
 74
0
 40
0
 40
0
 40
0
 40
0
 40
0.451014
 40
0.451014
 40
0.451014
 40
0.451014
 10
119.712
 20
61.9258
 30
0
 10
119.71
 20
62.6349
 30
0
 10
119.971
 20
63.3407
 30
0
 10
120.434
 20
63.8777
 30
0
  0
SPLINE
  5
BB9
330
A02
100
AcDbEntity
  8
ProjItem003
100
AcDbSpline
210
0
220
0
230
1
 70
8
 71
2
 72
6
 73
3
 74
0
 40
0
 40
0
 40
0
 40
0.377876
 40
0.377876
 40
0.377876
 10
196.206
 20
119.193
 30
0
 10
196.462
 20
118.94
 30
0
 10
196.745
 20
118.637
 30
0
  0
SPLINE
  5
BBA
330
A02
100
AcDbEntity
  8
ProjItem003
100
AcDbSpline
210
0
220
0
230
1
 70
8
 71
2
 72
6
 73
3
 74
0
 40
0
 40
0
 40
0
 40
0.990844
 40
0.990844
 40
0.990844
 10
118.544
 20
120.231
 30
0
 10
118.502
 20
119.215
 30
0
 10
118.411
 20
118.214
 30
0
  0
LINE
  5
BBB
330
A02
100
AcDbEntity
  8
ProjItem003
100
AcDbLine
 10
119.712
 20
61.9258
 30
0
 11
119.712
 21
53.9258
 31
0
  0
SPLINE
  5
BBC
330
A02
100
AcDbEntity
  8
ProjItem003
100
AcDbSpline
210
0
220
0
230
1
 70
8
 71
2
 72
6
 73
3
 74
0
 40
0
 40
0
 40
0
 40
1
 40
1
 40
1
 10
195.38
 20
59.8861
 30
0
 10
194.909
 20
59.47
 30
0
 10
194.414
 20
59.0845
 30
0
  0
SPLINE
  5
BBD
330
A02
100
AcDbEntity
  8
ProjItem003
100
AcDbSpline
210
0
220
0
230
1
 70
8
 71
3
 72
8
 73
4
 74
0
 40
0.30007
 40
0.30007
 40
0.30007
 40
0.30007
 40
0.452533
 40
0.452533
 40
0.452533
 40
0.452533
 10
148.398
 20
45.7808
 30
0
 10
150.286
 20
45.407
 30
0
 10
152.181
 20
45.1583
 30
0
 10
154.063
 20
45.0303
 30
0
  0
SPLINE
  5
BBE
330
A02
100
AcDbEntity
  8
ProjItem003
100
AcDbSpline
210
0
220
0
230
1
 70
8
 71
3
 72
8
 73
4
 74
0
 40
0.673938
 40
0.673938
 40
0.673938
 40
0.673938
 40
0.985721
 40
0.985721
 40
0.985721
 40
0.985721
 10
162.12
 20
45.2035
 30
0
 10
165.815
 20
45.6139
 30
0
 10
169.341
 20
46.4736
 30
0
 10
172.618
 20
47.6758
 30
0
  0
SPLINE
  5
BBF
330
A02
100
AcDbEntity
  8
ProjItem003
100
AcDbSpline
210
0
220
0
230
1
 70
8
 71
2
 72
6
 73
3
 74
0
 40
0
 40
0
 40
0
 40
1
 40
1
 40
1
 10
135.617
 20
49.9177
 30
0
 10
135.915
 20
49.9014
 30
0
 10
136.235
 20
49.8436
 30
0
  0
SPLINE
  5
BC0
330
A02
100
AcDbEntity
  8
ProjItem003
100
AcDbSpline
210
0
220
0
230
1
 70
8
 71
1
 72
4
 73
2
 74
0
 40
0.214697
 40
0.214697
 40
0.379189
 40
0.379189
 10
136.826
 20
49.6979
 30
0
 10
136.903
 20
49.6731
 30
0
  0
SPLINE
  5
BC1
330
A02
100
AcDbEntity
  8
ProjItem003
100
AcDbSpline
210
0
220
0
230
1
 70
8
 71
3
 72
14
 73
10
 74
0
 40
0
 40
0
 40
0
 40
0
 40
0.435001
 40
0.435001
 40
0.435001
 40
0.790001
 40
0.790001
 40
0.790001
 40
1
 40
1
 40
1
 40
1
 10
119.712
 20
53.9258
 30
0
 10
119.709
 20
53.014
 30
0
 10
120.032
 20
52.1059
 30
0
 10
120.61
 20
51.4004
 30
0
 10
121.078
 20
50.8229
 30
0
 10
121.712
 20
50.3813
 30
0
 10
122.416
 20
50.1414
 30
0
 10
122.832
 20
49.9988
 30
0
 10
123.272
 20
49.9256
 30
0
 10
123.712
 20
49.9258
 30
0
  0
SPLINE
  5
BC2
330
A02
100
AcDbEntity
  8
ProjItem003
100
AcDbSpline
210
0
220
0
230
1
 70
8
 71
1
 72
4
 73
2
 74
0
 40
0
 40
0
 40
1
 40
1
 10
137.509
 20
49.4278
 30
0
 10
137.509
 20
49.4278
 30
0
  0
SPLINE
  5
BC3
330
A02
100
AcDbEntity
  8
ProjItem003
100
AcDbSpline
210
0
220
0
230
1
 70
8
 71
2
 72
6
 73
3
 74
0
 40
0
 40
0
 40
0
 40
1
 40
1
 40
1
 10
137.509
 20
49.4278
 30
0
 10
137.507
 20
49.4286
 30
0
 10
137.513
 20
49.4258
 30
0
  0
SPLINE
  5
BC4
330
A02
100
AcDbEntity
  8
ProjItem003
100
AcDbSpline
210
0
220
0
230
1
 70
8
 71
3
 72
8
 73
4
 74
0
 40
0.604622
 40
0.604622
 40
0.604622
 40
0.604622
 40
0.961709
 40
0.961709
 40
0.961709
 40
0.961709
 10
162.996
 20
134.542
 30
0
 10
160.904
 20
134.817
 30
0
 10
158.757
 20
134.95
 30
0
 10
156.577
 20
134.922
 30
0
  0
SPLINE
  5
BC5
330
A02
100
AcDbEntity
  8
ProjItem003
100
AcDbSpline
210
0
220
0
230
1
 70
8
 71
2
 72
6
 73
3
 74
0
 40
0.451391
 40
0.451391
 40
0.451391
 40
0.723263
 40
0.723263
 40
0.723263
 10
143.778
 20
132.9
 30
0
 10
146.359
 20
133.702
 30
0
 10
148.98
 20
134.182
 30
0
  0
SPLINE
  5
BC6
330
A02
100
AcDbEntity
  8
ProjItem003
100
AcDbSpline
210
0
220
0
230
1
 70
8
 71
3
 72
8
 73
4
 74
0
 40
0.387294
 40
0.387294
 40
0.387294
 40
0.387294
 40
1
 40
1
 40
1
 40
1
 10
179.833
 20
129.155
 30
0
 10
183.224
 20
127.575
 30
0
 10
186.328
 20
125.899
 30
0
 10
189.121
 20
124.224
 30
0
  0
SPLINE
  5
BC7
330
A02
100
AcDbEntity
  8
ProjItem003
100
AcDbSpline
210
0
220
0
230
1
 70
8
 71
2
 72
6
 73
3
 74
0
 40
0
 40
0
 40
0
 40
1
 40
1
 40
1
 10
195.38
 20
119.965
 30
0
 10
194.909
 20
120.382
 30
0
 10
194.414
 20
120.767
 30
0
  0
SPLINE
  5
BC8
330
A02
100
AcDbEntity
  8
ProjItem003
100
AcDbSpline
210
0
220
0
230
1
 70
8
 71
1
 72
4
 73
2
 74
0
 40
0
 40
0
 40
1
 40
1
 10
118.537
 20
120.23
 30
0
 10
118.544
 20
120.426
 30
0
  0
LINE
  5
BC9
330
A02
100
AcDbEntity
  8
ProjItem003
100
AcDbLine
 10
144.714
 20
46.6722
 30
0
 11
144.714
 21
46.6722
 31
0
  0
SPLINE
  5
BCA
330
A02
100
AcDbEntity
  8
ProjItem003
100
AcDbSpline
210
0
220
0
230
1
 70
8
 71
2
 72
28
 73
25
 74
0
 40
6.94645
 40
6.94645
 40
6.94645
 40
6.96664
 40
6.96664
 40
6.98683
 40
6.98683
 40
7.00702
 40
7.00702
 40
7.0272
 40
7.0272
 40
7.04739
 40
7.04739
 40
7.06758
 40
7.06758
 40
7.08777
 40
7.08777
 40
7.10796
 40
7.10796
 40
7.12814
 40
7.12814
 40
7.14833
 40
7.14833
 40
7.18871
 40
7.18871
 40
7.22908
 40
7.22908
 40
7.22908
 10
119.712
 20
61.9258
 30
0
 10
119.714
 20
61.9258
 30
0
 10
119.716
 20
61.9258
 30
0
 10
119.722
 20
61.9258
 30
0
 10
119.728
 20
61.9258
 30
0
 10
119.738
 20
61.9258
 30
0
 10
119.748
 20
61.9258
 30
0
 10
119.763
 20
61.9258
 30
0
 10
119.777
 20
61.9258
 30
0
 10
119.795
 20
61.9258
 30
0
 10
119.814
 20
61.9258
 30
0
 10
119.836
 20
61.9258
 30
0
 10
119.858
 20
61.9258
 30
0
 10
119.885
 20
61.9258
 30
0
 10
119.911
 20
61.9258
 30
0
 10
119.942
 20
61.9258
 30
0
 10
119.972
 20
61.9258
 30
0
 10
120.007
 20
61.9258
 30
0
 10
120.041
 20
61.9258
 30
0
 10
120.079
 20
61.9258
 30
0
 10
120.118
 20
61.9258
 30
0
 10
120.201
 20
61.9258
 30
0
 10
120.296
 20
61.9258
 30
0
 10
120.394
 20
61.9258
 30
0
 10
120.505
 20
61.9258
 30
0
  0
ELLIPSE
  5
BCB
330
A02
100
AcDbEntity
  8
ProjItem003
100
AcDbEllipse
 10
123.533
 20
120.032
 30
0
 11
-4.99606
 21
0.19834
 31
0
 40
0.0685454
 41
5.32435
 42
6.28026
  0
ELLIPSE
  5
BCC
330
A02
100
AcDbEntity
  8
ProjItem003
100
AcDbEllipse
 10
123.533
 20
120.032
 30
0
 11
-4.99606
 21
0.19834
 31
0
 40
0.0685454
 41
6.28185
 42
0.0531213
  0
SPLINE
  5
BCD
330
A02
100
AcDbEntity
  8
ProjItem003
100
AcDbSpline
210
0
220
0
230
1
 70
8
 71
1
 72
17
 73
15
 74
0
 40
5.33407
 40
5.33407
 40
5.39175
 40
5.44943
 40
5.5071
 40
5.56478
 40
5.62246
 40
5.68014
 40
5.73782
 40
5.7955
 40
5.85318
 40
5.91085
 40
5.96853
 40
6.02621
 40
6.08389
 40
6.14157
 40
6.14157
 10
125.886
 20
53.9258
 30
0
 10
125.076
 20
53.9258
 30
0
 10
124.315
 20
53.9258
 30
0
 10
123.604
 20
53.9258
 30
0
 10
122.948
 20
53.9258
 30
0
 10
122.347
 20
53.9258
 30
0
 10
121.804
 20
53.9258
 30
0
 10
121.32
 20
53.9258
 30
0
 10
120.898
 20
53.9258
 30
0
 10
120.538
 20
53.9258
 30
0
 10
120.242
 20
53.9258
 30
0
 10
120.01
 20
53.9258
 30
0
 10
119.845
 20
53.9258
 30
0
 10
119.745
 20
53.9258
 30
0
 10
119.712
 20
53.9258
 30
0
  0
LINE
  5
BCE
330
A02
100
AcDbEntity
  8
ProjItem003
100
AcDbLine
 10
157.128
 20
125.176
 30
0
 11
157.128
 21
127.176
 31
0
  0
DIMENSION
  5
BCF
330
A02
100
AcDbEntity
  8
Dimension
100
AcDbDimension
  2
*Dimension
 10
194.378
 20
89.9258
 30
0
 11
174.986
 21
95.4944
 31
0
 70
3
  1
⌀ mm
  3
STANDARD
100
AcDbDiametricDimension
 15
156.925
 25
90.1435
 35
0
 40
0
  0
DIMENSION
  5
BD7
330
A02
100
AcDbEntity
  8
Dimension001
100
AcDbDimension
  2
*Dimension001
 10
62.8953
 20
149.39
 30
0
 11
62.8953
 21
154.39
 31
0
 70
32
  1
 mm
  3
STANDARD
100
AcDbAlignedDimension
 13
21.5937
 23
161.839
 33
0
 14
96.0937
 24
161.839
 34
0
100
AcDbRotatedDimension
  0
DIMENSION
  5
BE1
330
A02
100
AcDbEntity
  8
Dimension002
100
AcDbDimension
  2
*Dimension002
 10
192.378
 20
89.9258
 30
0
 11
168.094
 21
108.368
 31
0
 70
3
  1
⌀ mm
  3
STANDARD
100
AcDbDiametricDimension
 15
121.878
 25
89.9258
 35
0
 40
0
  0
DIMENSION
  5
BE9
330
A02
100
AcDbEntity
  8
Dimension003
100
AcDbDimension
  2
*Dimension003
 10
77.6944
 20
132.385
 30
0
 11
77.6944
 21
137.385
 31
0
 70
32
  1
 mm
  3
STANDARD
100
AcDbAlignedDimension
 13
13.8437
 23
169.839
 33
0
 14
103.844
 24
169.839
 34
0
100
AcDbRotatedDimension
  0
DIMENSION
  5
BF3
330
A02
100
AcDbEntity
  8
Dimension004
100
AcDbDimension
  2
*Dimension004
 10
184.122
 20
199.936
 30
0
 11
179.792
 21
197.436
 31
0
 70
1
  1
 mm
  3
STANDARD
100
AcDbAlignedDimension
 13
173.067
 23
213.916
 33
0
 14
161.567
 24
193.997
 34
0
  0
DIMENSION
  5
BFD
330
A02
100
AcDbEntity
  8
Dimension005
100
AcDbDimension
  2
*Dimension005
 10
144.714
 20
219.893
 30
0
 11
183.878
 21
246.594
 31
0
 70
3
  1
⌀ mm
  3
STANDARD
100
AcDbDiametricDimension
 15
134.714
 25
219.893
 35
0
 40
0
  0
DIMENSION
  5
C05
330
A02
100
AcDbEntity
  8
Dimension006
100
AcDbDimension
  2
*Dimension006
 10
157.128
 20
89.9258
 30
0
 11
156.428
 21
109.722
 31
0
 70
4
  1
R mm
  3
STANDARD
100
AcDbRadialDimension
 15
153.991
 25
134.816
 35
0
 40
0
  0
ENDSEC
  0
SECTION
  2
OBJECTS
  0
DICTIONARY
  5
F000
330
0
100
AcDbDictionary
  3
ACAD_GROUP
350
F001
  0
DICTIONARY
  5
F001
330
F000
100
AcDbDictionary
  0
ENDSEC
  0
EOF