<?xml version="1.0" encoding="UTF-8" standalone="no"?>
<svg
   version="1.1"
   width="210mm"
   height="297mm"
   viewBox="0 0 210 297"
   id="svg129"
   sodipodi:docname="A4_Portrait_reportPep.svg"
   inkscape:version="1.1.2 (0a00cf5339, 2022-02-04)"
   xmlns:inkscape="http://www.inkscape.org/namespaces/inkscape"
   xmlns:sodipodi="http://sodipodi.sourceforge.net/DTD/sodipodi-0.dtd"
   xmlns="http://www.w3.org/2000/svg"
   xmlns:svg="http://www.w3.org/2000/svg"
   xmlns:freecad="http://www.freecadweb.org/wiki/index.php?title=Svg_Namespace">
  <defs
     id="defs133" />
  <sodipodi:namedview
     id="namedview131"
     pagecolor="#ffffff"
     bordercolor="#cccccc"
     borderopacity="1"
     inkscape:pageshadow="0"
     inkscape:pageopacity="1"
     inkscape:pagecheckerboard="0"
     inkscape:document-units="mm"
     showgrid="true"
     inkscape:zoom="1.64"
     inkscape:cx="429.2683"
     inkscape:cy="681.70733"
     inkscape:window-width="1920"
     inkscape:window-height="979"
     inkscape:window-x="0"
     inkscape:window-y="60"
     inkscape:window-maximized="1"
     inkscape:current-layer="svg129">
    <inkscape:grid
       type="xygrid"
       id="grid1148" />
  </sodipodi:namedview>
  <g
     id="drawing-border"
     style="fill:none;stroke:#000000;stroke-width:0.35;stroke-linecap:miter;stroke-miterlimit:4">
    <rect
       width="188"
       height="283"
       x="15"
       y="7"
       id="rect2" />
  </g>
  <g
     id="titleblock-structure"
     style="fill:none;stroke:#000000;stroke-width:0.35;stroke-linecap:miter;stroke-miterlimit:4">
    <rect
       width="140"
       height="34"
       x="63"
       y="256"
       id="rect5" />
    <path
       d="m 63,264 h 140"
       id="path7" />
    <!-- upper horizontal Separator Titleblock -->
    <path
       d="m 63,282 h 87"
       id="path9" />
    <!-- lower horizontal Separator Document-Type -->
    <path
       d="m 63,286 h 140"
       id="path11" />
    <!-- lower horizontal Separator Copyright -->
    <path
       d="m 108,256 v 8"
       id="path13" />
    <!-- Separator Author / Owner -->
    <path
       d="m 150,256 v 30"
       id="path15" />
    <!-- Separator Title / Liste RH -->
    <path
       d="m 180,256 v 8"
       id="path17" />
    <!-- Separator Scale / Sheet -->
    <path
       d="m 150,272 h 53"
       id="path19" />
    <!-- Separator Part / Drawing-Nr -->
    <path
       d="m 150,278 h 53"
       id="path21" />
    <!-- Separator DRW-Info / Revision -->
    <path
       d="m 180,278 v 8"
       id="path23" />
    <!-- Separator Date / Revision -->
  </g>
  <g
     id="titleblock-text-non-editable"
     style="font-size:3px;text-anchor:start;fill:#000000;font-family:tahoma">
    <text
       x="64"
       y="259"
       id="text26">Institute:</text>
    <text
       x="64"
       y="263"
       id="text28">Dep.:</text>
    <text
       x="109"
       y="259"
       id="text30">Project:</text>
    <text
       x="64"
       y="268"
       id="text32">TITLE:</text>
    <text
       x="64"
       y="285"
       id="text34">Document type:</text>
    <text
       x="181"
       y="259"
       id="text36">Sheet:</text>
    <text
       x="181"
       y="263"
       id="text38">Size:</text>
    <text
       x="151"
       y="259"
       id="text40">Scale:</text>
    <text
       x="151"
       y="263"
       id="text42">Toler.:</text>
    <text
       x="151"
       y="267"
       id="text44">Part material:</text>
    <text
       x="151"
       y="271"
       id="text46">Part number:</text>
    <text
       x="151"
       y="276"
       id="text48">Drawing no.:</text>
    <text
       x="181"
       y="281"
       id="text52">version:</text>
  </g>
  <g
     id="titleblock-text-editable"
     style="font-size:3px;text-anchor:start;fill:#000000;font-family:tahoma">
    <text
       freecad:editable="AUTHOR_NAME"
       x="80"
       y="259"
       id="text57"><tspan
         id="tspan55">AUTHOR NAME</tspan></text>
    <text
       freecad:editable="APPROVER_NAME"
       x="80"
       y="263"
       id="text61"><tspan
         id="tspan59">APPROVER NAME</tspan></text>
    <text
       freecad:editable="OWNER_NAME"
       x="110"
       y="263"
       id="text65"><tspan
         id="tspan63">OWNER NAME</tspan></text>
    <text
       freecad:editable="TITLELINE-1"
       x="65"
       y="272"
       id="text69"><tspan
         id="tspan67">FreeCAD</tspan></text>
    <text
       freecad:editable="TITLELINE-2"
       x="65"
       y="276"
       id="text73"><tspan
         id="tspan71" /></text>
    <text
       freecad:editable="TITLELINE-3"
       x="65"
       y="280"
       id="text77"><tspan
         id="tspan75" /></text>
    <text
       freecad:editable="DOCUMENT_TYPE"
       x="87"
       y="285"
       id="text81"><tspan
         id="tspan79">Mechanical assembly drawing</tspan></text>
    <text
       freecad:editable="SHEET"
       x="190"
       y="259"
       id="text85"><tspan
         id="tspan83">99 of 99</tspan></text>
    <text
       freecad:editable="SCALE"
       x="160"
       y="259"
       id="text89"><tspan
         id="tspan87">M x:x</tspan></text>
    <text
       freecad:editable="TOLERANCE"
       x="160"
       y="263"
       id="text93"><tspan
         id="tspan91">+/- ?</tspan></text>
    <text
       freecad:editable="PM"
       x="170"
       y="267"
       id="text97"><tspan
         id="tspan95">PM</tspan></text>
    <text
       freecad:editable="PN"
       x="170"
       y="271"
       id="text101"><tspan
         id="tspan99">PN</tspan></text>
    <text
       freecad:editable="DN"
       x="170"
       y="276"
       id="text105"><tspan
         id="tspan103">DN</tspan></text>
    <text
       freecad:editable="REVISION"
       x="182"
       y="285"
       id="text113"><tspan
         id="tspan111">REV A</tspan></text>
    <text
       freecad:editable="SIZE"
       x="190"
       y="263"
       id="text117"><tspan
         id="tspan115">A4</tspan></text>
    <text
       freecad:editable="RIGHTS"
       x="64"
       y="289"
       id="text121"><tspan
         id="tspan119">(R) DO NOT DUPLICATE THIS DRAWING TO THIRD PARTIES WITHOUT OWNER'S PERMISSION !</tspan></text>
    <g
       id="g1898"
       transform="matrix(0.0588609,0,0,0.0588609,159.18128,279.13542)">
      <rect
         x="0"
         y="0"
         width="200"
         height="100"
         fill="#ffffff"
         stroke="none"
         id="rect1868" />
      <g
         stroke="#404040"
         stroke-width="1"
         stroke-dasharray="35, 5, 5, 5"
         stroke-dashoffset="17.5"
         id="g1874">
        <line
           x1="0"
           y1="50"
           x2="200"
           y2="50"
           id="line1870" />
        <line
           x1="150"
           y1="0"
           x2="150"
           y2="100"
           id="line1872" />
      </g>
      <g
         stroke="#000000"
         stroke-width="2"
         fill="none"
         id="g1882">
        <polygon
           points="10,10 90,30 90,70 10,90 "
           id="polygon1876" />
        <circle
           cx="150"
           cy="50"
           r="20"
           id="circle1878" />
        <circle
           cx="150"
           cy="50"
           r="40"
           id="circle1880" />
      </g>
    </g>
  </g>
  <!-- Set display:none to hide FreeCAD Logo or remove this and next 4 lines from this code -->
  <g
     style="display:inline"
     id="freecad-logo"
     transform="translate(50.236566,277.83376)"
     fill-rule="evenodd"
     stroke="#000000"
     stroke-width="0.35"
     fill="none">
    <path
       d="m 0.1524,0.15254 v 8.8549 h 1.9744 v -3.4652 h 1.396 v -1.3661 h -1.396 v -1.4745 h 3.4391 v -2.5441 z"
       id="path124" />
    <path
       d="M 7.7927,3.4504 7.28555,3.2744 6.80168,2.0378 6.04053,2.0778 5.69335,3.3565 5.20745,3.58919 3.99555,3.05904 3.48367,3.62786 4.14259,4.77636 3.96253,5.28203 2.72593,5.7659 l 0.044064,0.76263 1.2787,0.34718 0.23269,0.4859 -0.53421,1.2104 0.56882,0.51188 1.1485,-0.65891 0.50973,0.18155 0.4798,1.2351 0.7667,-0.04258 0.34311,-1.2802 0.4859,-0.23269 1.2145,0.5357 0.51188,-0.56882 -0.65891,-1.1485 0.17748,-0.51122 1.2351,-0.4798 L 10.491274,5.34831 9.211074,5.0052 8.978384,4.5193 9.510014,3.3033 8.941204,2.79146 Z M 7.2212,4.6748 7.45696,4.81159 7.66122,4.99678 7.82475,5.21779 7.94238,5.46351 8.01154,5.7284 8.023,5.99986 7.98379,6.27125 7.89431,6.52889 7.75197,6.76723 7.57233,6.9689 7.35132,7.13243 7.1056,7.25006 6.84071,7.31922 6.56776,7.33475 l -0.2719,-0.04 -0.2576,-0.089 -0.2383,-0.143 -0.2002,-0.183 -0.165,-0.217 -0.1177,-0.246 -0.0676,-0.269 -0.0156,-0.273 L 5.273066,5.60335 5.36255,5.34571 5.5034,5.11144 5.68453,4.9057 5.90554,4.74218 6.15126,4.62455 6.42021,4.55687 6.69168,4.54541 6.96307,4.58462 7.22071,4.6741 Z"
       id="path126" />
  </g>
  <g
     id="oshwlogo"
     transform="matrix(0.06881056,0,0,0.06881056,48.924137,262.21043)">
    <path
       fill="#0099b0"
       d="m 152.336,57.604 -16.439,-3.057 c -0.4,-0.075 -0.838,-0.451 -0.973,-0.837 l -5.039,-11.756 c -0.188,-0.363 -0.152,-0.933 0.08,-1.271 l 9.578,-13.96 c 0.229,-0.336 0.184,-0.847 -0.105,-1.136 L 127.475,13.624 c -0.289,-0.289 -0.799,-0.336 -1.135,-0.105 l -14.205,9.748 c -0.336,0.231 -0.912,0.272 -1.277,0.092 L 99.462,18.694 c -0.387,-0.128 -0.764,-0.561 -0.84,-0.962 L 95.457,0.729 C 95.383,0.328 94.988,0 94.58,0 H 77.66 C 77.253,0 76.858,0.328 76.784,0.729 L 73.62,17.732 c -0.076,0.401 -0.452,0.834 -0.84,0.962 l -11.397,4.665 c -0.366,0.18 -0.942,0.139 -1.277,-0.092 L 45.902,13.519 c -0.337,-0.231 -0.848,-0.184 -1.136,0.105 L 32.802,25.587 c -0.288,0.289 -0.336,0.8 -0.105,1.136 l 9.579,13.96 c 0.23,0.338 0.266,0.908 0.079,1.271 l -5.04,11.756 c -0.134,0.386 -0.571,0.762 -0.973,0.837 l -16.438,3.057 c -0.402,0.076 -0.729,0.47 -0.729,0.878 l 10e-4,16.919 c 0,0.408 0.328,0.805 0.729,0.878 l 16.035,2.984 c 0.401,0.073 0.83,0.454 0.952,0.843 l 5.006,12.505 c 0.179,0.367 0.137,0.941 -0.095,1.277 l -9.108,13.273 c -0.23,0.336 -0.183,0.848 0.105,1.137 l 11.965,11.963 c 0.288,0.287 0.799,0.334 1.136,0.105 l 13.038,-8.949 c 0.336,-0.23 0.899,-0.248 1.25,-0.043 l 5.75,3.07 c 0.364,0.186 0.789,0.029 0.945,-0.348 L 78.74,85.449 c 0.157,-0.377 0,-0.858 -0.348,-1.071 l -1.439,-0.881 c -0.266,-0.162 -0.627,-0.441 -0.91,-0.697 -5.191,-3.324 -8.635,-9.139 -8.635,-15.761 0,-10.334 8.378,-18.711 18.711,-18.711 10.333,0 18.71,8.377 18.71,18.711 0,6.622 -3.443,12.437 -8.635,15.761 -0.281,0.256 -0.643,0.535 -0.908,0.697 l -1.439,0.881 c -0.346,0.213 -0.504,0.694 -0.348,1.071 l 11.855,28.648 c 0.156,0.377 0.58,0.533 0.945,0.348 l 5.75,-3.07 c 0.352,-0.205 0.914,-0.188 1.25,0.043 l 13.039,8.949 c 0.336,0.229 0.848,0.182 1.135,-0.105 l 11.965,-11.963 c 0.289,-0.289 0.336,-0.801 0.105,-1.137 l -9.109,-13.273 c -0.23,-0.336 -0.273,-0.91 -0.094,-1.277 l 5.006,-12.505 c 0.123,-0.389 0.549,-0.77 0.951,-0.843 l 16.035,-2.984 c 0.4,-0.073 0.729,-0.47 0.729,-0.878 l 0.002,-16.919 c 0.001,-0.409 -0.327,-0.803 -0.727,-0.879"
       id="path1007" />
    <path
       fill-rule="evenodd"
       fill="#0099b0"
       d="m 45.597,180.781 h 3.613 v -12.254 c 0,-4.426 -3.046,-5.914 -7.473,-5.914 -2.692,0 -4.675,0.707 -6.056,2.621 l 2.833,2.16 c 0.637,-1.027 1.523,-1.383 3.4,-1.383 2.585,0 3.683,0.604 3.683,2.303 v 1.877 h -4.994 c -3.86,0 -5.843,2.445 -5.843,5.313 0,3.117 2.337,5.49 6.339,5.49 2.444,0 3.684,-0.566 4.427,-1.807 h 0.071 z m 0,-6.305 c 0,2.799 -1.027,3.117 -4.037,3.117 -2.444,0 -3.401,-1.063 -3.401,-2.266 0,-1.311 0.992,-2.162 3.118,-2.162 h 4.32 z"
       id="path1009" />
    <path
       fill-rule="evenodd"
       fill="#0099b0"
       d="m 53.178,180.781 h 3.612 v -10.803 c 0,-2.619 1.736,-3.754 3.507,-3.754 0.921,0 1.523,0.248 2.373,0.887 l 2.62,-3.117 c -1.098,-0.85 -2.301,-1.381 -3.754,-1.381 -1.912,0 -3.542,0.709 -4.675,2.125 H 56.79 v -1.912 h -3.612 z"
       id="path1011" />
    <path
       fill-rule="evenodd"
       fill="#0099b0"
       d="m 76.095,180.781 h 3.612 v -25.217 h -3.612 v 9.174 c -1.346,-1.275 -2.798,-2.125 -4.64,-2.125 -2.196,0 -3.789,0.99 -4.816,2.338 -0.992,1.273 -1.275,2.441 -1.275,6.836 0,4.426 0.283,5.594 1.275,6.869 1.027,1.346 2.62,2.338 4.816,2.338 1.842,0 3.507,-0.852 4.64,-2.09 z m -3.542,-14.557 c 3.365,0 3.542,2.977 3.542,5.563 0,2.621 -0.177,5.594 -3.542,5.594 -3.4,0 -3.577,-2.797 -3.577,-5.594 0,-2.764 0.177,-5.563 3.577,-5.563"
       id="path1013" />
    <polygon
       fill-rule="evenodd"
       fill="#0099b0"
       points="90.564,180.781 94.318,168.208 94.389,168.208 98.143,180.781 101.332,180.781 107.068,162.826 103.242,162.826 99.809,175.398 99.736,175.398 95.664,162.826 93.043,162.826 88.971,175.398 88.9,175.398 85.464,162.826 81.64,162.826 87.377,180.781 "
       id="polygon1015" />
    <path
       fill-rule="evenodd"
       fill="#0099b0"
       d="m 118.186,180.781 h 3.613 v -12.254 c 0,-4.426 -3.047,-5.914 -7.473,-5.914 -2.691,0 -4.676,0.707 -6.057,2.621 l 2.834,2.16 c 0.637,-1.027 1.521,-1.383 3.398,-1.383 2.586,0 3.684,0.604 3.684,2.303 v 1.877 h -4.994 c -3.859,0 -5.844,2.445 -5.844,5.313 0,3.117 2.338,5.49 6.34,5.49 2.443,0 3.684,-0.566 4.428,-1.807 h 0.07 v 1.594 z m 0,-6.305 c 0,2.799 -1.027,3.117 -4.037,3.117 -2.443,0 -3.4,-1.063 -3.4,-2.266 0,-1.311 0.992,-2.162 3.117,-2.162 h 4.32 z"
       id="path1017" />
    <path
       fill-rule="evenodd"
       fill="#0099b0"
       d="m 125.768,180.781 h 3.611 v -10.803 c 0,-2.619 1.734,-3.754 3.506,-3.754 0.922,0 1.523,0.248 2.373,0.887 l 2.621,-3.117 c -1.098,-0.85 -2.303,-1.381 -3.754,-1.381 -1.912,0 -3.541,0.709 -4.674,2.125 h -0.072 v -1.912 h -3.611 z"
       id="path1019" />
    <path
       fill-rule="evenodd"
       fill="#0099b0"
       d="m 152.748,173.167 v -2.977 c 0,-4.639 -3.434,-7.578 -7.4,-7.578 -3.471,0 -7.402,2.266 -7.402,9.242 0,7.367 4.285,9.139 7.969,9.139 2.408,0 4.709,-0.85 6.48,-2.904 l -2.621,-2.232 c -1.063,1.1 -2.551,1.736 -3.93,1.736 -2.48,0 -4.285,-1.488 -4.285,-4.426 z m -11.189,-2.976 c 0.07,-2.727 1.664,-4.18 3.789,-4.18 2.125,0 3.684,1.453 3.789,4.18 z"
       id="path1021" />
    <path
       fill-rule="evenodd"
       fill="#0099b0"
       d="m 0,143.425 c 0,3.895 0.566,5.383 1.947,6.906 0.992,1.098 2.657,2.301 5.455,2.301 2.797,0 4.462,-1.203 5.454,-2.301 1.381,-1.523 1.948,-3.012 1.948,-6.906 0,-3.861 -0.567,-5.348 -1.948,-6.871 -0.992,-1.098 -2.657,-2.303 -5.454,-2.303 -2.798,0 -4.463,1.205 -5.455,2.303 C 0.566,138.078 0,139.564 0,143.425 m 11.191,0.035 c 0,2.586 -0.212,3.293 -0.885,4.25 -0.532,0.744 -1.665,1.311 -2.904,1.311 -1.24,0 -2.373,-0.566 -2.904,-1.311 -0.673,-0.957 -0.886,-1.664 -0.886,-4.285 0,-2.586 0.213,-3.295 0.886,-4.25 0.531,-0.744 1.664,-1.311 2.904,-1.311 1.239,0 2.372,0.566 2.904,1.311 0.673,0.955 0.885,1.664 0.885,4.285"
       id="path1023" />
    <path
       fill-rule="evenodd"
       fill="#0099b0"
       d="m 49.469,144.806 v -2.975 c 0,-4.641 -3.435,-7.58 -7.401,-7.58 -3.472,0 -7.402,2.268 -7.402,9.244 0,7.365 4.285,9.137 7.968,9.137 2.409,0 4.71,-0.85 6.481,-2.904 l -2.621,-2.23 c -1.062,1.098 -2.549,1.736 -3.93,1.736 -2.48,0 -4.286,-1.488 -4.286,-4.428 z m -11.191,-2.974 c 0.071,-2.729 1.665,-4.18 3.79,-4.18 2.125,0 3.683,1.451 3.789,4.18 z"
       id="path1025" />
    <path
       fill-rule="evenodd"
       fill="#0099b0"
       d="m 52.552,152.419 h 3.612 v -10.693 c 0,-2.445 1.523,-3.861 3.577,-3.861 2.019,0 3.542,1.416 3.542,3.861 v 10.693 h 3.612 v -11.934 c 0,-4.074 -3.187,-6.234 -5.985,-6.234 -1.912,0 -3.542,0.709 -4.674,2.125 h -0.072 v -1.912 h -3.612 z"
       id="path1027" />
    <path
       fill-rule="evenodd"
       fill="#0099b0"
       d="m 76.662,149.41 c 2.302,2.16 4.994,3.223 7.898,3.223 4.179,0 7.437,-2.018 7.437,-5.525 0,-2.867 -1.486,-5.135 -5.206,-5.383 l -2.975,-0.211 c -1.806,-0.143 -2.372,-0.922 -2.372,-1.701 0,-1.238 0.779,-2.16 3.08,-2.16 1.949,0 3.402,0.674 4.818,1.664 l 2.23,-2.619 c -1.771,-1.488 -3.895,-2.445 -7.049,-2.445 -3.789,0 -6.693,1.877 -6.693,5.525 0,3.08 2.196,4.852 5.17,5.1 l 3.188,0.283 c 1.241,0.105 2.196,0.496 2.196,1.771 0,1.523 -1.489,2.301 -3.542,2.301 -2.408,0 -4.108,-0.777 -5.666,-2.301 z"
       id="path1029" />
    <path
       fill-rule="evenodd"
       fill="#0099b0"
       d="m 94.051,143.425 c 0,3.895 0.568,5.383 1.949,6.906 0.992,1.098 2.656,2.301 5.453,2.301 2.799,0 4.463,-1.203 5.455,-2.301 1.381,-1.523 1.947,-3.012 1.947,-6.906 0,-3.861 -0.566,-5.348 -1.947,-6.871 -0.992,-1.098 -2.656,-2.303 -5.455,-2.303 -2.797,0 -4.461,1.205 -5.453,2.303 -1.381,1.524 -1.949,3.01 -1.949,6.871 m 11.191,0.035 c 0,2.586 -0.211,3.293 -0.885,4.25 -0.531,0.744 -1.664,1.311 -2.904,1.311 -1.238,0 -2.373,-0.566 -2.902,-1.311 -0.674,-0.957 -0.887,-1.664 -0.887,-4.285 0,-2.586 0.213,-3.295 0.887,-4.25 0.529,-0.744 1.664,-1.311 2.902,-1.311 1.24,0 2.373,0.566 2.904,1.311 0.674,0.955 0.885,1.664 0.885,4.285"
       id="path1031" />
    <path
       fill-rule="evenodd"
       fill="#0099b0"
       d="m 111.939,146.4 c 0,4.072 3.188,6.232 6.021,6.232 1.875,0 3.506,-0.709 4.639,-2.125 h 0.07 v 1.914 h 3.611 v -17.957 h -3.611 v 10.695 c 0,2.443 -1.523,3.861 -3.543,3.861 -2.053,0 -3.576,-1.418 -3.576,-3.861 v -10.695 h -3.611 z"
       id="path1033" />
    <path
       fill-rule="evenodd"
       fill="#0099b0"
       d="m 130.242,152.419 h 3.613 v -10.801 c 0,-2.621 1.734,-3.754 3.506,-3.754 0.922,0 1.523,0.248 2.373,0.885 l 2.621,-3.117 c -1.1,-0.85 -2.301,-1.381 -3.754,-1.381 -1.912,0 -3.543,0.709 -4.676,2.125 h -0.07 v -1.912 h -3.613 z"
       id="path1035" />
    <path
       fill-rule="evenodd"
       fill="#0099b0"
       d="m 153.859,147.144 c -0.885,1.098 -2.16,1.877 -3.646,1.877 -2.939,0 -4.676,-1.666 -4.676,-5.563 0,-3.93 1.736,-5.594 4.676,-5.594 1.486,0 2.762,0.779 3.646,1.877 l 2.656,-2.373 c -1.557,-1.807 -3.719,-3.117 -6.445,-3.117 -4.143,0 -8.145,2.621 -8.145,9.207 0,6.555 4.002,9.174 8.145,9.174 2.727,0 4.889,-1.311 6.445,-3.115 z"
       id="path1037" />
    <path
       fill-rule="evenodd"
       fill="#0099b0"
       d="m 172.238,144.806 v -2.975 c 0,-4.641 -3.438,-7.58 -7.402,-7.58 -3.473,0 -7.402,2.268 -7.402,9.244 0,7.365 4.285,9.137 7.969,9.137 2.408,0 4.711,-0.85 6.48,-2.904 l -2.621,-2.23 c -1.063,1.098 -2.549,1.736 -3.93,1.736 -2.48,0 -4.285,-1.488 -4.285,-4.428 z m -11.191,-2.974 c 0.07,-2.729 1.664,-4.18 3.789,-4.18 2.125,0 3.682,1.451 3.789,4.18 z"
       id="path1039" />
    <path
       fill="#0099b0"
       d="m 25.041,149.021 c 3.4,0 3.577,-2.799 3.577,-5.561 0,-2.799 -0.177,-5.596 -3.577,-5.596 -3.364,0 -3.542,2.975 -3.542,5.596 0,2.586 0.177,5.561 3.542,5.561 m -7.168,31.76 v -46.316 h 3.626 v 1.877 c 1.134,-1.24 2.798,-2.09 4.64,-2.09 2.195,0 3.79,0.992 4.817,2.338 0.991,1.275 1.274,2.443 1.274,6.871 0,4.391 -0.283,5.561 -1.274,6.834 -1.027,1.346 -2.622,2.338 -4.817,2.338 -1.842,0 -3.294,-0.85 -4.64,-2.125 l -0.013,14.23 c 1.204,-1.416 2.833,-2.125 4.745,-2.125 2.798,0 5.985,2.16 5.985,6.232 v 11.936 h -3.612 v -10.695 c 0,-2.445 -1.523,-3.861 -3.542,-3.861 -2.054,0 -3.576,1.416 -3.576,3.861 v 10.695 z"
       id="path1041" />
  </g>
</svg>
